<svg fill="none" height="45" viewBox="0 0 45 45" width="45" xmlns="http://www.w3.org/2000/svg"><rect fill="#e67109" height="45" rx="5" width="45"/><g stroke="#fff" stroke-linecap="round" stroke-linejoin="round" stroke-width="1.5"><path d="m35.0625 11.7767c0-1.5339-1.1996-2.7767-2.6803-2.7767h-20.7019c-1.4807 0-2.6803 1.2428-2.6803 2.7767v21.4466c0 1.5339 1.1996 2.7767 2.6803 2.7767h20.7019c1.4807 0 2.6803-1.2428 2.6803-2.7767z"/><path d="m29.4193 22.5h-7.9471"/><path d="m15.4993 22.2233c.1475.1528.1475.4007 0 .5535-.1475.1529-.3867.1529-.5342 0-.1475-.1528-.1475-.4007 0-.5535.1475-.1529.3867-.1529.5342 0z"/><path d="m29.4193 15.4565h-7.9471"/><path d="m15.4993 15.1847c.1475.1528.1475.4006 0 .5534s-.3867.1528-.5342 0-.1475-.4006 0-.5534.3867-.1528.5342 0z"/><path d="m29.5556 29.5435h-7.9472"/><path d="m15.6326 29.2733c.1475.1527.1475.4004 0 .5532s-.3867.1528-.5342 0-.1475-.4005 0-.5532c.1475-.1528.3867-.1528.5342 0z"/></g></svg>