<svg width="829" height="746" viewBox="0 0 829 746" fill="none" xmlns="http://www.w3.org/2000/svg">
<g filter="url(#filter0_d)">
<rect x="54" y="42" width="742" height="658" fill="white"/>
</g>
<path d="M54 5C54 2.23858 56.2386 0 59 0H791C793.761 0 796 2.23858 796 5V42H54V5Z" fill="#141415"/>
<circle cx="80" cy="21" r="6" fill="#CC0226"/>
<circle cx="100" cy="21" r="6" fill="#E67109"/>
<circle cx="120" cy="21" r="6" fill="#00CA4E"/>
<g filter="url(#filter1_d)">
<rect x="15" y="195" width="672" height="84" fill="white"/>
</g>
<path d="M103.242 244H110.604C110.766 244 110.874 243.892 110.874 243.73V242.776C110.874 242.614 110.766 242.506 110.604 242.506H105.366C105.294 242.506 105.258 242.452 105.312 242.398C106.608 240.904 107.832 239.5 108.912 238.114C109.956 236.8 110.532 235.648 110.532 234.586C110.532 232.696 109.056 231.256 106.716 231.256C104.574 231.256 103.008 232.498 102.936 234.406V235.09C102.936 235.252 103.044 235.36 103.206 235.36H104.412C104.574 235.36 104.682 235.252 104.682 235.09V234.64C104.664 233.506 105.474 232.75 106.716 232.75C107.958 232.75 108.786 233.506 108.786 234.622C108.786 235.396 108.156 236.476 107.112 237.718C105.852 239.23 104.52 240.85 103.098 242.452C103.008 242.56 102.972 242.668 102.972 242.794V243.73C102.972 243.892 103.08 244 103.242 244Z" fill="#141415"/>
<path d="M187.526 244.144C190.154 244.144 191.9 242.65 191.9 239.842V237.646C191.9 237.484 191.792 237.376 191.63 237.376H187.76C187.598 237.376 187.49 237.484 187.49 237.646V238.582C187.49 238.744 187.598 238.852 187.76 238.852H190.082C190.136 238.852 190.172 238.888 190.172 238.942V240.31C190.172 241.768 189.164 242.632 187.598 242.632C185.978 242.632 184.862 241.624 184.862 240.058V235.342C184.862 233.776 185.924 232.768 187.526 232.768C189.128 232.768 190.172 233.776 190.172 235.198V235.36C190.172 235.468 190.28 235.54 190.442 235.54H191.63C191.792 235.54 191.9 235.432 191.9 235.27V235.162C191.9 232.912 190.154 231.256 187.526 231.256C184.898 231.256 183.134 232.894 183.134 235.396V240.004C183.134 242.488 184.898 244.144 187.526 244.144ZM198.19 234.748C197.2 234.748 196.48 235.234 195.994 235.972C195.958 236.044 195.904 236.026 195.904 235.936V235.108C195.904 234.946 195.796 234.838 195.634 234.838H194.446C194.284 234.838 194.176 234.946 194.176 235.108V243.73C194.176 243.892 194.284 244 194.446 244H195.634C195.796 244 195.904 243.892 195.904 243.73V238.564C195.904 237.358 196.75 236.584 197.848 236.548C198.19 236.512 198.514 236.548 198.73 236.62C198.91 236.674 199.018 236.656 199.054 236.458L199.306 235.288C199.342 235.144 199.306 235.018 199.162 234.946C198.928 234.838 198.622 234.748 198.19 234.748ZM204.151 234.694C202.171 234.694 200.749 235.684 200.533 237.034C200.515 237.16 200.623 237.25 200.785 237.268L202.081 237.43C202.243 237.448 202.333 237.376 202.387 237.214C202.567 236.584 203.179 236.188 204.187 236.188C205.465 236.188 206.041 236.836 206.041 237.862V238.33C206.041 238.384 206.005 238.42 205.951 238.42H203.953C201.577 238.42 200.227 239.572 200.227 241.426C200.227 243.352 201.613 244.144 203.233 244.144C204.313 244.144 205.267 243.802 205.933 243.172C205.987 243.118 206.041 243.154 206.041 243.226V243.73C206.041 243.892 206.149 244 206.311 244H207.499C207.661 244 207.769 243.892 207.769 243.73V237.736C207.769 235.972 206.401 234.694 204.151 234.694ZM203.665 242.686C202.711 242.686 201.955 242.254 201.955 241.336C201.955 240.328 202.873 239.77 204.277 239.77H205.951C206.005 239.77 206.041 239.806 206.041 239.86V240.904C206.041 241.966 204.907 242.686 203.665 242.686ZM214.17 234.712C213.198 234.712 212.424 235 211.902 235.666C211.866 235.72 211.812 235.684 211.812 235.612V235.108C211.812 234.946 211.704 234.838 211.542 234.838H210.354C210.192 234.838 210.084 234.946 210.084 235.108V243.73C210.084 243.892 210.192 244 210.354 244H211.542C211.704 244 211.812 243.892 211.812 243.73V237.898C211.938 236.872 212.694 236.206 213.738 236.206C214.89 236.206 215.646 237.034 215.646 238.222V243.73C215.646 243.892 215.754 244 215.916 244H217.104C217.266 244 217.374 243.892 217.374 243.73V237.88C217.374 235.936 216.132 234.712 214.17 234.712ZM220.848 233.47C221.55 233.47 222.018 233.002 222.018 232.336C222.018 231.67 221.55 231.202 220.848 231.202C220.146 231.202 219.66 231.67 219.66 232.336C219.66 233.002 220.146 233.47 220.848 233.47ZM220.254 244H221.442C221.604 244 221.712 243.892 221.712 243.73V235.108C221.712 234.946 221.604 234.838 221.442 234.838H220.254C220.092 234.838 219.984 234.946 219.984 235.108V243.73C219.984 243.892 220.092 244 220.254 244ZM228.876 235.99V235.108C228.876 234.946 228.768 234.838 228.606 234.838H226.77C226.716 234.838 226.68 234.802 226.68 234.748V232.732C226.68 232.57 226.572 232.462 226.41 232.462H225.294C225.132 232.462 225.024 232.57 225.024 232.732V234.748C225.024 234.802 224.988 234.838 224.934 234.838H223.944C223.782 234.838 223.674 234.946 223.674 235.108V235.99C223.674 236.152 223.782 236.26 223.944 236.26H224.934C224.988 236.26 225.024 236.296 225.024 236.35V241.678C225.024 243.568 226.104 243.982 227.778 243.982C228.03 243.982 228.264 243.964 228.516 243.964C228.696 243.946 228.786 243.838 228.786 243.676V242.74C228.786 242.578 228.678 242.47 228.516 242.47H228.084C227.13 242.47 226.68 242.092 226.68 241.048V236.35C226.68 236.296 226.716 236.26 226.77 236.26H228.606C228.768 236.26 228.876 236.152 228.876 235.99ZM234.643 242.668C233.455 242.668 232.627 242.056 232.375 241.12C232.303 240.904 232.267 240.58 232.249 240.148C232.249 240.094 232.285 240.058 232.339 240.058H238.027C238.189 240.058 238.297 239.968 238.297 239.788C238.279 239.176 238.243 238.654 238.171 238.168C237.829 236.008 236.749 234.694 234.391 234.694C232.519 234.694 231.169 235.738 230.737 237.376C230.575 237.934 230.539 238.546 230.539 239.374C230.539 240.364 230.701 241.246 230.989 241.948C231.583 243.334 232.753 244.144 234.481 244.144C236.119 244.144 237.307 243.388 237.937 242.254C238.009 242.092 237.973 241.966 237.829 241.876L237.091 241.426C236.929 241.318 236.821 241.372 236.731 241.534C236.335 242.236 235.633 242.65 234.643 242.668ZM234.391 236.188C235.471 236.188 236.191 236.818 236.425 237.736C236.479 237.934 236.515 238.258 236.533 238.618C236.533 238.672 236.497 238.708 236.443 238.708H232.357C232.303 238.708 232.267 238.672 232.267 238.618C232.285 238.222 232.339 237.88 232.429 237.61C232.663 236.764 233.311 236.188 234.391 236.188Z" fill="#141415"/>
<path d="M319.242 244H326.604C326.766 244 326.874 243.892 326.874 243.73V242.776C326.874 242.614 326.766 242.506 326.604 242.506H321.366C321.294 242.506 321.258 242.452 321.312 242.398C322.608 240.904 323.832 239.5 324.912 238.114C325.956 236.8 326.532 235.648 326.532 234.586C326.532 232.696 325.056 231.256 322.716 231.256C320.574 231.256 319.008 232.498 318.936 234.406V235.09C318.936 235.252 319.044 235.36 319.206 235.36H320.412C320.574 235.36 320.682 235.252 320.682 235.09V234.64C320.664 233.506 321.474 232.75 322.716 232.75C323.958 232.75 324.786 233.506 324.786 234.622C324.786 235.396 324.156 236.476 323.112 237.718C321.852 239.23 320.52 240.85 319.098 242.452C319.008 242.56 318.972 242.668 318.972 242.794V243.73C318.972 243.892 319.08 244 319.242 244ZM332.867 244.18C335.297 244.18 336.863 242.704 336.863 240.364V235.036C336.863 232.714 335.297 231.238 332.867 231.238C330.455 231.238 328.907 232.714 328.907 235.036V240.364C328.907 242.704 330.455 244.18 332.867 244.18ZM332.867 242.686C331.517 242.686 330.635 241.822 330.635 240.472V234.964C330.635 233.614 331.517 232.75 332.867 232.75C334.253 232.75 335.135 233.614 335.135 234.964V240.472C335.135 241.822 334.253 242.686 332.867 242.686ZM350.986 231.4H342.544C342.382 231.4 342.274 231.508 342.274 231.67V232.642C342.274 232.804 342.382 232.912 342.544 232.912H345.73C345.784 232.912 345.82 232.948 345.82 233.002V243.73C345.82 243.892 345.928 244 346.09 244H347.278C347.44 244 347.548 243.892 347.548 243.73V233.002C347.548 232.948 347.584 232.912 347.638 232.912H350.986C351.148 232.912 351.256 232.804 351.256 232.642V231.67C351.256 231.508 351.148 231.4 350.986 231.4ZM355.594 244.144C357.34 244.144 358.708 243.19 359.248 241.588C359.464 240.958 359.572 240.148 359.572 239.374C359.572 238.618 359.464 237.826 359.248 237.214C358.708 235.648 357.358 234.694 355.612 234.694C353.776 234.694 352.39 235.648 351.868 237.232C351.67 237.808 351.562 238.6 351.562 239.392C351.562 240.184 351.688 240.994 351.886 241.588C352.408 243.19 353.794 244.144 355.594 244.144ZM355.594 242.65C354.568 242.65 353.794 242.074 353.506 241.102C353.38 240.688 353.308 240.058 353.308 239.41C353.308 238.744 353.38 238.132 353.506 237.736C353.812 236.764 354.568 236.188 355.558 236.188C356.584 236.188 357.34 236.764 357.646 237.736C357.754 238.132 357.826 238.744 357.826 239.41C357.826 240.022 357.754 240.67 357.628 241.102C357.322 242.074 356.566 242.65 355.594 242.65ZM365.903 234.712C364.931 234.712 364.157 235 363.635 235.666C363.599 235.72 363.545 235.684 363.545 235.612V235.108C363.545 234.946 363.437 234.838 363.275 234.838H362.087C361.925 234.838 361.817 234.946 361.817 235.108V243.73C361.817 243.892 361.925 244 362.087 244H363.275C363.437 244 363.545 243.892 363.545 243.73V237.898C363.671 236.872 364.427 236.206 365.471 236.206C366.623 236.206 367.379 237.034 367.379 238.222V243.73C367.379 243.892 367.487 244 367.649 244H368.837C368.999 244 369.107 243.892 369.107 243.73V237.88C369.107 235.936 367.865 234.712 365.903 234.712ZM375.659 234.712C374.687 234.712 373.913 235 373.391 235.666C373.355 235.72 373.301 235.684 373.301 235.612V235.108C373.301 234.946 373.193 234.838 373.031 234.838H371.843C371.681 234.838 371.573 234.946 371.573 235.108V243.73C371.573 243.892 371.681 244 371.843 244H373.031C373.193 244 373.301 243.892 373.301 243.73V237.898C373.427 236.872 374.183 236.206 375.227 236.206C376.379 236.206 377.135 237.034 377.135 238.222V243.73C377.135 243.892 377.243 244 377.405 244H378.593C378.755 244 378.863 243.892 378.863 243.73V237.88C378.863 235.936 377.621 234.712 375.659 234.712ZM385.18 242.668C383.992 242.668 383.164 242.056 382.912 241.12C382.84 240.904 382.804 240.58 382.786 240.148C382.786 240.094 382.822 240.058 382.876 240.058H388.564C388.726 240.058 388.834 239.968 388.834 239.788C388.816 239.176 388.78 238.654 388.708 238.168C388.366 236.008 387.286 234.694 384.928 234.694C383.056 234.694 381.706 235.738 381.274 237.376C381.112 237.934 381.076 238.546 381.076 239.374C381.076 240.364 381.238 241.246 381.526 241.948C382.12 243.334 383.29 244.144 385.018 244.144C386.656 244.144 387.844 243.388 388.474 242.254C388.546 242.092 388.51 241.966 388.366 241.876L387.628 241.426C387.466 241.318 387.358 241.372 387.268 241.534C386.872 242.236 386.17 242.65 385.18 242.668ZM384.928 236.188C386.008 236.188 386.728 236.818 386.962 237.736C387.016 237.934 387.052 238.258 387.07 238.618C387.07 238.672 387.034 238.708 386.98 238.708H382.894C382.84 238.708 382.804 238.672 382.804 238.618C382.822 238.222 382.876 237.88 382.966 237.61C383.2 236.764 383.848 236.188 384.928 236.188ZM394.236 244.108C396.378 244.108 397.782 243.082 397.782 241.444C397.782 239.554 395.928 239.032 394.38 238.618C393.228 238.294 392.364 238.024 392.364 237.25C392.364 236.53 393.102 236.116 394.146 236.116C395.352 236.116 396.054 236.674 396.054 237.34V237.448C396.054 237.52 396.162 237.574 396.324 237.574H397.404C397.566 237.574 397.674 237.484 397.674 237.34C397.674 235.846 396.288 234.748 394.164 234.748C392.112 234.748 390.708 235.738 390.708 237.376C390.708 239.23 392.49 239.788 394.074 240.22C395.154 240.526 396.054 240.778 396.054 241.552C396.054 242.254 395.334 242.794 394.218 242.794C393.084 242.794 392.292 242.182 392.292 241.534V241.39C392.292 241.318 392.184 241.264 392.022 241.264H390.906C390.744 241.264 390.636 241.372 390.636 241.534V241.642C390.636 243.01 392.058 244.108 394.236 244.108Z" fill="#141415"/>
<path d="M479.154 233.614C478.65 232.138 477.39 231.274 475.59 231.274C473.916 231.274 472.728 232.048 472.188 233.398C471.954 233.938 471.828 234.586 471.828 235.324C471.828 236.224 472.008 236.998 472.332 237.61C472.908 238.69 473.916 239.302 475.356 239.302C476.184 239.302 476.994 239.104 477.588 238.456C477.642 238.402 477.696 238.42 477.696 238.492V240.724C477.696 241.894 476.868 242.632 475.716 242.632C474.618 242.632 473.844 241.894 473.844 240.814V240.634C473.844 240.526 473.736 240.472 473.574 240.472H472.386C472.224 240.472 472.116 240.58 472.116 240.742V241.012C472.116 242.884 473.574 244.144 475.716 244.144C477.894 244.144 479.424 242.884 479.424 240.904V235.36C479.424 234.73 479.334 234.118 479.154 233.614ZM477.408 236.764C477.102 237.448 476.49 237.844 475.644 237.844C474.78 237.844 474.204 237.448 473.88 236.8C473.664 236.422 473.556 235.9 473.556 235.324C473.556 234.784 473.646 234.316 473.826 233.938C474.132 233.218 474.726 232.786 475.626 232.786C476.526 232.786 477.156 233.2 477.462 233.956C477.624 234.316 477.696 234.748 477.696 235.234C477.696 235.792 477.606 236.35 477.408 236.764ZM485.533 244.18C487.963 244.18 489.529 242.704 489.529 240.364V235.036C489.529 232.714 487.963 231.238 485.533 231.238C483.121 231.238 481.573 232.714 481.573 235.036V240.364C481.573 242.704 483.121 244.18 485.533 244.18ZM485.533 242.686C484.183 242.686 483.301 241.822 483.301 240.472V234.964C483.301 233.614 484.183 232.75 485.533 232.75C486.919 232.75 487.801 233.614 487.801 234.964V240.472C487.801 241.822 486.919 242.686 485.533 242.686ZM495.728 244.18C498.158 244.18 499.724 242.704 499.724 240.364V235.036C499.724 232.714 498.158 231.238 495.728 231.238C493.316 231.238 491.768 232.714 491.768 235.036V240.364C491.768 242.704 493.316 244.18 495.728 244.18ZM495.728 242.686C494.378 242.686 493.496 241.822 493.496 240.472V234.964C493.496 233.614 494.378 232.75 495.728 232.75C497.114 232.75 497.996 233.614 497.996 234.964V240.472C497.996 241.822 497.114 242.686 495.728 242.686Z" fill="#141415"/>
<path d="M582.982 240.67C582.982 239.014 582.046 237.934 579.994 237.016C578.158 236.188 576.736 235.882 576.736 234.532C576.736 233.398 577.51 232.75 578.842 232.75C580.426 232.75 581.2 233.704 581.2 234.928V235.144C581.2 235.288 581.308 235.378 581.47 235.378H582.622C582.784 235.378 582.892 235.27 582.892 235.108V234.586C582.892 232.714 581.668 231.454 579.454 231.274C579.4 231.274 579.364 231.256 579.364 231.184L579.382 230.122C579.382 229.96 579.274 229.852 579.112 229.852H578.5C578.338 229.852 578.23 229.96 578.23 230.122L578.248 231.202C578.248 231.274 578.212 231.292 578.158 231.31C576.142 231.544 575.026 232.732 575.026 234.604C575.026 236.242 575.926 237.016 577.42 237.808C579.436 238.96 581.254 239.392 581.254 240.76C581.254 241.822 580.534 242.65 579.058 242.65C577.492 242.65 576.646 241.732 576.646 240.544V240.202C576.646 240.04 576.538 239.932 576.376 239.932H575.224C575.062 239.932 574.954 240.04 574.954 240.202V240.922C574.954 242.668 576.16 243.874 578.212 244.108C578.266 244.108 578.302 244.126 578.302 244.198L578.284 245.152C578.284 245.314 578.392 245.422 578.554 245.422H579.184C579.346 245.422 579.454 245.314 579.454 245.152L579.436 244.216C579.436 244.144 579.472 244.126 579.526 244.126C581.776 243.928 582.982 242.596 582.982 240.67ZM586.705 231.472L584.869 232.372C584.743 232.444 584.671 232.534 584.671 232.678V233.506C584.671 233.704 584.797 233.794 584.977 233.722L586.759 233.11C586.813 233.092 586.867 233.128 586.867 233.182V243.73C586.867 243.892 586.975 244 587.137 244H588.325C588.487 244 588.595 243.892 588.595 243.73V231.67C588.595 231.508 588.487 231.4 588.325 231.4H587.047C586.921 231.4 586.813 231.418 586.705 231.472ZM597.069 237.232C597.501 236.944 597.825 236.584 598.077 236.206C598.365 235.756 598.545 235.216 598.545 234.586C598.545 233.938 598.365 233.362 598.131 232.948C597.537 231.796 596.349 231.202 594.747 231.202C593.307 231.202 592.137 231.76 591.507 232.732C591.165 233.236 590.967 233.866 590.967 234.568C590.967 235.216 591.147 235.81 591.471 236.278C591.705 236.638 592.011 236.962 592.407 237.232C592.461 237.268 592.461 237.304 592.407 237.34C591.939 237.646 591.579 238.06 591.327 238.582C591.093 239.068 590.931 239.698 590.931 240.4C590.931 241.156 591.093 241.786 591.399 242.362C592.029 243.514 593.235 244.144 594.729 244.144C596.313 244.144 597.483 243.496 598.077 242.434C598.365 241.912 598.545 241.282 598.545 240.418C598.545 239.716 598.437 239.122 598.203 238.618C597.951 238.042 597.573 237.646 597.087 237.358C597.015 237.322 597.015 237.286 597.069 237.232ZM592.929 233.65C593.271 233.038 593.883 232.678 594.747 232.678C595.611 232.678 596.259 233.056 596.601 233.686C596.763 233.974 596.835 234.334 596.835 234.73C596.835 235.144 596.745 235.54 596.547 235.846C596.187 236.404 595.593 236.764 594.747 236.764C593.973 236.764 593.361 236.44 593.019 235.918C592.803 235.612 592.677 235.18 592.677 234.748C592.677 234.334 592.767 233.956 592.929 233.65ZM596.421 241.858C596.079 242.38 595.503 242.668 594.747 242.668C593.973 242.668 593.397 242.362 593.037 241.786C592.821 241.408 592.695 240.904 592.695 240.292C592.695 239.878 592.767 239.464 592.929 239.122C593.253 238.42 593.847 237.97 594.747 237.97C595.665 237.97 596.331 238.402 596.619 239.158C596.745 239.482 596.817 239.878 596.817 240.256C596.817 240.94 596.673 241.462 596.421 241.858ZM600.837 245.548H601.503C601.665 245.548 601.755 245.458 601.791 245.314L602.817 241.498C602.871 241.3 602.763 241.192 602.583 241.192H601.575C601.413 241.192 601.323 241.282 601.287 241.444L600.585 245.26C600.549 245.458 600.657 245.548 600.837 245.548ZM608.783 244.18C611.213 244.18 612.779 242.704 612.779 240.364V235.036C612.779 232.714 611.213 231.238 608.783 231.238C606.371 231.238 604.823 232.714 604.823 235.036V240.364C604.823 242.704 606.371 244.18 608.783 244.18ZM608.783 242.686C607.433 242.686 606.551 241.822 606.551 240.472V234.964C606.551 233.614 607.433 232.75 608.783 232.75C610.169 232.75 611.051 233.614 611.051 234.964V240.472C611.051 241.822 610.169 242.686 608.783 242.686ZM618.978 244.18C621.408 244.18 622.974 242.704 622.974 240.364V235.036C622.974 232.714 621.408 231.238 618.978 231.238C616.566 231.238 615.018 232.714 615.018 235.036V240.364C615.018 242.704 616.566 244.18 618.978 244.18ZM618.978 242.686C617.628 242.686 616.746 241.822 616.746 240.472V234.964C616.746 233.614 617.628 232.75 618.978 232.75C620.364 232.75 621.246 233.614 621.246 234.964V240.472C621.246 241.822 620.364 242.686 618.978 242.686ZM629.174 244.18C631.604 244.18 633.17 242.704 633.17 240.364V235.036C633.17 232.714 631.604 231.238 629.174 231.238C626.762 231.238 625.214 232.714 625.214 235.036V240.364C625.214 242.704 626.762 244.18 629.174 244.18ZM629.174 242.686C627.824 242.686 626.942 241.822 626.942 240.472V234.964C626.942 233.614 627.824 232.75 629.174 232.75C630.56 232.75 631.442 233.614 631.442 234.964V240.472C631.442 241.822 630.56 242.686 629.174 242.686Z" fill="#141415"/>
<path d="M79 248H65C63.895 248 63 247.105 63 246V232C63 230.895 63.895 230 65 230H79C80.105 230 81 230.895 81 232V246C81 247.105 80.105 248 79 248Z" fill="#E67109"/>
<path d="M75.917 237L71.917 241L69 238.083" stroke="white" stroke-width="1.5" stroke-linecap="round" stroke-linejoin="round"/>
<rect x="89.15" y="82.15" width="671.7" height="83.7" fill="white" stroke="#171D1D" stroke-width="0.3"/>
<path d="M162.844 118.472L161.008 119.372C160.882 119.444 160.81 119.534 160.81 119.678V120.506C160.81 120.704 160.936 120.794 161.116 120.722L162.898 120.11C162.952 120.092 163.006 120.128 163.006 120.182V130.73C163.006 130.892 163.114 131 163.276 131H164.464C164.626 131 164.734 130.892 164.734 130.73V118.67C164.734 118.508 164.626 118.4 164.464 118.4H163.186C163.06 118.4 162.952 118.418 162.844 118.472Z" fill="#777777"/>
<path d="M249.364 131.144C252.082 131.144 253.72 129.758 253.72 127.706C253.72 125.51 251.812 124.718 249.814 123.944C247.69 123.134 246.754 122.738 246.754 121.532C246.754 120.38 247.6 119.75 249.094 119.75C250.912 119.75 251.902 120.722 251.902 121.928V122.144C251.902 122.288 252.01 122.378 252.172 122.378H253.342C253.504 122.378 253.612 122.27 253.612 122.108V121.838C253.612 119.696 251.866 118.256 249.166 118.256C246.664 118.256 245.062 119.48 245.062 121.568C245.062 123.764 246.862 124.484 248.914 125.276C251.02 126.122 251.992 126.626 251.992 127.76C251.992 128.84 251.2 129.65 249.49 129.65C247.69 129.65 246.592 128.732 246.592 127.544V127.202C246.592 127.04 246.484 126.932 246.322 126.932H245.17C245.008 126.932 244.9 127.04 244.9 127.202V127.634C244.9 129.758 246.646 131.144 249.364 131.144ZM261.422 122.108V122.576C261.422 122.648 261.368 122.684 261.314 122.63C260.792 122.018 260.054 121.694 259.226 121.694C257.462 121.694 256.328 122.63 255.824 124.142C255.59 124.79 255.5 125.564 255.5 126.446C255.5 127.256 255.572 127.994 255.77 128.624C256.256 130.172 257.408 131.144 259.226 131.144C260.054 131.144 260.792 130.82 261.314 130.226C261.368 130.172 261.422 130.19 261.422 130.262V134.168C261.422 134.33 261.53 134.438 261.692 134.438H262.88C263.042 134.438 263.15 134.33 263.15 134.168V122.108C263.15 121.946 263.042 121.838 262.88 121.838H261.692C261.53 121.838 261.422 121.946 261.422 122.108ZM260.936 128.732C260.594 129.326 260.09 129.65 259.406 129.65C258.704 129.65 258.164 129.344 257.804 128.786C257.444 128.228 257.228 127.472 257.228 126.41C257.228 125.438 257.39 124.718 257.678 124.178C258.02 123.53 258.614 123.188 259.406 123.188C260.108 123.188 260.63 123.548 260.972 124.16C261.26 124.682 261.404 125.438 261.404 126.428C261.404 127.454 261.242 128.192 260.936 128.732ZM271.228 122.108V127.616C271.228 128.84 270.454 129.632 269.248 129.632C268.042 129.632 267.358 128.84 267.358 127.616V122.108C267.358 121.946 267.25 121.838 267.088 121.838H265.918C265.756 121.838 265.648 121.946 265.648 122.108V128.156C265.648 130.136 267.214 131.126 268.924 131.126C269.932 131.126 270.652 130.784 271.12 130.154C271.174 130.1 271.228 130.118 271.228 130.19V130.73C271.228 130.892 271.336 131 271.498 131H272.668C272.83 131 272.938 130.892 272.938 130.73V122.108C272.938 121.946 272.83 121.838 272.668 121.838H271.498C271.336 121.838 271.228 121.946 271.228 122.108ZM278.825 121.694C276.845 121.694 275.423 122.684 275.207 124.034C275.189 124.16 275.297 124.25 275.459 124.268L276.755 124.43C276.917 124.448 277.007 124.376 277.061 124.214C277.241 123.584 277.853 123.188 278.861 123.188C280.139 123.188 280.715 123.836 280.715 124.862V125.33C280.715 125.384 280.679 125.42 280.625 125.42H278.627C276.251 125.42 274.901 126.572 274.901 128.426C274.901 130.352 276.287 131.144 277.907 131.144C278.987 131.144 279.941 130.802 280.607 130.172C280.661 130.118 280.715 130.154 280.715 130.226V130.73C280.715 130.892 280.823 131 280.985 131H282.173C282.335 131 282.443 130.892 282.443 130.73V124.736C282.443 122.972 281.075 121.694 278.825 121.694ZM278.339 129.686C277.385 129.686 276.629 129.254 276.629 128.336C276.629 127.328 277.547 126.77 278.951 126.77H280.625C280.679 126.77 280.715 126.806 280.715 126.86V127.904C280.715 128.966 279.581 129.686 278.339 129.686ZM288.772 121.748C287.782 121.748 287.062 122.234 286.576 122.972C286.54 123.044 286.486 123.026 286.486 122.936V122.108C286.486 121.946 286.378 121.838 286.216 121.838H285.028C284.866 121.838 284.758 121.946 284.758 122.108V130.73C284.758 130.892 284.866 131 285.028 131H286.216C286.378 131 286.486 130.892 286.486 130.73V125.564C286.486 124.358 287.332 123.584 288.43 123.548C288.772 123.512 289.096 123.548 289.312 123.62C289.492 123.674 289.6 123.656 289.636 123.458L289.888 122.288C289.924 122.144 289.888 122.018 289.744 121.946C289.51 121.838 289.204 121.748 288.772 121.748ZM295.149 129.668C293.961 129.668 293.133 129.056 292.881 128.12C292.809 127.904 292.773 127.58 292.755 127.148C292.755 127.094 292.791 127.058 292.845 127.058H298.533C298.695 127.058 298.803 126.968 298.803 126.788C298.785 126.176 298.749 125.654 298.677 125.168C298.335 123.008 297.255 121.694 294.897 121.694C293.025 121.694 291.675 122.738 291.243 124.376C291.081 124.934 291.045 125.546 291.045 126.374C291.045 127.364 291.207 128.246 291.495 128.948C292.089 130.334 293.259 131.144 294.987 131.144C296.625 131.144 297.813 130.388 298.443 129.254C298.515 129.092 298.479 128.966 298.335 128.876L297.597 128.426C297.435 128.318 297.327 128.372 297.237 128.534C296.841 129.236 296.139 129.65 295.149 129.668ZM294.897 123.188C295.977 123.188 296.697 123.818 296.931 124.736C296.985 124.934 297.021 125.258 297.039 125.618C297.039 125.672 297.003 125.708 296.949 125.708H292.863C292.809 125.708 292.773 125.672 292.773 125.618C292.791 125.222 292.845 124.88 292.935 124.61C293.169 123.764 293.817 123.188 294.897 123.188ZM309.734 118.382H304.964C304.802 118.382 304.694 118.49 304.694 118.652V130.73C304.694 130.892 304.802 131 304.964 131H306.152C306.314 131 306.422 130.892 306.422 130.73V125.726C306.422 125.672 306.458 125.636 306.512 125.636H309.662C311.912 125.636 313.424 124.214 313.424 122.036C313.424 119.84 311.948 118.382 309.734 118.382ZM309.5 124.232H306.512C306.458 124.232 306.422 124.196 306.422 124.142V119.966C306.422 119.912 306.458 119.876 306.512 119.876H309.5C310.814 119.876 311.696 120.758 311.696 122.072C311.696 123.368 310.814 124.232 309.5 124.232ZM316.264 120.47C316.966 120.47 317.434 120.002 317.434 119.336C317.434 118.67 316.966 118.202 316.264 118.202C315.562 118.202 315.076 118.67 315.076 119.336C315.076 120.002 315.562 120.47 316.264 120.47ZM315.67 131H316.858C317.02 131 317.128 130.892 317.128 130.73V122.108C317.128 121.946 317.02 121.838 316.858 121.838H315.67C315.508 121.838 315.4 121.946 315.4 122.108V130.73C315.4 130.892 315.508 131 315.67 131ZM327.208 124.142C326.704 122.63 325.57 121.694 323.806 121.694C322.978 121.694 322.24 122.018 321.718 122.63C321.664 122.684 321.61 122.648 321.61 122.576V122.108C321.61 121.946 321.502 121.838 321.34 121.838H320.152C319.99 121.838 319.882 121.946 319.882 122.108V134.168C319.882 134.33 319.99 134.438 320.152 134.438H321.34C321.502 134.438 321.61 134.33 321.61 134.168V130.262C321.61 130.19 321.664 130.172 321.718 130.226C322.24 130.82 322.978 131.144 323.806 131.144C325.624 131.144 326.776 130.172 327.262 128.624C327.46 127.994 327.532 127.256 327.532 126.446C327.532 125.564 327.442 124.79 327.208 124.142ZM325.228 128.786C324.868 129.344 324.328 129.65 323.626 129.65C322.942 129.65 322.438 129.326 322.096 128.732C321.79 128.192 321.628 127.454 321.628 126.428C321.628 125.438 321.772 124.682 322.06 124.16C322.402 123.548 322.924 123.188 323.626 123.188C324.418 123.188 325.012 123.53 325.354 124.178C325.642 124.718 325.804 125.438 325.804 126.41C325.804 127.472 325.588 128.228 325.228 128.786ZM333.557 129.668C332.369 129.668 331.541 129.056 331.289 128.12C331.217 127.904 331.181 127.58 331.163 127.148C331.163 127.094 331.199 127.058 331.253 127.058H336.941C337.103 127.058 337.211 126.968 337.211 126.788C337.193 126.176 337.157 125.654 337.085 125.168C336.743 123.008 335.663 121.694 333.305 121.694C331.433 121.694 330.083 122.738 329.651 124.376C329.489 124.934 329.453 125.546 329.453 126.374C329.453 127.364 329.615 128.246 329.903 128.948C330.497 130.334 331.667 131.144 333.395 131.144C335.033 131.144 336.221 130.388 336.851 129.254C336.923 129.092 336.887 128.966 336.743 128.876L336.005 128.426C335.843 128.318 335.735 128.372 335.645 128.534C335.249 129.236 334.547 129.65 333.557 129.668ZM333.305 123.188C334.385 123.188 335.105 123.818 335.339 124.736C335.393 124.934 335.429 125.258 335.447 125.618C335.447 125.672 335.411 125.708 335.357 125.708H331.271C331.217 125.708 331.181 125.672 331.181 125.618C331.199 125.222 331.253 124.88 331.343 124.61C331.577 123.764 332.225 123.188 333.305 123.188Z" fill="#777777"/>
<path d="M430.242 131H437.604C437.766 131 437.874 130.892 437.874 130.73V129.776C437.874 129.614 437.766 129.506 437.604 129.506H432.366C432.294 129.506 432.258 129.452 432.312 129.398C433.608 127.904 434.832 126.5 435.912 125.114C436.956 123.8 437.532 122.648 437.532 121.586C437.532 119.696 436.056 118.256 433.716 118.256C431.574 118.256 430.008 119.498 429.936 121.406V122.09C429.936 122.252 430.044 122.36 430.206 122.36H431.412C431.574 122.36 431.682 122.252 431.682 122.09V121.64C431.664 120.506 432.474 119.75 433.716 119.75C434.958 119.75 435.786 120.506 435.786 121.622C435.786 122.396 435.156 123.476 434.112 124.718C432.852 126.23 431.52 127.85 430.098 129.452C430.008 129.56 429.972 129.668 429.972 129.794V130.73C429.972 130.892 430.08 131 430.242 131ZM447.215 125.42C446.801 123.89 445.487 123.026 443.831 123.026C443.021 123.026 442.247 123.26 441.653 123.764C441.599 123.8 441.545 123.8 441.545 123.71L441.563 119.984C441.563 119.912 441.599 119.894 441.653 119.894H446.657C446.819 119.894 446.927 119.786 446.927 119.624V118.67C446.927 118.508 446.819 118.4 446.657 118.4H440.105C439.943 118.4 439.835 118.508 439.835 118.67V125.51C439.835 125.672 439.943 125.78 440.105 125.78H441.383C441.527 125.78 441.635 125.708 441.707 125.564C442.013 124.88 442.769 124.538 443.597 124.538C444.605 124.538 445.361 125.024 445.541 125.96C445.631 126.392 445.667 126.788 445.649 127.094C445.649 127.346 445.631 127.778 445.505 128.102C445.289 129.038 444.587 129.632 443.597 129.632C442.607 129.632 441.923 129.056 441.689 128.192C441.653 128.102 441.635 127.994 441.617 127.904C441.581 127.742 441.491 127.652 441.329 127.652H440.105C439.925 127.652 439.817 127.76 439.835 127.94C439.871 128.192 439.943 128.444 440.033 128.714C440.519 130.172 441.833 131.126 443.597 131.126C445.379 131.126 446.747 130.154 447.197 128.624C447.359 128.084 447.413 127.562 447.413 127.058C447.413 126.626 447.377 126.068 447.215 125.42Z" fill="#777777"/>
<path d="M537.424 125.42C537.01 123.89 535.696 123.026 534.04 123.026C533.23 123.026 532.456 123.26 531.862 123.764C531.808 123.8 531.754 123.8 531.754 123.71L531.772 119.984C531.772 119.912 531.808 119.894 531.862 119.894H536.866C537.028 119.894 537.136 119.786 537.136 119.624V118.67C537.136 118.508 537.028 118.4 536.866 118.4H530.314C530.152 118.4 530.044 118.508 530.044 118.67V125.51C530.044 125.672 530.152 125.78 530.314 125.78H531.592C531.736 125.78 531.844 125.708 531.916 125.564C532.222 124.88 532.978 124.538 533.806 124.538C534.814 124.538 535.57 125.024 535.75 125.96C535.84 126.392 535.876 126.788 535.858 127.094C535.858 127.346 535.84 127.778 535.714 128.102C535.498 129.038 534.796 129.632 533.806 129.632C532.816 129.632 532.132 129.056 531.898 128.192C531.862 128.102 531.844 127.994 531.826 127.904C531.79 127.742 531.7 127.652 531.538 127.652H530.314C530.134 127.652 530.026 127.76 530.044 127.94C530.08 128.192 530.152 128.444 530.242 128.714C530.728 130.172 532.042 131.126 533.806 131.126C535.588 131.126 536.956 130.154 537.406 128.624C537.568 128.084 537.622 127.562 537.622 127.058C537.622 126.626 537.586 126.068 537.424 125.42ZM539.736 132.548H540.402C540.564 132.548 540.654 132.458 540.69 132.314L541.716 128.498C541.77 128.3 541.662 128.192 541.482 128.192H540.474C540.312 128.192 540.222 128.282 540.186 128.444L539.484 132.26C539.448 132.458 539.556 132.548 539.736 132.548ZM547.681 131.18C550.111 131.18 551.677 129.704 551.677 127.364V122.036C551.677 119.714 550.111 118.238 547.681 118.238C545.269 118.238 543.721 119.714 543.721 122.036V127.364C543.721 129.704 545.269 131.18 547.681 131.18ZM547.681 129.686C546.331 129.686 545.449 128.822 545.449 127.472V121.964C545.449 120.614 546.331 119.75 547.681 119.75C549.067 119.75 549.949 120.614 549.949 121.964V127.472C549.949 128.822 549.067 129.686 547.681 129.686ZM557.877 131.18C560.307 131.18 561.873 129.704 561.873 127.364V122.036C561.873 119.714 560.307 118.238 557.877 118.238C555.465 118.238 553.917 119.714 553.917 122.036V127.364C553.917 129.704 555.465 131.18 557.877 131.18ZM557.877 129.686C556.527 129.686 555.645 128.822 555.645 127.472V121.964C555.645 120.614 556.527 119.75 557.877 119.75C559.263 119.75 560.145 120.614 560.145 121.964V127.472C560.145 128.822 559.263 129.686 557.877 129.686ZM568.072 131.18C570.502 131.18 572.068 129.704 572.068 127.364V122.036C572.068 119.714 570.502 118.238 568.072 118.238C565.66 118.238 564.112 119.714 564.112 122.036V127.364C564.112 129.704 565.66 131.18 568.072 131.18ZM568.072 129.686C566.722 129.686 565.84 128.822 565.84 127.472V121.964C565.84 120.614 566.722 119.75 568.072 119.75C569.458 119.75 570.34 120.614 570.34 121.964V127.472C570.34 128.822 569.458 129.686 568.072 129.686Z" fill="#777777"/>
<path d="M663.982 127.67C663.982 126.014 663.046 124.934 660.994 124.016C659.158 123.188 657.736 122.882 657.736 121.532C657.736 120.398 658.51 119.75 659.842 119.75C661.426 119.75 662.2 120.704 662.2 121.928V122.144C662.2 122.288 662.308 122.378 662.47 122.378H663.622C663.784 122.378 663.892 122.27 663.892 122.108V121.586C663.892 119.714 662.668 118.454 660.454 118.274C660.4 118.274 660.364 118.256 660.364 118.184L660.382 117.122C660.382 116.96 660.274 116.852 660.112 116.852H659.5C659.338 116.852 659.23 116.96 659.23 117.122L659.248 118.202C659.248 118.274 659.212 118.292 659.158 118.31C657.142 118.544 656.026 119.732 656.026 121.604C656.026 123.242 656.926 124.016 658.42 124.808C660.436 125.96 662.254 126.392 662.254 127.76C662.254 128.822 661.534 129.65 660.058 129.65C658.492 129.65 657.646 128.732 657.646 127.544V127.202C657.646 127.04 657.538 126.932 657.376 126.932H656.224C656.062 126.932 655.954 127.04 655.954 127.202V127.922C655.954 129.668 657.16 130.874 659.212 131.108C659.266 131.108 659.302 131.126 659.302 131.198L659.284 132.152C659.284 132.314 659.392 132.422 659.554 132.422H660.184C660.346 132.422 660.454 132.314 660.454 132.152L660.436 131.216C660.436 131.144 660.472 131.126 660.526 131.126C662.776 130.928 663.982 129.596 663.982 127.67ZM667.705 118.472L665.869 119.372C665.743 119.444 665.671 119.534 665.671 119.678V120.506C665.671 120.704 665.797 120.794 665.977 120.722L667.759 120.11C667.813 120.092 667.867 120.128 667.867 120.182V130.73C667.867 130.892 667.975 131 668.137 131H669.325C669.487 131 669.595 130.892 669.595 130.73V118.67C669.595 118.508 669.487 118.4 669.325 118.4H668.047C667.921 118.4 667.813 118.418 667.705 118.472ZM672.273 131H679.635C679.797 131 679.905 130.892 679.905 130.73V129.776C679.905 129.614 679.797 129.506 679.635 129.506H674.397C674.325 129.506 674.289 129.452 674.343 129.398C675.639 127.904 676.863 126.5 677.943 125.114C678.987 123.8 679.563 122.648 679.563 121.586C679.563 119.696 678.087 118.256 675.747 118.256C673.605 118.256 672.039 119.498 671.967 121.406V122.09C671.967 122.252 672.075 122.36 672.237 122.36H673.443C673.605 122.36 673.713 122.252 673.713 122.09V121.64C673.695 120.506 674.505 119.75 675.747 119.75C676.989 119.75 677.817 120.506 677.817 121.622C677.817 122.396 677.187 123.476 676.143 124.718C674.883 126.23 673.551 127.85 672.129 129.452C672.039 129.56 672.003 129.668 672.003 129.794V130.73C672.003 130.892 672.111 131 672.273 131ZM689.246 125.42C688.832 123.89 687.518 123.026 685.862 123.026C685.052 123.026 684.278 123.26 683.684 123.764C683.63 123.8 683.576 123.8 683.576 123.71L683.594 119.984C683.594 119.912 683.63 119.894 683.684 119.894H688.688C688.85 119.894 688.958 119.786 688.958 119.624V118.67C688.958 118.508 688.85 118.4 688.688 118.4H682.136C681.974 118.4 681.866 118.508 681.866 118.67V125.51C681.866 125.672 681.974 125.78 682.136 125.78H683.414C683.558 125.78 683.666 125.708 683.738 125.564C684.044 124.88 684.8 124.538 685.628 124.538C686.636 124.538 687.392 125.024 687.572 125.96C687.662 126.392 687.698 126.788 687.68 127.094C687.68 127.346 687.662 127.778 687.536 128.102C687.32 129.038 686.618 129.632 685.628 129.632C684.638 129.632 683.954 129.056 683.72 128.192C683.684 128.102 683.666 127.994 683.648 127.904C683.612 127.742 683.522 127.652 683.36 127.652H682.136C681.956 127.652 681.848 127.76 681.866 127.94C681.902 128.192 681.974 128.444 682.064 128.714C682.55 130.172 683.864 131.126 685.628 131.126C687.41 131.126 688.778 130.154 689.228 128.624C689.39 128.084 689.444 127.562 689.444 127.058C689.444 126.626 689.408 126.068 689.246 125.42ZM691.558 132.548H692.224C692.386 132.548 692.476 132.458 692.512 132.314L693.538 128.498C693.592 128.3 693.484 128.192 693.304 128.192H692.296C692.134 128.192 692.044 128.282 692.008 128.444L691.306 132.26C691.27 132.458 691.378 132.548 691.558 132.548ZM699.504 131.18C701.934 131.18 703.5 129.704 703.5 127.364V122.036C703.5 119.714 701.934 118.238 699.504 118.238C697.092 118.238 695.544 119.714 695.544 122.036V127.364C695.544 129.704 697.092 131.18 699.504 131.18ZM699.504 129.686C698.154 129.686 697.272 128.822 697.272 127.472V121.964C697.272 120.614 698.154 119.75 699.504 119.75C700.89 119.75 701.772 120.614 701.772 121.964V127.472C701.772 128.822 700.89 129.686 699.504 129.686ZM709.699 131.18C712.129 131.18 713.695 129.704 713.695 127.364V122.036C713.695 119.714 712.129 118.238 709.699 118.238C707.287 118.238 705.739 119.714 705.739 122.036V127.364C705.739 129.704 707.287 131.18 709.699 131.18ZM709.699 129.686C708.349 129.686 707.467 128.822 707.467 127.472V121.964C707.467 120.614 708.349 119.75 709.699 119.75C711.085 119.75 711.967 120.614 711.967 121.964V127.472C711.967 128.822 711.085 129.686 709.699 129.686ZM719.894 131.18C722.324 131.18 723.89 129.704 723.89 127.364V122.036C723.89 119.714 722.324 118.238 719.894 118.238C717.482 118.238 715.934 119.714 715.934 122.036V127.364C715.934 129.704 717.482 131.18 719.894 131.18ZM719.894 129.686C718.544 129.686 717.662 128.822 717.662 127.472V121.964C717.662 120.614 718.544 119.75 719.894 119.75C721.28 119.75 722.162 120.614 722.162 121.964V127.472C722.162 128.822 721.28 129.686 719.894 129.686Z" fill="#777777"/>
<path d="M137 134H123C121.895 134 121 133.105 121 132V118C121 116.895 121.895 116 123 116H137C138.105 116 139 116.895 139 118V132C139 133.105 138.105 134 137 134Z" stroke="#DBDBDB" stroke-width="1.5" stroke-linecap="round" stroke-linejoin="round"/>
<rect x="89.15" y="308.15" width="671.7" height="83.7" fill="white" stroke="#171D1D" stroke-width="0.3"/>
<path d="M175.046 352.024C174.596 350.98 173.786 350.296 172.49 350.188C172.4 350.17 172.364 350.116 172.418 350.062L175.172 347.056C175.262 346.966 175.298 346.84 175.298 346.714V345.67C175.298 345.508 175.19 345.4 175.028 345.4H168.224C168.062 345.4 167.954 345.508 167.954 345.67V346.642C167.954 346.804 168.062 346.912 168.224 346.912H172.994C173.066 346.912 173.084 346.948 173.03 347.02L170.006 350.242C169.898 350.368 169.88 350.476 169.988 350.62L170.564 351.322C170.672 351.448 170.798 351.466 170.942 351.394C171.158 351.286 171.338 351.232 171.572 351.232C172.436 351.232 173.048 351.628 173.354 352.384C173.552 352.816 173.66 353.356 173.66 354.022C173.66 354.526 173.57 355.012 173.408 355.426C173.12 356.218 172.49 356.632 171.59 356.632C170.6 356.632 169.916 356.056 169.682 355.192C169.61 354.958 169.574 354.616 169.538 354.328C169.538 354.148 169.43 354.058 169.268 354.058H168.062C167.9 354.058 167.792 354.148 167.792 354.328C167.81 354.76 167.882 355.228 168.026 355.66C168.512 357.154 169.826 358.144 171.59 358.144C173.354 358.144 174.596 357.28 175.118 355.822C175.28 355.318 175.406 354.76 175.406 354.058C175.406 353.266 175.28 352.582 175.046 352.024Z" fill="#777777"/>
<path d="M220.844 345.472L219.008 346.372C218.882 346.444 218.81 346.534 218.81 346.678V347.506C218.81 347.704 218.936 347.794 219.116 347.722L220.898 347.11C220.952 347.092 221.006 347.128 221.006 347.182V357.73C221.006 357.892 221.114 358 221.276 358H222.464C222.626 358 222.734 357.892 222.734 357.73V345.67C222.734 345.508 222.626 345.4 222.464 345.4H221.186C221.06 345.4 220.952 345.418 220.844 345.472ZM231.208 351.232C231.64 350.944 231.964 350.584 232.216 350.206C232.504 349.756 232.684 349.216 232.684 348.586C232.684 347.938 232.504 347.362 232.27 346.948C231.676 345.796 230.488 345.202 228.886 345.202C227.446 345.202 226.276 345.76 225.646 346.732C225.304 347.236 225.106 347.866 225.106 348.568C225.106 349.216 225.286 349.81 225.61 350.278C225.844 350.638 226.15 350.962 226.546 351.232C226.6 351.268 226.6 351.304 226.546 351.34C226.078 351.646 225.718 352.06 225.466 352.582C225.232 353.068 225.07 353.698 225.07 354.4C225.07 355.156 225.232 355.786 225.538 356.362C226.168 357.514 227.374 358.144 228.868 358.144C230.452 358.144 231.622 357.496 232.216 356.434C232.504 355.912 232.684 355.282 232.684 354.418C232.684 353.716 232.576 353.122 232.342 352.618C232.09 352.042 231.712 351.646 231.226 351.358C231.154 351.322 231.154 351.286 231.208 351.232ZM227.068 347.65C227.41 347.038 228.022 346.678 228.886 346.678C229.75 346.678 230.398 347.056 230.74 347.686C230.902 347.974 230.974 348.334 230.974 348.73C230.974 349.144 230.884 349.54 230.686 349.846C230.326 350.404 229.732 350.764 228.886 350.764C228.112 350.764 227.5 350.44 227.158 349.918C226.942 349.612 226.816 349.18 226.816 348.748C226.816 348.334 226.906 347.956 227.068 347.65ZM230.56 355.858C230.218 356.38 229.642 356.668 228.886 356.668C228.112 356.668 227.536 356.362 227.176 355.786C226.96 355.408 226.834 354.904 226.834 354.292C226.834 353.878 226.906 353.464 227.068 353.122C227.392 352.42 227.986 351.97 228.886 351.97C229.804 351.97 230.47 352.402 230.758 353.158C230.884 353.482 230.956 353.878 230.956 354.256C230.956 354.94 230.812 355.462 230.56 355.858ZM244.16 349.108V349.54C244.16 349.612 244.106 349.648 244.052 349.576C243.53 349.018 242.774 348.694 241.748 348.694C240.128 348.694 238.922 349.684 238.472 351.088C238.256 351.736 238.202 352.51 238.202 353.392C238.202 354.22 238.256 354.976 238.436 355.588C238.94 357.262 240.416 358 241.856 358C242.882 358 243.584 357.658 244.052 357.136C244.106 357.082 244.16 357.1 244.16 357.172V357.478C244.16 359.494 243.098 360.106 240.632 359.944C240.452 359.926 240.326 360.034 240.326 360.196L240.29 361.258C240.29 361.42 240.362 361.546 240.542 361.546C243.386 361.762 245.888 360.952 245.888 357.532V349.108C245.888 348.946 245.78 348.838 245.618 348.838H244.43C244.268 348.838 244.16 348.946 244.16 349.108ZM244.052 355.066C243.872 355.894 243.224 356.578 242.126 356.578C241.082 356.578 240.362 355.912 240.128 355.066C240.02 354.796 239.948 354.256 239.948 353.374C239.948 352.528 240.02 352.042 240.146 351.7C240.416 350.854 241.082 350.188 242.126 350.188C243.17 350.188 243.854 350.854 244.034 351.7C244.124 352.06 244.16 352.294 244.16 353.374C244.16 354.472 244.124 354.724 244.052 355.066ZM253.753 349.108V354.616C253.753 355.84 252.979 356.632 251.773 356.632C250.567 356.632 249.883 355.84 249.883 354.616V349.108C249.883 348.946 249.775 348.838 249.613 348.838H248.443C248.281 348.838 248.173 348.946 248.173 349.108V355.156C248.173 357.136 249.739 358.126 251.449 358.126C252.457 358.126 253.177 357.784 253.645 357.154C253.699 357.1 253.753 357.118 253.753 357.19V357.73C253.753 357.892 253.861 358 254.023 358H255.193C255.355 358 255.463 357.892 255.463 357.73V349.108C255.463 348.946 255.355 348.838 255.193 348.838H254.023C253.861 348.838 253.753 348.946 253.753 349.108ZM261.351 348.694C259.371 348.694 257.949 349.684 257.733 351.034C257.715 351.16 257.823 351.25 257.985 351.268L259.281 351.43C259.443 351.448 259.533 351.376 259.587 351.214C259.767 350.584 260.379 350.188 261.387 350.188C262.665 350.188 263.241 350.836 263.241 351.862V352.33C263.241 352.384 263.205 352.42 263.151 352.42H261.153C258.777 352.42 257.427 353.572 257.427 355.426C257.427 357.352 258.813 358.144 260.433 358.144C261.513 358.144 262.467 357.802 263.133 357.172C263.187 357.118 263.241 357.154 263.241 357.226V357.73C263.241 357.892 263.349 358 263.511 358H264.699C264.861 358 264.969 357.892 264.969 357.73V351.736C264.969 349.972 263.601 348.694 261.351 348.694ZM260.865 356.686C259.911 356.686 259.155 356.254 259.155 355.336C259.155 354.328 260.073 353.77 261.477 353.77H263.151C263.205 353.77 263.241 353.806 263.241 353.86V354.904C263.241 355.966 262.107 356.686 260.865 356.686ZM272.917 349.108V349.54C272.917 349.612 272.863 349.648 272.809 349.576C272.287 349.018 271.531 348.694 270.505 348.694C268.885 348.694 267.679 349.684 267.229 351.088C267.013 351.736 266.959 352.51 266.959 353.392C266.959 354.22 267.013 354.976 267.193 355.588C267.697 357.262 269.173 358 270.613 358C271.639 358 272.341 357.658 272.809 357.136C272.863 357.082 272.917 357.1 272.917 357.172V357.478C272.917 359.494 271.855 360.106 269.389 359.944C269.209 359.926 269.083 360.034 269.083 360.196L269.047 361.258C269.047 361.42 269.119 361.546 269.299 361.546C272.143 361.762 274.645 360.952 274.645 357.532V349.108C274.645 348.946 274.537 348.838 274.375 348.838H273.187C273.025 348.838 272.917 348.946 272.917 349.108ZM272.809 355.066C272.629 355.894 271.981 356.578 270.883 356.578C269.839 356.578 269.119 355.912 268.885 355.066C268.777 354.796 268.705 354.256 268.705 353.374C268.705 352.528 268.777 352.042 268.903 351.7C269.173 350.854 269.839 350.188 270.883 350.188C271.927 350.188 272.611 350.854 272.791 351.7C272.881 352.06 272.917 352.294 272.917 353.374C272.917 354.472 272.881 354.724 272.809 355.066ZM280.909 356.668C279.721 356.668 278.893 356.056 278.641 355.12C278.569 354.904 278.533 354.58 278.515 354.148C278.515 354.094 278.551 354.058 278.605 354.058H284.293C284.455 354.058 284.563 353.968 284.563 353.788C284.545 353.176 284.509 352.654 284.437 352.168C284.095 350.008 283.015 348.694 280.657 348.694C278.785 348.694 277.435 349.738 277.003 351.376C276.841 351.934 276.805 352.546 276.805 353.374C276.805 354.364 276.967 355.246 277.255 355.948C277.849 357.334 279.019 358.144 280.747 358.144C282.385 358.144 283.573 357.388 284.203 356.254C284.275 356.092 284.239 355.966 284.095 355.876L283.357 355.426C283.195 355.318 283.087 355.372 282.997 355.534C282.601 356.236 281.899 356.65 280.909 356.668ZM280.657 350.188C281.737 350.188 282.457 350.818 282.691 351.736C282.745 351.934 282.781 352.258 282.799 352.618C282.799 352.672 282.763 352.708 282.709 352.708H278.623C278.569 352.708 278.533 352.672 278.533 352.618C278.551 352.222 278.605 351.88 278.695 351.61C278.929 350.764 279.577 350.188 280.657 350.188ZM293.568 358.108C295.71 358.108 297.114 357.082 297.114 355.444C297.114 353.554 295.26 353.032 293.712 352.618C292.56 352.294 291.696 352.024 291.696 351.25C291.696 350.53 292.434 350.116 293.478 350.116C294.684 350.116 295.386 350.674 295.386 351.34V351.448C295.386 351.52 295.494 351.574 295.656 351.574H296.736C296.898 351.574 297.006 351.484 297.006 351.34C297.006 349.846 295.62 348.748 293.496 348.748C291.444 348.748 290.04 349.738 290.04 351.376C290.04 353.23 291.822 353.788 293.406 354.22C294.486 354.526 295.386 354.778 295.386 355.552C295.386 356.254 294.666 356.794 293.55 356.794C292.416 356.794 291.624 356.182 291.624 355.534V355.39C291.624 355.318 291.516 355.264 291.354 355.264H290.238C290.076 355.264 289.968 355.372 289.968 355.534V355.642C289.968 357.01 291.39 358.108 293.568 358.108ZM303.635 349.99V349.108C303.635 348.946 303.527 348.838 303.365 348.838H301.529C301.475 348.838 301.439 348.802 301.439 348.748V346.732C301.439 346.57 301.331 346.462 301.169 346.462H300.053C299.891 346.462 299.783 346.57 299.783 346.732V348.748C299.783 348.802 299.747 348.838 299.693 348.838H298.703C298.541 348.838 298.433 348.946 298.433 349.108V349.99C298.433 350.152 298.541 350.26 298.703 350.26H299.693C299.747 350.26 299.783 350.296 299.783 350.35V355.678C299.783 357.568 300.863 357.982 302.537 357.982C302.789 357.982 303.023 357.964 303.275 357.964C303.455 357.946 303.545 357.838 303.545 357.676V356.74C303.545 356.578 303.437 356.47 303.275 356.47H302.843C301.889 356.47 301.439 356.092 301.439 355.048V350.35C301.439 350.296 301.475 350.26 301.529 350.26H303.365C303.527 350.26 303.635 350.152 303.635 349.99ZM309.403 356.668C308.215 356.668 307.387 356.056 307.135 355.12C307.063 354.904 307.027 354.58 307.009 354.148C307.009 354.094 307.045 354.058 307.099 354.058H312.787C312.949 354.058 313.057 353.968 313.057 353.788C313.039 353.176 313.003 352.654 312.931 352.168C312.589 350.008 311.509 348.694 309.151 348.694C307.279 348.694 305.929 349.738 305.497 351.376C305.335 351.934 305.299 352.546 305.299 353.374C305.299 354.364 305.461 355.246 305.749 355.948C306.343 357.334 307.513 358.144 309.241 358.144C310.879 358.144 312.067 357.388 312.697 356.254C312.769 356.092 312.733 355.966 312.589 355.876L311.851 355.426C311.689 355.318 311.581 355.372 311.491 355.534C311.095 356.236 310.393 356.65 309.403 356.668ZM309.151 350.188C310.231 350.188 310.951 350.818 311.185 351.736C311.239 351.934 311.275 352.258 311.293 352.618C311.293 352.672 311.257 352.708 311.203 352.708H307.117C307.063 352.708 307.027 352.672 307.027 352.618C307.045 352.222 307.099 351.88 307.189 351.61C307.423 350.764 308.071 350.188 309.151 350.188ZM319.089 356.668C317.901 356.668 317.073 356.056 316.821 355.12C316.749 354.904 316.713 354.58 316.695 354.148C316.695 354.094 316.731 354.058 316.785 354.058H322.473C322.635 354.058 322.743 353.968 322.743 353.788C322.725 353.176 322.689 352.654 322.617 352.168C322.275 350.008 321.195 348.694 318.837 348.694C316.965 348.694 315.615 349.738 315.183 351.376C315.021 351.934 314.985 352.546 314.985 353.374C314.985 354.364 315.147 355.246 315.435 355.948C316.029 357.334 317.199 358.144 318.927 358.144C320.565 358.144 321.753 357.388 322.383 356.254C322.455 356.092 322.419 355.966 322.275 355.876L321.537 355.426C321.375 355.318 321.267 355.372 321.177 355.534C320.781 356.236 320.079 356.65 319.089 356.668ZM318.837 350.188C319.917 350.188 320.637 350.818 320.871 351.736C320.925 351.934 320.961 352.258 320.979 352.618C320.979 352.672 320.943 352.708 320.889 352.708H316.803C316.749 352.708 316.713 352.672 316.713 352.618C316.731 352.222 316.785 351.88 316.875 351.61C317.109 350.764 317.757 350.188 318.837 350.188ZM325.21 358H326.398C326.56 358 326.668 357.892 326.668 357.73V345.67C326.668 345.508 326.56 345.4 326.398 345.4H325.21C325.048 345.4 324.94 345.508 324.94 345.67V357.73C324.94 357.892 325.048 358 325.21 358ZM340.249 351.142C339.745 349.63 338.611 348.694 336.847 348.694C336.019 348.694 335.281 349.018 334.759 349.63C334.705 349.684 334.651 349.648 334.651 349.576V349.108C334.651 348.946 334.543 348.838 334.381 348.838H333.193C333.031 348.838 332.923 348.946 332.923 349.108V361.168C332.923 361.33 333.031 361.438 333.193 361.438H334.381C334.543 361.438 334.651 361.33 334.651 361.168V357.262C334.651 357.19 334.705 357.172 334.759 357.226C335.281 357.82 336.019 358.144 336.847 358.144C338.665 358.144 339.817 357.172 340.303 355.624C340.501 354.994 340.573 354.256 340.573 353.446C340.573 352.564 340.483 351.79 340.249 351.142ZM338.269 355.786C337.909 356.344 337.369 356.65 336.667 356.65C335.983 356.65 335.479 356.326 335.137 355.732C334.831 355.192 334.669 354.454 334.669 353.428C334.669 352.438 334.813 351.682 335.101 351.16C335.443 350.548 335.965 350.188 336.667 350.188C337.459 350.188 338.053 350.53 338.395 351.178C338.683 351.718 338.845 352.438 338.845 353.41C338.845 354.472 338.629 355.228 338.269 355.786ZM343.034 358H344.222C344.384 358 344.492 357.892 344.492 357.73V345.67C344.492 345.508 344.384 345.4 344.222 345.4H343.034C342.872 345.4 342.764 345.508 342.764 345.67V357.73C342.764 357.892 342.872 358 343.034 358ZM350.401 348.694C348.421 348.694 346.999 349.684 346.783 351.034C346.765 351.16 346.873 351.25 347.035 351.268L348.331 351.43C348.493 351.448 348.583 351.376 348.637 351.214C348.817 350.584 349.429 350.188 350.437 350.188C351.715 350.188 352.291 350.836 352.291 351.862V352.33C352.291 352.384 352.255 352.42 352.201 352.42H350.203C347.827 352.42 346.477 353.572 346.477 355.426C346.477 357.352 347.863 358.144 349.483 358.144C350.563 358.144 351.517 357.802 352.183 357.172C352.237 357.118 352.291 357.154 352.291 357.226V357.73C352.291 357.892 352.399 358 352.561 358H353.749C353.911 358 354.019 357.892 354.019 357.73V351.736C354.019 349.972 352.651 348.694 350.401 348.694ZM349.915 356.686C348.961 356.686 348.205 356.254 348.205 355.336C348.205 354.328 349.123 353.77 350.527 353.77H352.201C352.255 353.77 352.291 353.806 352.291 353.86V354.904C352.291 355.966 351.157 356.686 349.915 356.686ZM360.729 349.99V349.108C360.729 348.946 360.621 348.838 360.459 348.838H358.623C358.569 348.838 358.533 348.802 358.533 348.748V346.732C358.533 346.57 358.425 346.462 358.263 346.462H357.147C356.985 346.462 356.877 346.57 356.877 346.732V348.748C356.877 348.802 356.841 348.838 356.787 348.838H355.797C355.635 348.838 355.527 348.946 355.527 349.108V349.99C355.527 350.152 355.635 350.26 355.797 350.26H356.787C356.841 350.26 356.877 350.296 356.877 350.35V355.678C356.877 357.568 357.957 357.982 359.631 357.982C359.883 357.982 360.117 357.964 360.369 357.964C360.549 357.946 360.639 357.838 360.639 357.676V356.74C360.639 356.578 360.531 356.47 360.369 356.47H359.937C358.983 356.47 358.533 356.092 358.533 355.048V350.35C358.533 350.296 358.569 350.26 358.623 350.26H360.459C360.621 350.26 360.729 350.152 360.729 349.99ZM366.497 356.668C365.309 356.668 364.481 356.056 364.229 355.12C364.157 354.904 364.121 354.58 364.103 354.148C364.103 354.094 364.139 354.058 364.193 354.058H369.881C370.043 354.058 370.151 353.968 370.151 353.788C370.133 353.176 370.097 352.654 370.025 352.168C369.683 350.008 368.603 348.694 366.245 348.694C364.373 348.694 363.023 349.738 362.591 351.376C362.429 351.934 362.393 352.546 362.393 353.374C362.393 354.364 362.555 355.246 362.843 355.948C363.437 357.334 364.607 358.144 366.335 358.144C367.973 358.144 369.161 357.388 369.791 356.254C369.863 356.092 369.827 355.966 369.683 355.876L368.945 355.426C368.783 355.318 368.675 355.372 368.585 355.534C368.189 356.236 367.487 356.65 366.497 356.668ZM366.245 350.188C367.325 350.188 368.045 350.818 368.279 351.736C368.333 351.934 368.369 352.258 368.387 352.618C368.387 352.672 368.351 352.708 368.297 352.708H364.211C364.157 352.708 364.121 352.672 364.121 352.618C364.139 352.222 364.193 351.88 364.283 351.61C364.517 350.764 365.165 350.188 366.245 350.188Z" fill="#777777"/>
<path d="M438.844 345.472L437.008 346.372C436.882 346.444 436.81 346.534 436.81 346.678V347.506C436.81 347.704 436.936 347.794 437.116 347.722L438.898 347.11C438.952 347.092 439.006 347.128 439.006 347.182V357.73C439.006 357.892 439.114 358 439.276 358H440.464C440.626 358 440.734 357.892 440.734 357.73V345.67C440.734 345.508 440.626 345.4 440.464 345.4H439.186C439.06 345.4 438.952 345.418 438.844 345.472Z" fill="#777777"/>
<path d="M538.844 345.472L537.008 346.372C536.882 346.444 536.81 346.534 536.81 346.678V347.506C536.81 347.704 536.936 347.794 537.116 347.722L538.898 347.11C538.952 347.092 539.006 347.128 539.006 347.182V357.73C539.006 357.892 539.114 358 539.276 358H540.464C540.626 358 540.734 357.892 540.734 357.73V345.67C540.734 345.508 540.626 345.4 540.464 345.4H539.186C539.06 345.4 538.952 345.418 538.844 345.472ZM545.084 345.472L543.248 346.372C543.122 346.444 543.05 346.534 543.05 346.678V347.506C543.05 347.704 543.176 347.794 543.356 347.722L545.138 347.11C545.192 347.092 545.246 347.128 545.246 347.182V357.73C545.246 357.892 545.354 358 545.516 358H546.704C546.866 358 546.974 357.892 546.974 357.73V345.67C546.974 345.508 546.866 345.4 546.704 345.4H545.426C545.3 345.4 545.192 345.418 545.084 345.472ZM549.724 359.548H550.39C550.552 359.548 550.642 359.458 550.678 359.314L551.704 355.498C551.758 355.3 551.65 355.192 551.47 355.192H550.462C550.3 355.192 550.21 355.282 550.174 355.444L549.472 359.26C549.436 359.458 549.544 359.548 549.724 359.548ZM557.67 358.18C560.1 358.18 561.666 356.704 561.666 354.364V349.036C561.666 346.714 560.1 345.238 557.67 345.238C555.258 345.238 553.71 346.714 553.71 349.036V354.364C553.71 356.704 555.258 358.18 557.67 358.18ZM557.67 356.686C556.32 356.686 555.438 355.822 555.438 354.472V348.964C555.438 347.614 556.32 346.75 557.67 346.75C559.056 346.75 559.938 347.614 559.938 348.964V354.472C559.938 355.822 559.056 356.686 557.67 356.686ZM567.865 358.18C570.295 358.18 571.861 356.704 571.861 354.364V349.036C571.861 346.714 570.295 345.238 567.865 345.238C565.453 345.238 563.905 346.714 563.905 349.036V354.364C563.905 356.704 565.453 358.18 567.865 358.18ZM567.865 356.686C566.515 356.686 565.633 355.822 565.633 354.472V348.964C565.633 347.614 566.515 346.75 567.865 346.75C569.251 346.75 570.133 347.614 570.133 348.964V354.472C570.133 355.822 569.251 356.686 567.865 356.686ZM578.06 358.18C580.49 358.18 582.056 356.704 582.056 354.364V349.036C582.056 346.714 580.49 345.238 578.06 345.238C575.648 345.238 574.1 346.714 574.1 349.036V354.364C574.1 356.704 575.648 358.18 578.06 358.18ZM578.06 356.686C576.71 356.686 575.828 355.822 575.828 354.472V348.964C575.828 347.614 576.71 346.75 578.06 346.75C579.446 346.75 580.328 347.614 580.328 348.964V354.472C580.328 355.822 579.446 356.686 578.06 356.686Z" fill="#777777"/>
<path d="M670.982 353.67C670.982 352.014 670.046 350.934 667.994 350.016C666.158 349.188 664.736 348.882 664.736 347.532C664.736 346.398 665.51 345.75 666.842 345.75C668.426 345.75 669.2 346.704 669.2 347.928V348.144C669.2 348.288 669.308 348.378 669.47 348.378H670.622C670.784 348.378 670.892 348.27 670.892 348.108V347.586C670.892 345.714 669.668 344.454 667.454 344.274C667.4 344.274 667.364 344.256 667.364 344.184L667.382 343.122C667.382 342.96 667.274 342.852 667.112 342.852H666.5C666.338 342.852 666.23 342.96 666.23 343.122L666.248 344.202C666.248 344.274 666.212 344.292 666.158 344.31C664.142 344.544 663.026 345.732 663.026 347.604C663.026 349.242 663.926 350.016 665.42 350.808C667.436 351.96 669.254 352.392 669.254 353.76C669.254 354.822 668.534 355.65 667.058 355.65C665.492 355.65 664.646 354.732 664.646 353.544V353.202C664.646 353.04 664.538 352.932 664.376 352.932H663.224C663.062 352.932 662.954 353.04 662.954 353.202V353.922C662.954 355.668 664.16 356.874 666.212 357.108C666.266 357.108 666.302 357.126 666.302 357.198L666.284 358.152C666.284 358.314 666.392 358.422 666.554 358.422H667.184C667.346 358.422 667.454 358.314 667.454 358.152L667.436 357.216C667.436 357.144 667.472 357.126 667.526 357.126C669.776 356.928 670.982 355.596 670.982 353.67ZM674.705 344.472L672.869 345.372C672.743 345.444 672.671 345.534 672.671 345.678V346.506C672.671 346.704 672.797 346.794 672.977 346.722L674.759 346.11C674.813 346.092 674.867 346.128 674.867 346.182V356.73C674.867 356.892 674.975 357 675.137 357H676.325C676.487 357 676.595 356.892 676.595 356.73V344.67C676.595 344.508 676.487 344.4 676.325 344.4H675.047C674.921 344.4 674.813 344.418 674.705 344.472ZM680.946 344.472L679.11 345.372C678.984 345.444 678.912 345.534 678.912 345.678V346.506C678.912 346.704 679.038 346.794 679.218 346.722L681 346.11C681.054 346.092 681.108 346.128 681.108 346.182V356.73C681.108 356.892 681.216 357 681.378 357H682.566C682.728 357 682.836 356.892 682.836 356.73V344.67C682.836 344.508 682.728 344.4 682.566 344.4H681.288C681.162 344.4 681.054 344.418 680.946 344.472ZM685.585 358.548H686.251C686.413 358.548 686.503 358.458 686.539 358.314L687.565 354.498C687.619 354.3 687.511 354.192 687.331 354.192H686.323C686.161 354.192 686.071 354.282 686.035 354.444L685.333 358.26C685.297 358.458 685.405 358.548 685.585 358.548ZM693.531 357.18C695.961 357.18 697.527 355.704 697.527 353.364V348.036C697.527 345.714 695.961 344.238 693.531 344.238C691.119 344.238 689.571 345.714 689.571 348.036V353.364C689.571 355.704 691.119 357.18 693.531 357.18ZM693.531 355.686C692.181 355.686 691.299 354.822 691.299 353.472V347.964C691.299 346.614 692.181 345.75 693.531 345.75C694.917 345.75 695.799 346.614 695.799 347.964V353.472C695.799 354.822 694.917 355.686 693.531 355.686ZM703.726 357.18C706.156 357.18 707.722 355.704 707.722 353.364V348.036C707.722 345.714 706.156 344.238 703.726 344.238C701.314 344.238 699.766 345.714 699.766 348.036V353.364C699.766 355.704 701.314 357.18 703.726 357.18ZM703.726 355.686C702.376 355.686 701.494 354.822 701.494 353.472V347.964C701.494 346.614 702.376 345.75 703.726 345.75C705.112 345.75 705.994 346.614 705.994 347.964V353.472C705.994 354.822 705.112 355.686 703.726 355.686ZM713.922 357.18C716.352 357.18 717.918 355.704 717.918 353.364V348.036C717.918 345.714 716.352 344.238 713.922 344.238C711.51 344.238 709.962 345.714 709.962 348.036V353.364C709.962 355.704 711.51 357.18 713.922 357.18ZM713.922 355.686C712.572 355.686 711.69 354.822 711.69 353.472V347.964C711.69 346.614 712.572 345.75 713.922 345.75C715.308 345.75 716.19 346.614 716.19 347.964V353.472C716.19 354.822 715.308 355.686 713.922 355.686Z" fill="#777777"/>
<path d="M145 360H131C129.895 360 129 359.105 129 358V344C129 342.895 129.895 342 131 342H145C146.105 342 147 342.895 147 344V358C147 359.105 146.105 360 145 360Z" stroke="#DBDBDB" stroke-width="1.5" stroke-linecap="round" stroke-linejoin="round"/>
<path d="M290.478 454.67V459.818C290.478 459.872 290.442 459.908 290.388 459.908H285.294C285.24 459.908 285.204 459.872 285.204 459.818V454.67C285.204 454.508 285.096 454.4 284.934 454.4H283.746C283.584 454.4 283.476 454.508 283.476 454.67V466.73C283.476 466.892 283.584 467 283.746 467H284.934C285.096 467 285.204 466.892 285.204 466.73V461.492C285.204 461.438 285.24 461.402 285.294 461.402H290.388C290.442 461.402 290.478 461.438 290.478 461.492V466.73C290.478 466.892 290.586 467 290.748 467H291.936C292.098 467 292.206 466.892 292.206 466.73V454.67C292.206 454.508 292.098 454.4 291.936 454.4H290.748C290.586 454.4 290.478 454.508 290.478 454.67ZM298.624 467.144C300.37 467.144 301.738 466.19 302.278 464.588C302.494 463.958 302.602 463.148 302.602 462.374C302.602 461.618 302.494 460.826 302.278 460.214C301.738 458.648 300.388 457.694 298.642 457.694C296.806 457.694 295.42 458.648 294.898 460.232C294.7 460.808 294.592 461.6 294.592 462.392C294.592 463.184 294.718 463.994 294.916 464.588C295.438 466.19 296.824 467.144 298.624 467.144ZM298.624 465.65C297.598 465.65 296.824 465.074 296.536 464.102C296.41 463.688 296.338 463.058 296.338 462.41C296.338 461.744 296.41 461.132 296.536 460.736C296.842 459.764 297.598 459.188 298.588 459.188C299.614 459.188 300.37 459.764 300.676 460.736C300.784 461.132 300.856 461.744 300.856 462.41C300.856 463.022 300.784 463.67 300.658 464.102C300.352 465.074 299.596 465.65 298.624 465.65ZM306.53 467H307.808C307.97 467 308.06 466.91 308.096 466.766L309.734 460.808C309.752 460.736 309.824 460.736 309.842 460.808L311.57 466.766C311.606 466.928 311.732 467 311.876 467H313.136C313.28 467 313.406 466.91 313.442 466.766L315.998 458.162C316.052 457.964 315.944 457.856 315.764 457.856L314.54 457.838C314.378 457.838 314.288 457.928 314.252 458.072L312.506 464.516C312.488 464.588 312.416 464.588 312.398 464.516L310.634 458.09C310.598 457.946 310.508 457.856 310.346 457.856H309.23C309.068 457.856 308.978 457.946 308.942 458.09L307.232 464.498C307.214 464.57 307.142 464.57 307.124 464.498L305.45 458.072C305.414 457.928 305.324 457.838 305.162 457.838H303.938C303.758 457.838 303.65 457.946 303.704 458.144L306.224 466.766C306.26 466.928 306.386 467 306.53 467ZM326.985 454.67V458.576C326.985 458.648 326.931 458.666 326.877 458.612C326.355 458.018 325.617 457.694 324.789 457.694C322.971 457.694 321.819 458.666 321.333 460.214C321.135 460.844 321.063 461.582 321.063 462.392C321.063 463.274 321.153 464.048 321.387 464.696C321.891 466.208 323.025 467.144 324.789 467.144C325.617 467.144 326.355 466.82 326.877 466.208C326.931 466.154 326.985 466.19 326.985 466.262V466.73C326.985 466.892 327.093 467 327.255 467H328.443C328.605 467 328.713 466.892 328.713 466.73V454.67C328.713 454.508 328.605 454.4 328.443 454.4H327.255C327.093 454.4 326.985 454.508 326.985 454.67ZM326.535 464.678C326.193 465.29 325.671 465.65 324.969 465.65C324.177 465.65 323.583 465.308 323.241 464.66C322.953 464.12 322.791 463.4 322.791 462.428C322.791 461.366 323.007 460.61 323.367 460.052C323.727 459.494 324.267 459.188 324.969 459.188C325.653 459.188 326.157 459.512 326.499 460.106C326.805 460.646 326.967 461.384 326.967 462.41C326.967 463.4 326.823 464.156 326.535 464.678ZM335.01 467.144C336.756 467.144 338.124 466.19 338.664 464.588C338.88 463.958 338.988 463.148 338.988 462.374C338.988 461.618 338.88 460.826 338.664 460.214C338.124 458.648 336.774 457.694 335.028 457.694C333.192 457.694 331.806 458.648 331.284 460.232C331.086 460.808 330.978 461.6 330.978 462.392C330.978 463.184 331.104 463.994 331.302 464.588C331.824 466.19 333.21 467.144 335.01 467.144ZM335.01 465.65C333.984 465.65 333.21 465.074 332.922 464.102C332.796 463.688 332.724 463.058 332.724 462.41C332.724 461.744 332.796 461.132 332.922 460.736C333.228 459.764 333.984 459.188 334.974 459.188C336 459.188 336.756 459.764 337.062 460.736C337.17 461.132 337.242 461.744 337.242 462.41C337.242 463.022 337.17 463.67 337.044 464.102C336.738 465.074 335.982 465.65 335.01 465.65ZM344.566 470.6H344.692C347.068 470.6 347.68 469.97 348.472 467.63L351.694 458.144C351.748 457.964 351.676 457.838 351.478 457.838H350.218C350.074 457.838 349.948 457.928 349.912 458.072L347.95 464.534C347.932 464.624 347.86 464.624 347.842 464.534L345.808 458.054C345.754 457.892 345.646 457.838 345.502 457.838H344.242C344.044 457.838 343.972 457.964 344.026 458.144L346.996 466.946C347.014 467 347.014 467.018 346.996 467.054C346.492 468.782 346.042 469.142 344.656 469.142H344.548C344.476 469.142 344.44 469.25 344.44 469.412V470.33C344.44 470.492 344.494 470.6 344.566 470.6ZM356.754 467.144C358.5 467.144 359.868 466.19 360.408 464.588C360.624 463.958 360.732 463.148 360.732 462.374C360.732 461.618 360.624 460.826 360.408 460.214C359.868 458.648 358.518 457.694 356.772 457.694C354.936 457.694 353.55 458.648 353.028 460.232C352.83 460.808 352.722 461.6 352.722 462.392C352.722 463.184 352.848 463.994 353.046 464.588C353.568 466.19 354.954 467.144 356.754 467.144ZM356.754 465.65C355.728 465.65 354.954 465.074 354.666 464.102C354.54 463.688 354.468 463.058 354.468 462.41C354.468 461.744 354.54 461.132 354.666 460.736C354.972 459.764 355.728 459.188 356.718 459.188C357.744 459.188 358.5 459.764 358.806 460.736C358.914 461.132 358.986 461.744 358.986 462.41C358.986 463.022 358.914 463.67 358.788 464.102C358.482 465.074 357.726 465.65 356.754 465.65ZM368.431 458.108V463.616C368.431 464.84 367.657 465.632 366.451 465.632C365.245 465.632 364.561 464.84 364.561 463.616V458.108C364.561 457.946 364.453 457.838 364.291 457.838H363.121C362.959 457.838 362.851 457.946 362.851 458.108V464.156C362.851 466.136 364.417 467.126 366.127 467.126C367.135 467.126 367.855 466.784 368.323 466.154C368.377 466.1 368.431 466.118 368.431 466.19V466.73C368.431 466.892 368.539 467 368.701 467H369.871C370.033 467 370.141 466.892 370.141 466.73V458.108C370.141 457.946 370.033 457.838 369.871 457.838H368.701C368.539 457.838 368.431 457.946 368.431 458.108ZM378.372 467H379.65C379.812 467 379.902 466.91 379.938 466.766L381.576 460.808C381.594 460.736 381.666 460.736 381.684 460.808L383.412 466.766C383.448 466.928 383.574 467 383.718 467H384.978C385.122 467 385.248 466.91 385.284 466.766L387.84 458.162C387.894 457.964 387.786 457.856 387.606 457.856L386.382 457.838C386.22 457.838 386.13 457.928 386.094 458.072L384.348 464.516C384.33 464.588 384.258 464.588 384.24 464.516L382.476 458.09C382.44 457.946 382.35 457.856 382.188 457.856H381.072C380.91 457.856 380.82 457.946 380.784 458.09L379.074 464.498C379.056 464.57 378.984 464.57 378.966 464.498L377.292 458.072C377.256 457.928 377.166 457.838 377.004 457.838H375.78C375.6 457.838 375.492 457.946 375.546 458.144L378.066 466.766C378.102 466.928 378.228 467 378.372 467ZM392.71 457.694C390.73 457.694 389.308 458.684 389.092 460.034C389.074 460.16 389.182 460.25 389.344 460.268L390.64 460.43C390.802 460.448 390.892 460.376 390.946 460.214C391.126 459.584 391.738 459.188 392.746 459.188C394.024 459.188 394.6 459.836 394.6 460.862V461.33C394.6 461.384 394.564 461.42 394.51 461.42H392.512C390.136 461.42 388.786 462.572 388.786 464.426C388.786 466.352 390.172 467.144 391.792 467.144C392.872 467.144 393.826 466.802 394.492 466.172C394.546 466.118 394.6 466.154 394.6 466.226V466.73C394.6 466.892 394.708 467 394.87 467H396.058C396.22 467 396.328 466.892 396.328 466.73V460.736C396.328 458.972 394.96 457.694 392.71 457.694ZM392.224 465.686C391.27 465.686 390.514 465.254 390.514 464.336C390.514 463.328 391.432 462.77 392.836 462.77H394.51C394.564 462.77 394.6 462.806 394.6 462.86V463.904C394.6 464.966 393.466 465.686 392.224 465.686ZM402.729 457.712C401.757 457.712 400.983 458 400.461 458.666C400.425 458.72 400.371 458.684 400.371 458.612V458.108C400.371 457.946 400.263 457.838 400.101 457.838H398.913C398.751 457.838 398.643 457.946 398.643 458.108V466.73C398.643 466.892 398.751 467 398.913 467H400.101C400.263 467 400.371 466.892 400.371 466.73V460.898C400.497 459.872 401.253 459.206 402.297 459.206C403.449 459.206 404.205 460.034 404.205 461.222V466.73C404.205 466.892 404.313 467 404.475 467H405.663C405.825 467 405.933 466.892 405.933 466.73V460.88C405.933 458.936 404.691 457.712 402.729 457.712ZM412.917 458.99V458.108C412.917 457.946 412.809 457.838 412.647 457.838H410.811C410.757 457.838 410.721 457.802 410.721 457.748V455.732C410.721 455.57 410.613 455.462 410.451 455.462H409.335C409.173 455.462 409.065 455.57 409.065 455.732V457.748C409.065 457.802 409.029 457.838 408.975 457.838H407.985C407.823 457.838 407.715 457.946 407.715 458.108V458.99C407.715 459.152 407.823 459.26 407.985 459.26H408.975C409.029 459.26 409.065 459.296 409.065 459.35V464.678C409.065 466.568 410.145 466.982 411.819 466.982C412.071 466.982 412.305 466.964 412.557 466.964C412.737 466.946 412.827 466.838 412.827 466.676V465.74C412.827 465.578 412.719 465.47 412.557 465.47H412.125C411.171 465.47 410.721 465.092 410.721 464.048V459.35C410.721 459.296 410.757 459.26 410.811 459.26H412.647C412.809 459.26 412.917 459.152 412.917 458.99ZM423.165 458.99V458.108C423.165 457.946 423.057 457.838 422.895 457.838H421.059C421.005 457.838 420.969 457.802 420.969 457.748V455.732C420.969 455.57 420.861 455.462 420.699 455.462H419.583C419.421 455.462 419.313 455.57 419.313 455.732V457.748C419.313 457.802 419.277 457.838 419.223 457.838H418.233C418.071 457.838 417.963 457.946 417.963 458.108V458.99C417.963 459.152 418.071 459.26 418.233 459.26H419.223C419.277 459.26 419.313 459.296 419.313 459.35V464.678C419.313 466.568 420.393 466.982 422.067 466.982C422.319 466.982 422.553 466.964 422.805 466.964C422.985 466.946 423.075 466.838 423.075 466.676V465.74C423.075 465.578 422.967 465.47 422.805 465.47H422.373C421.419 465.47 420.969 465.092 420.969 464.048V459.35C420.969 459.296 421.005 459.26 421.059 459.26H422.895C423.057 459.26 423.165 459.152 423.165 458.99ZM428.842 467.144C430.588 467.144 431.956 466.19 432.496 464.588C432.712 463.958 432.82 463.148 432.82 462.374C432.82 461.618 432.712 460.826 432.496 460.214C431.956 458.648 430.606 457.694 428.86 457.694C427.024 457.694 425.638 458.648 425.116 460.232C424.918 460.808 424.81 461.6 424.81 462.392C424.81 463.184 424.936 463.994 425.134 464.588C425.656 466.19 427.042 467.144 428.842 467.144ZM428.842 465.65C427.816 465.65 427.042 465.074 426.754 464.102C426.628 463.688 426.556 463.058 426.556 462.41C426.556 461.744 426.628 461.132 426.754 460.736C427.06 459.764 427.816 459.188 428.806 459.188C429.832 459.188 430.588 459.764 430.894 460.736C431.002 461.132 431.074 461.744 431.074 462.41C431.074 463.022 431.002 463.67 430.876 464.102C430.57 465.074 429.814 465.65 428.842 465.65ZM441.89 467.108C444.032 467.108 445.436 466.082 445.436 464.444C445.436 462.554 443.582 462.032 442.034 461.618C440.882 461.294 440.018 461.024 440.018 460.25C440.018 459.53 440.756 459.116 441.8 459.116C443.006 459.116 443.708 459.674 443.708 460.34V460.448C443.708 460.52 443.816 460.574 443.978 460.574H445.058C445.22 460.574 445.328 460.484 445.328 460.34C445.328 458.846 443.942 457.748 441.818 457.748C439.766 457.748 438.362 458.738 438.362 460.376C438.362 462.23 440.144 462.788 441.728 463.22C442.808 463.526 443.708 463.778 443.708 464.552C443.708 465.254 442.988 465.794 441.872 465.794C440.738 465.794 439.946 465.182 439.946 464.534V464.39C439.946 464.318 439.838 464.264 439.676 464.264H438.56C438.398 464.264 438.29 464.372 438.29 464.534V464.642C438.29 466.01 439.712 467.108 441.89 467.108ZM450.823 457.694C448.843 457.694 447.421 458.684 447.205 460.034C447.187 460.16 447.295 460.25 447.457 460.268L448.753 460.43C448.915 460.448 449.005 460.376 449.059 460.214C449.239 459.584 449.851 459.188 450.859 459.188C452.137 459.188 452.713 459.836 452.713 460.862V461.33C452.713 461.384 452.677 461.42 452.623 461.42H450.625C448.249 461.42 446.899 462.572 446.899 464.426C446.899 466.352 448.285 467.144 449.905 467.144C450.985 467.144 451.939 466.802 452.605 466.172C452.659 466.118 452.713 466.154 452.713 466.226V466.73C452.713 466.892 452.821 467 452.983 467H454.171C454.333 467 454.441 466.892 454.441 466.73V460.736C454.441 458.972 453.073 457.694 450.823 457.694ZM450.337 465.686C449.383 465.686 448.627 465.254 448.627 464.336C448.627 463.328 449.545 462.77 450.949 462.77H452.623C452.677 462.77 452.713 462.806 452.713 462.86V463.904C452.713 464.966 451.579 465.686 450.337 465.686ZM459.082 467H460.45C460.594 467 460.702 466.946 460.756 466.784L463.618 458.162C463.672 457.982 463.6 457.856 463.402 457.856L462.07 457.838C461.926 457.838 461.8 457.928 461.764 458.072L459.82 464.498C459.802 464.588 459.73 464.606 459.712 464.516L457.75 458.072C457.714 457.928 457.588 457.838 457.444 457.838H456.112C455.914 457.838 455.842 457.964 455.896 458.144L458.776 466.784C458.83 466.946 458.938 467 459.082 467ZM468.887 465.668C467.699 465.668 466.871 465.056 466.619 464.12C466.547 463.904 466.511 463.58 466.493 463.148C466.493 463.094 466.529 463.058 466.583 463.058H472.271C472.433 463.058 472.541 462.968 472.541 462.788C472.523 462.176 472.487 461.654 472.415 461.168C472.073 459.008 470.993 457.694 468.635 457.694C466.763 457.694 465.413 458.738 464.981 460.376C464.819 460.934 464.783 461.546 464.783 462.374C464.783 463.364 464.945 464.246 465.233 464.948C465.827 466.334 466.997 467.144 468.725 467.144C470.363 467.144 471.551 466.388 472.181 465.254C472.253 465.092 472.217 464.966 472.073 464.876L471.335 464.426C471.173 464.318 471.065 464.372 470.975 464.534C470.579 465.236 469.877 465.65 468.887 465.668ZM468.635 459.188C469.715 459.188 470.435 459.818 470.669 460.736C470.723 460.934 470.759 461.258 470.777 461.618C470.777 461.672 470.741 461.708 470.687 461.708H466.601C466.547 461.708 466.511 461.672 466.511 461.618C466.529 461.222 466.583 460.88 466.673 460.61C466.907 459.764 467.555 459.188 468.635 459.188ZM482.842 458.99V458.108C482.842 457.946 482.734 457.838 482.572 457.838H480.736C480.682 457.838 480.646 457.802 480.646 457.748V455.732C480.646 455.57 480.538 455.462 480.376 455.462H479.26C479.098 455.462 478.99 455.57 478.99 455.732V457.748C478.99 457.802 478.954 457.838 478.9 457.838H477.91C477.748 457.838 477.64 457.946 477.64 458.108V458.99C477.64 459.152 477.748 459.26 477.91 459.26H478.9C478.954 459.26 478.99 459.296 478.99 459.35V464.678C478.99 466.568 480.07 466.982 481.744 466.982C481.996 466.982 482.23 466.964 482.482 466.964C482.662 466.946 482.752 466.838 482.752 466.676V465.74C482.752 465.578 482.644 465.47 482.482 465.47H482.05C481.096 465.47 480.646 465.092 480.646 464.048V459.35C480.646 459.296 480.682 459.26 480.736 459.26H482.572C482.734 459.26 482.842 459.152 482.842 458.99ZM489.055 457.712C488.083 457.712 487.309 458 486.787 458.666C486.751 458.72 486.697 458.684 486.697 458.612V454.67C486.697 454.508 486.589 454.4 486.427 454.4H485.239C485.077 454.4 484.969 454.508 484.969 454.67V466.73C484.969 466.892 485.077 467 485.239 467H486.427C486.589 467 486.697 466.892 486.697 466.73V460.898C486.823 459.872 487.579 459.206 488.623 459.206C489.775 459.206 490.531 460.034 490.531 461.222V466.73C490.531 466.892 490.639 467 490.801 467H491.989C492.151 467 492.259 466.892 492.259 466.73V460.88C492.259 458.936 491.017 457.712 489.055 457.712ZM495.733 456.47C496.435 456.47 496.903 456.002 496.903 455.336C496.903 454.67 496.435 454.202 495.733 454.202C495.031 454.202 494.545 454.67 494.545 455.336C494.545 456.002 495.031 456.47 495.733 456.47ZM495.139 467H496.327C496.489 467 496.597 466.892 496.597 466.73V458.108C496.597 457.946 496.489 457.838 496.327 457.838H495.139C494.977 457.838 494.869 457.946 494.869 458.108V466.73C494.869 466.892 494.977 467 495.139 467ZM502.464 467.108C504.606 467.108 506.01 466.082 506.01 464.444C506.01 462.554 504.156 462.032 502.608 461.618C501.456 461.294 500.592 461.024 500.592 460.25C500.592 459.53 501.33 459.116 502.374 459.116C503.58 459.116 504.282 459.674 504.282 460.34V460.448C504.282 460.52 504.39 460.574 504.552 460.574H505.632C505.794 460.574 505.902 460.484 505.902 460.34C505.902 458.846 504.516 457.748 502.392 457.748C500.34 457.748 498.936 458.738 498.936 460.376C498.936 462.23 500.718 462.788 502.302 463.22C503.382 463.526 504.282 463.778 504.282 464.552C504.282 465.254 503.562 465.794 502.446 465.794C501.312 465.794 500.52 465.182 500.52 464.534V464.39C500.52 464.318 500.412 464.264 500.25 464.264H499.134C498.972 464.264 498.864 464.372 498.864 464.534V464.642C498.864 466.01 500.286 467.108 502.464 467.108ZM515.649 457.748C514.659 457.748 513.939 458.234 513.453 458.972C513.417 459.044 513.363 459.026 513.363 458.936V458.108C513.363 457.946 513.255 457.838 513.093 457.838H511.905C511.743 457.838 511.635 457.946 511.635 458.108V466.73C511.635 466.892 511.743 467 511.905 467H513.093C513.255 467 513.363 466.892 513.363 466.73V461.564C513.363 460.358 514.209 459.584 515.307 459.548C515.649 459.512 515.973 459.548 516.189 459.62C516.369 459.674 516.477 459.656 516.513 459.458L516.765 458.288C516.801 458.144 516.765 458.018 516.621 457.946C516.387 457.838 516.081 457.748 515.649 457.748ZM522.026 465.668C520.838 465.668 520.01 465.056 519.758 464.12C519.686 463.904 519.65 463.58 519.632 463.148C519.632 463.094 519.668 463.058 519.722 463.058H525.41C525.572 463.058 525.68 462.968 525.68 462.788C525.662 462.176 525.626 461.654 525.554 461.168C525.212 459.008 524.132 457.694 521.774 457.694C519.902 457.694 518.552 458.738 518.12 460.376C517.958 460.934 517.922 461.546 517.922 462.374C517.922 463.364 518.084 464.246 518.372 464.948C518.966 466.334 520.136 467.144 521.864 467.144C523.502 467.144 524.69 466.388 525.32 465.254C525.392 465.092 525.356 464.966 525.212 464.876L524.474 464.426C524.312 464.318 524.204 464.372 524.114 464.534C523.718 465.236 523.016 465.65 522.026 465.668ZM521.774 459.188C522.854 459.188 523.574 459.818 523.808 460.736C523.862 460.934 523.898 461.258 523.916 461.618C523.916 461.672 523.88 461.708 523.826 461.708H519.74C519.686 461.708 519.65 461.672 519.65 461.618C519.668 461.222 519.722 460.88 519.812 460.61C520.046 459.764 520.694 459.188 521.774 459.188ZM535.294 460.142C534.79 458.63 533.656 457.694 531.892 457.694C531.064 457.694 530.326 458.018 529.804 458.63C529.75 458.684 529.696 458.648 529.696 458.576V458.108C529.696 457.946 529.588 457.838 529.426 457.838H528.238C528.076 457.838 527.968 457.946 527.968 458.108V470.168C527.968 470.33 528.076 470.438 528.238 470.438H529.426C529.588 470.438 529.696 470.33 529.696 470.168V466.262C529.696 466.19 529.75 466.172 529.804 466.226C530.326 466.82 531.064 467.144 531.892 467.144C533.71 467.144 534.862 466.172 535.348 464.624C535.546 463.994 535.618 463.256 535.618 462.446C535.618 461.564 535.528 460.79 535.294 460.142ZM533.314 464.786C532.954 465.344 532.414 465.65 531.712 465.65C531.028 465.65 530.524 465.326 530.182 464.732C529.876 464.192 529.714 463.454 529.714 462.428C529.714 461.438 529.858 460.682 530.146 460.16C530.488 459.548 531.01 459.188 531.712 459.188C532.504 459.188 533.098 459.53 533.44 460.178C533.728 460.718 533.89 461.438 533.89 462.41C533.89 463.472 533.674 464.228 533.314 464.786ZM541.553 467.144C543.299 467.144 544.667 466.19 545.207 464.588C545.423 463.958 545.531 463.148 545.531 462.374C545.531 461.618 545.423 460.826 545.207 460.214C544.667 458.648 543.317 457.694 541.571 457.694C539.735 457.694 538.349 458.648 537.827 460.232C537.629 460.808 537.521 461.6 537.521 462.392C537.521 463.184 537.647 463.994 537.845 464.588C538.367 466.19 539.753 467.144 541.553 467.144ZM541.553 465.65C540.527 465.65 539.753 465.074 539.465 464.102C539.339 463.688 539.267 463.058 539.267 462.41C539.267 461.744 539.339 461.132 539.465 460.736C539.771 459.764 540.527 459.188 541.517 459.188C542.543 459.188 543.299 459.764 543.605 460.736C543.713 461.132 543.785 461.744 543.785 462.41C543.785 463.022 543.713 463.67 543.587 464.102C543.281 465.074 542.525 465.65 541.553 465.65ZM551.79 457.748C550.8 457.748 550.08 458.234 549.594 458.972C549.558 459.044 549.504 459.026 549.504 458.936V458.108C549.504 457.946 549.396 457.838 549.234 457.838H548.046C547.884 457.838 547.776 457.946 547.776 458.108V466.73C547.776 466.892 547.884 467 548.046 467H549.234C549.396 467 549.504 466.892 549.504 466.73V461.564C549.504 460.358 550.35 459.584 551.448 459.548C551.79 459.512 552.114 459.548 552.33 459.62C552.51 459.674 552.618 459.656 552.654 459.458L552.906 458.288C552.942 458.144 552.906 458.018 552.762 457.946C552.528 457.838 552.222 457.748 551.79 457.748ZM559.167 458.99V458.108C559.167 457.946 559.059 457.838 558.897 457.838H557.061C557.007 457.838 556.971 457.802 556.971 457.748V455.732C556.971 455.57 556.863 455.462 556.701 455.462H555.585C555.423 455.462 555.315 455.57 555.315 455.732V457.748C555.315 457.802 555.279 457.838 555.225 457.838H554.235C554.073 457.838 553.965 457.946 553.965 458.108V458.99C553.965 459.152 554.073 459.26 554.235 459.26H555.225C555.279 459.26 555.315 459.296 555.315 459.35V464.678C555.315 466.568 556.395 466.982 558.069 466.982C558.321 466.982 558.555 466.964 558.807 466.964C558.987 466.946 559.077 466.838 559.077 466.676V465.74C559.077 465.578 558.969 465.47 558.807 465.47H558.375C557.421 465.47 556.971 465.092 556.971 464.048V459.35C556.971 459.296 557.007 459.26 557.061 459.26H558.897C559.059 459.26 559.167 459.152 559.167 458.99ZM563.453 463.256H564.659C564.821 463.256 564.929 463.148 564.929 462.986V462.266C564.929 460.574 568.043 460.52 568.043 457.514C568.043 455.534 566.603 454.238 564.425 454.238C562.193 454.238 560.681 455.588 560.681 457.604V457.91C560.681 458.072 560.789 458.198 560.951 458.198L562.139 458.234C562.301 458.234 562.409 458.144 562.409 457.982V457.604C562.409 456.542 563.183 455.804 564.371 455.804C565.523 455.804 566.297 456.488 566.297 457.568C566.297 459.71 563.183 459.782 563.183 462.176V462.986C563.183 463.148 563.291 463.256 563.453 463.256ZM564.137 466.982C564.803 466.982 565.379 466.46 565.379 465.812C565.379 465.164 564.785 464.642 564.137 464.642C563.471 464.642 562.913 465.164 562.913 465.812C562.913 466.46 563.453 466.982 564.137 466.982Z" fill="#E67109"/>
<g filter="url(#filter2_d)">
<circle cx="318" cy="541" r="39" fill="#141415"/>
</g>
<path d="M307.526 548.162C310.154 548.162 311.9 546.542 311.9 544.148V544.058C311.9 544.004 311.792 543.986 311.63 543.968L310.442 543.896C310.262 543.878 310.172 543.968 310.172 544.094C310.172 545.624 309.128 546.65 307.526 546.65C305.924 546.65 304.862 545.624 304.862 544.094V539.306C304.862 537.776 305.924 536.75 307.526 536.75C309.128 536.75 310.172 537.776 310.172 539.306V539.414C310.172 539.486 310.262 539.54 310.442 539.522L311.63 539.45C311.792 539.432 311.9 539.36 311.9 539.234C311.9 536.84 310.154 535.256 307.526 535.256C304.898 535.256 303.134 536.894 303.134 539.36V544.022C303.134 546.506 304.898 548.162 307.526 548.162ZM318.298 548.144C321.016 548.144 322.654 546.758 322.654 544.706C322.654 542.51 320.746 541.718 318.748 540.944C316.624 540.134 315.688 539.738 315.688 538.532C315.688 537.38 316.534 536.75 318.028 536.75C319.846 536.75 320.836 537.722 320.836 538.928V539.144C320.836 539.288 320.944 539.378 321.106 539.378H322.276C322.438 539.378 322.546 539.27 322.546 539.108V538.838C322.546 536.696 320.8 535.256 318.1 535.256C315.598 535.256 313.996 536.48 313.996 538.568C313.996 540.764 315.796 541.484 317.848 542.276C319.954 543.122 320.926 543.626 320.926 544.76C320.926 545.84 320.134 546.65 318.424 546.65C316.624 546.65 315.526 545.732 315.526 544.544V544.202C315.526 544.04 315.418 543.932 315.256 543.932H314.104C313.942 543.932 313.834 544.04 313.834 544.202V544.634C313.834 546.758 315.58 548.144 318.298 548.144ZM328.021 548H329.335C329.479 548 329.587 547.946 329.641 547.784L333.493 535.706C333.547 535.508 333.457 535.4 333.259 535.4H332.017C331.873 535.4 331.747 535.49 331.711 535.634L328.777 545.444C328.759 545.534 328.687 545.534 328.669 545.444L325.717 535.634C325.681 535.49 325.555 535.4 325.411 535.4H324.133C323.935 535.4 323.845 535.508 323.899 535.706L327.715 547.784C327.769 547.946 327.877 548 328.021 548Z" fill="white"/>
<g filter="url(#filter3_d)">
<circle cx="533" cy="541" r="39" fill="#141415"/>
</g>
<path d="M515.408 535.382H510.638C510.476 535.382 510.368 535.49 510.368 535.652V547.73C510.368 547.892 510.476 548 510.638 548H511.826C511.988 548 512.096 547.892 512.096 547.73V542.726C512.096 542.672 512.132 542.636 512.186 542.636H515.336C517.586 542.636 519.098 541.214 519.098 539.036C519.098 536.84 517.622 535.382 515.408 535.382ZM515.174 541.232H512.186C512.132 541.232 512.096 541.196 512.096 541.142V536.966C512.096 536.912 512.132 536.876 512.186 536.876H515.174C516.488 536.876 517.37 537.758 517.37 539.072C517.37 540.368 516.488 541.232 515.174 541.232ZM528.4 548H529.624C529.822 548 529.912 547.874 529.822 547.676L527.266 542.366C527.248 542.312 527.266 542.276 527.32 542.258C528.832 541.862 529.786 540.638 529.786 538.964C529.786 536.822 528.346 535.382 526.168 535.382H521.416C521.254 535.382 521.146 535.49 521.146 535.652V547.73C521.146 547.892 521.254 548 521.416 548H522.604C522.766 548 522.874 547.892 522.874 547.73V542.492C522.874 542.438 522.91 542.402 522.964 542.402H525.502C525.538 542.402 525.592 542.438 525.61 542.474L528.094 547.802C528.148 547.928 528.256 548 528.4 548ZM522.964 536.876H525.952C527.212 536.876 528.058 537.722 528.058 538.982C528.058 540.206 527.212 541.052 525.952 541.052H522.964C522.91 541.052 522.874 541.016 522.874 540.962V536.966C522.874 536.912 522.91 536.876 522.964 536.876ZM532.455 548H533.643C533.805 548 533.913 547.892 533.913 547.73V535.67C533.913 535.508 533.805 535.4 533.643 535.4H532.455C532.293 535.4 532.185 535.508 532.185 535.67V547.73C532.185 547.892 532.293 548 532.455 548ZM537.131 548H538.319C538.481 548 538.589 547.892 538.589 547.73L538.571 538.892C538.571 538.802 538.643 538.784 538.679 538.856L544.187 547.82C544.259 547.946 544.367 548 544.511 548H545.681C545.843 548 545.951 547.892 545.951 547.73V535.67C545.951 535.508 545.843 535.4 545.681 535.4H544.493C544.331 535.4 544.223 535.508 544.223 535.67V544.454C544.223 544.544 544.151 544.562 544.115 544.49L538.607 535.58C538.535 535.454 538.427 535.4 538.283 535.4H537.131C536.969 535.4 536.861 535.508 536.861 535.67V547.73C536.861 547.892 536.969 548 537.131 548ZM556.804 535.4H548.362C548.2 535.4 548.092 535.508 548.092 535.67V536.642C548.092 536.804 548.2 536.912 548.362 536.912H551.548C551.602 536.912 551.638 536.948 551.638 537.002V547.73C551.638 547.892 551.746 548 551.908 548H553.096C553.258 548 553.366 547.892 553.366 547.73V537.002C553.366 536.948 553.402 536.912 553.456 536.912H556.804C556.966 536.912 557.074 536.804 557.074 536.642V535.67C557.074 535.508 556.966 535.4 556.804 535.4Z" fill="white"/>
<path d="M373.447 646.189C376.513 646.189 378.55 644.299 378.55 641.506V641.401C378.55 641.338 378.424 641.317 378.235 641.296L376.849 641.212C376.639 641.191 376.534 641.296 376.534 641.443C376.534 643.228 375.316 644.425 373.447 644.425C371.578 644.425 370.339 643.228 370.339 641.443V635.857C370.339 634.072 371.578 632.875 373.447 632.875C375.316 632.875 376.534 634.072 376.534 635.857V635.983C376.534 636.067 376.639 636.13 376.849 636.109L378.235 636.025C378.424 636.004 378.55 635.92 378.55 635.773C378.55 632.98 376.513 631.132 373.447 631.132C370.381 631.132 368.323 633.043 368.323 635.92V641.359C368.323 644.257 370.381 646.189 373.447 646.189ZM385.594 646.168C387.631 646.168 389.227 645.055 389.857 643.186C390.109 642.451 390.235 641.506 390.235 640.603C390.235 639.721 390.109 638.797 389.857 638.083C389.227 636.256 387.652 635.143 385.615 635.143C383.473 635.143 381.856 636.256 381.247 638.104C381.016 638.776 380.89 639.7 380.89 640.624C380.89 641.548 381.037 642.493 381.268 643.186C381.877 645.055 383.494 646.168 385.594 646.168ZM385.594 644.425C384.397 644.425 383.494 643.753 383.158 642.619C383.011 642.136 382.927 641.401 382.927 640.645C382.927 639.868 383.011 639.154 383.158 638.692C383.515 637.558 384.397 636.886 385.552 636.886C386.749 636.886 387.631 637.558 387.988 638.692C388.114 639.154 388.198 639.868 388.198 640.645C388.198 641.359 388.114 642.115 387.967 642.619C387.61 643.753 386.728 644.425 385.594 644.425ZM397.621 635.164C396.487 635.164 395.584 635.5 394.975 636.277C394.933 636.34 394.87 636.298 394.87 636.214V635.626C394.87 635.437 394.744 635.311 394.555 635.311H393.169C392.98 635.311 392.854 635.437 392.854 635.626V645.685C392.854 645.874 392.98 646 393.169 646H394.555C394.744 646 394.87 645.874 394.87 645.685V638.881C395.017 637.684 395.899 636.907 397.117 636.907C398.461 636.907 399.343 637.873 399.343 639.259V645.685C399.343 645.874 399.469 646 399.658 646H401.044C401.233 646 401.359 645.874 401.359 645.685V638.86C401.359 636.592 399.91 635.164 397.621 635.164ZM409.507 636.655V635.626C409.507 635.437 409.381 635.311 409.192 635.311H407.05C406.987 635.311 406.945 635.269 406.945 635.206V632.854C406.945 632.665 406.819 632.539 406.63 632.539H405.328C405.139 632.539 405.013 632.665 405.013 632.854V635.206C405.013 635.269 404.971 635.311 404.908 635.311H403.753C403.564 635.311 403.438 635.437 403.438 635.626V636.655C403.438 636.844 403.564 636.97 403.753 636.97H404.908C404.971 636.97 405.013 637.012 405.013 637.075V643.291C405.013 645.496 406.273 645.979 408.226 645.979C408.52 645.979 408.793 645.958 409.087 645.958C409.297 645.937 409.402 645.811 409.402 645.622V644.53C409.402 644.341 409.276 644.215 409.087 644.215H408.583C407.47 644.215 406.945 643.774 406.945 642.556V637.075C406.945 637.012 406.987 636.97 407.05 636.97H409.192C409.381 636.97 409.507 636.844 409.507 636.655ZM413.164 633.715C413.983 633.715 414.529 633.169 414.529 632.392C414.529 631.615 413.983 631.069 413.164 631.069C412.345 631.069 411.778 631.615 411.778 632.392C411.778 633.169 412.345 633.715 413.164 633.715ZM412.471 646H413.857C414.046 646 414.172 645.874 414.172 645.685V635.626C414.172 635.437 414.046 635.311 413.857 635.311H412.471C412.282 635.311 412.156 635.437 412.156 635.626V645.685C412.156 645.874 412.282 646 412.471 646ZM422.025 635.164C420.891 635.164 419.988 635.5 419.379 636.277C419.337 636.34 419.274 636.298 419.274 636.214V635.626C419.274 635.437 419.148 635.311 418.959 635.311H417.573C417.384 635.311 417.258 635.437 417.258 635.626V645.685C417.258 645.874 417.384 646 417.573 646H418.959C419.148 646 419.274 645.874 419.274 645.685V638.881C419.421 637.684 420.303 636.907 421.521 636.907C422.865 636.907 423.747 637.873 423.747 639.259V645.685C423.747 645.874 423.873 646 424.062 646H425.448C425.637 646 425.763 645.874 425.763 645.685V638.86C425.763 636.592 424.314 635.164 422.025 635.164ZM435.003 635.626V642.052C435.003 643.48 434.1 644.404 432.693 644.404C431.286 644.404 430.488 643.48 430.488 642.052V635.626C430.488 635.437 430.362 635.311 430.173 635.311H428.808C428.619 635.311 428.493 635.437 428.493 635.626V642.682C428.493 644.992 430.32 646.147 432.315 646.147C433.491 646.147 434.331 645.748 434.877 645.013C434.94 644.95 435.003 644.971 435.003 645.055V645.685C435.003 645.874 435.129 646 435.318 646H436.683C436.872 646 436.998 645.874 436.998 645.685V635.626C436.998 635.437 436.872 635.311 436.683 635.311H435.318C435.129 635.311 435.003 635.437 435.003 635.626ZM444.434 644.446C443.048 644.446 442.082 643.732 441.788 642.64C441.704 642.388 441.662 642.01 441.641 641.506C441.641 641.443 441.683 641.401 441.746 641.401H448.382C448.571 641.401 448.697 641.296 448.697 641.086C448.676 640.372 448.634 639.763 448.55 639.196C448.151 636.676 446.891 635.143 444.14 635.143C441.956 635.143 440.381 636.361 439.877 638.272C439.688 638.923 439.646 639.637 439.646 640.603C439.646 641.758 439.835 642.787 440.171 643.606C440.864 645.223 442.229 646.168 444.245 646.168C446.156 646.168 447.542 645.286 448.277 643.963C448.361 643.774 448.319 643.627 448.151 643.522L447.29 642.997C447.101 642.871 446.975 642.934 446.87 643.123C446.408 643.942 445.589 644.425 444.434 644.446ZM444.14 636.886C445.4 636.886 446.24 637.621 446.513 638.692C446.576 638.923 446.618 639.301 446.639 639.721C446.639 639.784 446.597 639.826 446.534 639.826H441.767C441.704 639.826 441.662 639.784 441.662 639.721C441.683 639.259 441.746 638.86 441.851 638.545C442.124 637.558 442.88 636.886 444.14 636.886Z" fill="#E67109"/>
<path d="M367 648.1H449.768V649.15H367V648.1Z" fill="#E67109"/>
<path d="M483 640L463 640" stroke="#E67109" stroke-width="2" stroke-linecap="round" stroke-linejoin="round"/>
<path d="M475.929 647.071L483 640" stroke="#E67109" stroke-width="2" stroke-linecap="round" stroke-linejoin="round"/>
<path d="M475.929 632.929L483 640" stroke="#E67109" stroke-width="2" stroke-linecap="round" stroke-linejoin="round"/>
<defs>
<filter id="filter0_d" x="21.5251" y="22.5151" width="806.95" height="722.95" filterUnits="userSpaceOnUse" color-interpolation-filters="sRGB">
<feFlood flood-opacity="0" result="BackgroundImageFix"/>
<feColorMatrix in="SourceAlpha" type="matrix" values="0 0 0 0 0 0 0 0 0 0 0 0 0 0 0 0 0 0 127 0"/>
<feOffset dy="12.99"/>
<feGaussianBlur stdDeviation="16.2374"/>
<feColorMatrix type="matrix" values="0 0 0 0 0.0901961 0 0 0 0 0.113725 0 0 0 0 0.113725 0 0 0 0.1 0"/>
<feBlend mode="normal" in2="BackgroundImageFix" result="effect1_dropShadow"/>
<feBlend mode="normal" in="SourceGraphic" in2="effect1_dropShadow" result="shape"/>
</filter>
<filter id="filter1_d" x="0" y="185" width="702" height="114" filterUnits="userSpaceOnUse" color-interpolation-filters="sRGB">
<feFlood flood-opacity="0" result="BackgroundImageFix"/>
<feColorMatrix in="SourceAlpha" type="matrix" values="0 0 0 0 0 0 0 0 0 0 0 0 0 0 0 0 0 0 127 0"/>
<feOffset dy="5"/>
<feGaussianBlur stdDeviation="7.5"/>
<feColorMatrix type="matrix" values="0 0 0 0 0.0784314 0 0 0 0 0.0784314 0 0 0 0 0.0823529 0 0 0 0.1 0"/>
<feBlend mode="normal" in2="BackgroundImageFix" result="effect1_dropShadow"/>
<feBlend mode="normal" in="SourceGraphic" in2="effect1_dropShadow" result="shape"/>
</filter>
<filter id="filter2_d" x="264" y="492" width="108" height="108" filterUnits="userSpaceOnUse" color-interpolation-filters="sRGB">
<feFlood flood-opacity="0" result="BackgroundImageFix"/>
<feColorMatrix in="SourceAlpha" type="matrix" values="0 0 0 0 0 0 0 0 0 0 0 0 0 0 0 0 0 0 127 0"/>
<feOffset dy="5"/>
<feGaussianBlur stdDeviation="7.5"/>
<feColorMatrix type="matrix" values="0 0 0 0 0.0784314 0 0 0 0 0.0784314 0 0 0 0 0.0823529 0 0 0 0.1 0"/>
<feBlend mode="normal" in2="BackgroundImageFix" result="effect1_dropShadow"/>
<feBlend mode="normal" in="SourceGraphic" in2="effect1_dropShadow" result="shape"/>
</filter>
<filter id="filter3_d" x="479" y="492" width="108" height="108" filterUnits="userSpaceOnUse" color-interpolation-filters="sRGB">
<feFlood flood-opacity="0" result="BackgroundImageFix"/>
<feColorMatrix in="SourceAlpha" type="matrix" values="0 0 0 0 0 0 0 0 0 0 0 0 0 0 0 0 0 0 127 0"/>
<feOffset dy="5"/>
<feGaussianBlur stdDeviation="7.5"/>
<feColorMatrix type="matrix" values="0 0 0 0 0.0784314 0 0 0 0 0.0784314 0 0 0 0 0.0823529 0 0 0 0.1 0"/>
<feBlend mode="normal" in2="BackgroundImageFix" result="effect1_dropShadow"/>
<feBlend mode="normal" in="SourceGraphic" in2="effect1_dropShadow" result="shape"/>
</filter>
</defs>
</svg>
