<svg width="829" height="766" viewBox="0 0 829 766" fill="none" xmlns="http://www.w3.org/2000/svg">
<g filter="url(#filter0_d)">
<rect x="54" y="20" width="742" height="700" fill="white"/>
</g>
<path d="M54 25C54 22.2386 56.2386 20 59 20H791C793.761 20 796 22.2386 796 25V62H54V25Z" fill="#141415"/>
<circle cx="80" cy="41" r="6" fill="#CC0226"/>
<circle cx="100" cy="41" r="6" fill="#E67109"/>
<circle cx="120" cy="41" r="6" fill="#00CA4E"/>
<g filter="url(#filter1_d)">
<rect x="15" y="215" width="672" height="84" fill="white"/>
</g>
<path d="M103.242 264H110.604C110.766 264 110.874 263.892 110.874 263.73V262.776C110.874 262.614 110.766 262.506 110.604 262.506H105.366C105.294 262.506 105.258 262.452 105.312 262.398C106.608 260.904 107.832 259.5 108.912 258.114C109.956 256.8 110.532 255.648 110.532 254.586C110.532 252.696 109.056 251.256 106.716 251.256C104.574 251.256 103.008 252.498 102.936 254.406V255.09C102.936 255.252 103.044 255.36 103.206 255.36H104.412C104.574 255.36 104.682 255.252 104.682 255.09V254.64C104.664 253.506 105.474 252.75 106.716 252.75C107.958 252.75 108.786 253.506 108.786 254.622C108.786 255.396 108.156 256.476 107.112 257.718C105.852 259.23 104.52 260.85 103.098 262.452C103.008 262.56 102.972 262.668 102.972 262.794V263.73C102.972 263.892 103.08 264 103.242 264Z" fill="#141415"/>
<path d="M187.526 264.144C190.154 264.144 191.9 262.65 191.9 259.842V257.646C191.9 257.484 191.792 257.376 191.63 257.376H187.76C187.598 257.376 187.49 257.484 187.49 257.646V258.582C187.49 258.744 187.598 258.852 187.76 258.852H190.082C190.136 258.852 190.172 258.888 190.172 258.942V260.31C190.172 261.768 189.164 262.632 187.598 262.632C185.978 262.632 184.862 261.624 184.862 260.058V255.342C184.862 253.776 185.924 252.768 187.526 252.768C189.128 252.768 190.172 253.776 190.172 255.198V255.36C190.172 255.468 190.28 255.54 190.442 255.54H191.63C191.792 255.54 191.9 255.432 191.9 255.27V255.162C191.9 252.912 190.154 251.256 187.526 251.256C184.898 251.256 183.134 252.894 183.134 255.396V260.004C183.134 262.488 184.898 264.144 187.526 264.144ZM198.19 254.748C197.2 254.748 196.48 255.234 195.994 255.972C195.958 256.044 195.904 256.026 195.904 255.936V255.108C195.904 254.946 195.796 254.838 195.634 254.838H194.446C194.284 254.838 194.176 254.946 194.176 255.108V263.73C194.176 263.892 194.284 264 194.446 264H195.634C195.796 264 195.904 263.892 195.904 263.73V258.564C195.904 257.358 196.75 256.584 197.848 256.548C198.19 256.512 198.514 256.548 198.73 256.62C198.91 256.674 199.018 256.656 199.054 256.458L199.306 255.288C199.342 255.144 199.306 255.018 199.162 254.946C198.928 254.838 198.622 254.748 198.19 254.748ZM204.151 254.694C202.171 254.694 200.749 255.684 200.533 257.034C200.515 257.16 200.623 257.25 200.785 257.268L202.081 257.43C202.243 257.448 202.333 257.376 202.387 257.214C202.567 256.584 203.179 256.188 204.187 256.188C205.465 256.188 206.041 256.836 206.041 257.862V258.33C206.041 258.384 206.005 258.42 205.951 258.42H203.953C201.577 258.42 200.227 259.572 200.227 261.426C200.227 263.352 201.613 264.144 203.233 264.144C204.313 264.144 205.267 263.802 205.933 263.172C205.987 263.118 206.041 263.154 206.041 263.226V263.73C206.041 263.892 206.149 264 206.311 264H207.499C207.661 264 207.769 263.892 207.769 263.73V257.736C207.769 255.972 206.401 254.694 204.151 254.694ZM203.665 262.686C202.711 262.686 201.955 262.254 201.955 261.336C201.955 260.328 202.873 259.77 204.277 259.77H205.951C206.005 259.77 206.041 259.806 206.041 259.86V260.904C206.041 261.966 204.907 262.686 203.665 262.686ZM214.17 254.712C213.198 254.712 212.424 255 211.902 255.666C211.866 255.72 211.812 255.684 211.812 255.612V255.108C211.812 254.946 211.704 254.838 211.542 254.838H210.354C210.192 254.838 210.084 254.946 210.084 255.108V263.73C210.084 263.892 210.192 264 210.354 264H211.542C211.704 264 211.812 263.892 211.812 263.73V257.898C211.938 256.872 212.694 256.206 213.738 256.206C214.89 256.206 215.646 257.034 215.646 258.222V263.73C215.646 263.892 215.754 264 215.916 264H217.104C217.266 264 217.374 263.892 217.374 263.73V257.88C217.374 255.936 216.132 254.712 214.17 254.712ZM220.848 253.47C221.55 253.47 222.018 253.002 222.018 252.336C222.018 251.67 221.55 251.202 220.848 251.202C220.146 251.202 219.66 251.67 219.66 252.336C219.66 253.002 220.146 253.47 220.848 253.47ZM220.254 264H221.442C221.604 264 221.712 263.892 221.712 263.73V255.108C221.712 254.946 221.604 254.838 221.442 254.838H220.254C220.092 254.838 219.984 254.946 219.984 255.108V263.73C219.984 263.892 220.092 264 220.254 264ZM228.876 255.99V255.108C228.876 254.946 228.768 254.838 228.606 254.838H226.77C226.716 254.838 226.68 254.802 226.68 254.748V252.732C226.68 252.57 226.572 252.462 226.41 252.462H225.294C225.132 252.462 225.024 252.57 225.024 252.732V254.748C225.024 254.802 224.988 254.838 224.934 254.838H223.944C223.782 254.838 223.674 254.946 223.674 255.108V255.99C223.674 256.152 223.782 256.26 223.944 256.26H224.934C224.988 256.26 225.024 256.296 225.024 256.35V261.678C225.024 263.568 226.104 263.982 227.778 263.982C228.03 263.982 228.264 263.964 228.516 263.964C228.696 263.946 228.786 263.838 228.786 263.676V262.74C228.786 262.578 228.678 262.47 228.516 262.47H228.084C227.13 262.47 226.68 262.092 226.68 261.048V256.35C226.68 256.296 226.716 256.26 226.77 256.26H228.606C228.768 256.26 228.876 256.152 228.876 255.99ZM234.643 262.668C233.455 262.668 232.627 262.056 232.375 261.12C232.303 260.904 232.267 260.58 232.249 260.148C232.249 260.094 232.285 260.058 232.339 260.058H238.027C238.189 260.058 238.297 259.968 238.297 259.788C238.279 259.176 238.243 258.654 238.171 258.168C237.829 256.008 236.749 254.694 234.391 254.694C232.519 254.694 231.169 255.738 230.737 257.376C230.575 257.934 230.539 258.546 230.539 259.374C230.539 260.364 230.701 261.246 230.989 261.948C231.583 263.334 232.753 264.144 234.481 264.144C236.119 264.144 237.307 263.388 237.937 262.254C238.009 262.092 237.973 261.966 237.829 261.876L237.091 261.426C236.929 261.318 236.821 261.372 236.731 261.534C236.335 262.236 235.633 262.65 234.643 262.668ZM234.391 256.188C235.471 256.188 236.191 256.818 236.425 257.736C236.479 257.934 236.515 258.258 236.533 258.618C236.533 258.672 236.497 258.708 236.443 258.708H232.357C232.303 258.708 232.267 258.672 232.267 258.618C232.285 258.222 232.339 257.88 232.429 257.61C232.663 256.764 233.311 256.188 234.391 256.188Z" fill="#141415"/>
<path d="M319.242 264H326.604C326.766 264 326.874 263.892 326.874 263.73V262.776C326.874 262.614 326.766 262.506 326.604 262.506H321.366C321.294 262.506 321.258 262.452 321.312 262.398C322.608 260.904 323.832 259.5 324.912 258.114C325.956 256.8 326.532 255.648 326.532 254.586C326.532 252.696 325.056 251.256 322.716 251.256C320.574 251.256 319.008 252.498 318.936 254.406V255.09C318.936 255.252 319.044 255.36 319.206 255.36H320.412C320.574 255.36 320.682 255.252 320.682 255.09V254.64C320.664 253.506 321.474 252.75 322.716 252.75C323.958 252.75 324.786 253.506 324.786 254.622C324.786 255.396 324.156 256.476 323.112 257.718C321.852 259.23 320.52 260.85 319.098 262.452C319.008 262.56 318.972 262.668 318.972 262.794V263.73C318.972 263.892 319.08 264 319.242 264ZM332.867 264.18C335.297 264.18 336.863 262.704 336.863 260.364V255.036C336.863 252.714 335.297 251.238 332.867 251.238C330.455 251.238 328.907 252.714 328.907 255.036V260.364C328.907 262.704 330.455 264.18 332.867 264.18ZM332.867 262.686C331.517 262.686 330.635 261.822 330.635 260.472V254.964C330.635 253.614 331.517 252.75 332.867 252.75C334.253 252.75 335.135 253.614 335.135 254.964V260.472C335.135 261.822 334.253 262.686 332.867 262.686ZM350.986 251.4H342.544C342.382 251.4 342.274 251.508 342.274 251.67V252.642C342.274 252.804 342.382 252.912 342.544 252.912H345.73C345.784 252.912 345.82 252.948 345.82 253.002V263.73C345.82 263.892 345.928 264 346.09 264H347.278C347.44 264 347.548 263.892 347.548 263.73V253.002C347.548 252.948 347.584 252.912 347.638 252.912H350.986C351.148 252.912 351.256 252.804 351.256 252.642V251.67C351.256 251.508 351.148 251.4 350.986 251.4ZM355.594 264.144C357.34 264.144 358.708 263.19 359.248 261.588C359.464 260.958 359.572 260.148 359.572 259.374C359.572 258.618 359.464 257.826 359.248 257.214C358.708 255.648 357.358 254.694 355.612 254.694C353.776 254.694 352.39 255.648 351.868 257.232C351.67 257.808 351.562 258.6 351.562 259.392C351.562 260.184 351.688 260.994 351.886 261.588C352.408 263.19 353.794 264.144 355.594 264.144ZM355.594 262.65C354.568 262.65 353.794 262.074 353.506 261.102C353.38 260.688 353.308 260.058 353.308 259.41C353.308 258.744 353.38 258.132 353.506 257.736C353.812 256.764 354.568 256.188 355.558 256.188C356.584 256.188 357.34 256.764 357.646 257.736C357.754 258.132 357.826 258.744 357.826 259.41C357.826 260.022 357.754 260.67 357.628 261.102C357.322 262.074 356.566 262.65 355.594 262.65ZM365.903 254.712C364.931 254.712 364.157 255 363.635 255.666C363.599 255.72 363.545 255.684 363.545 255.612V255.108C363.545 254.946 363.437 254.838 363.275 254.838H362.087C361.925 254.838 361.817 254.946 361.817 255.108V263.73C361.817 263.892 361.925 264 362.087 264H363.275C363.437 264 363.545 263.892 363.545 263.73V257.898C363.671 256.872 364.427 256.206 365.471 256.206C366.623 256.206 367.379 257.034 367.379 258.222V263.73C367.379 263.892 367.487 264 367.649 264H368.837C368.999 264 369.107 263.892 369.107 263.73V257.88C369.107 255.936 367.865 254.712 365.903 254.712ZM375.659 254.712C374.687 254.712 373.913 255 373.391 255.666C373.355 255.72 373.301 255.684 373.301 255.612V255.108C373.301 254.946 373.193 254.838 373.031 254.838H371.843C371.681 254.838 371.573 254.946 371.573 255.108V263.73C371.573 263.892 371.681 264 371.843 264H373.031C373.193 264 373.301 263.892 373.301 263.73V257.898C373.427 256.872 374.183 256.206 375.227 256.206C376.379 256.206 377.135 257.034 377.135 258.222V263.73C377.135 263.892 377.243 264 377.405 264H378.593C378.755 264 378.863 263.892 378.863 263.73V257.88C378.863 255.936 377.621 254.712 375.659 254.712ZM385.18 262.668C383.992 262.668 383.164 262.056 382.912 261.12C382.84 260.904 382.804 260.58 382.786 260.148C382.786 260.094 382.822 260.058 382.876 260.058H388.564C388.726 260.058 388.834 259.968 388.834 259.788C388.816 259.176 388.78 258.654 388.708 258.168C388.366 256.008 387.286 254.694 384.928 254.694C383.056 254.694 381.706 255.738 381.274 257.376C381.112 257.934 381.076 258.546 381.076 259.374C381.076 260.364 381.238 261.246 381.526 261.948C382.12 263.334 383.29 264.144 385.018 264.144C386.656 264.144 387.844 263.388 388.474 262.254C388.546 262.092 388.51 261.966 388.366 261.876L387.628 261.426C387.466 261.318 387.358 261.372 387.268 261.534C386.872 262.236 386.17 262.65 385.18 262.668ZM384.928 256.188C386.008 256.188 386.728 256.818 386.962 257.736C387.016 257.934 387.052 258.258 387.07 258.618C387.07 258.672 387.034 258.708 386.98 258.708H382.894C382.84 258.708 382.804 258.672 382.804 258.618C382.822 258.222 382.876 257.88 382.966 257.61C383.2 256.764 383.848 256.188 384.928 256.188ZM394.236 264.108C396.378 264.108 397.782 263.082 397.782 261.444C397.782 259.554 395.928 259.032 394.38 258.618C393.228 258.294 392.364 258.024 392.364 257.25C392.364 256.53 393.102 256.116 394.146 256.116C395.352 256.116 396.054 256.674 396.054 257.34V257.448C396.054 257.52 396.162 257.574 396.324 257.574H397.404C397.566 257.574 397.674 257.484 397.674 257.34C397.674 255.846 396.288 254.748 394.164 254.748C392.112 254.748 390.708 255.738 390.708 257.376C390.708 259.23 392.49 259.788 394.074 260.22C395.154 260.526 396.054 260.778 396.054 261.552C396.054 262.254 395.334 262.794 394.218 262.794C393.084 262.794 392.292 262.182 392.292 261.534V261.39C392.292 261.318 392.184 261.264 392.022 261.264H390.906C390.744 261.264 390.636 261.372 390.636 261.534V261.642C390.636 263.01 392.058 264.108 394.236 264.108Z" fill="#141415"/>
<path d="M479.154 253.614C478.65 252.138 477.39 251.274 475.59 251.274C473.916 251.274 472.728 252.048 472.188 253.398C471.954 253.938 471.828 254.586 471.828 255.324C471.828 256.224 472.008 256.998 472.332 257.61C472.908 258.69 473.916 259.302 475.356 259.302C476.184 259.302 476.994 259.104 477.588 258.456C477.642 258.402 477.696 258.42 477.696 258.492V260.724C477.696 261.894 476.868 262.632 475.716 262.632C474.618 262.632 473.844 261.894 473.844 260.814V260.634C473.844 260.526 473.736 260.472 473.574 260.472H472.386C472.224 260.472 472.116 260.58 472.116 260.742V261.012C472.116 262.884 473.574 264.144 475.716 264.144C477.894 264.144 479.424 262.884 479.424 260.904V255.36C479.424 254.73 479.334 254.118 479.154 253.614ZM477.408 256.764C477.102 257.448 476.49 257.844 475.644 257.844C474.78 257.844 474.204 257.448 473.88 256.8C473.664 256.422 473.556 255.9 473.556 255.324C473.556 254.784 473.646 254.316 473.826 253.938C474.132 253.218 474.726 252.786 475.626 252.786C476.526 252.786 477.156 253.2 477.462 253.956C477.624 254.316 477.696 254.748 477.696 255.234C477.696 255.792 477.606 256.35 477.408 256.764ZM485.533 264.18C487.963 264.18 489.529 262.704 489.529 260.364V255.036C489.529 252.714 487.963 251.238 485.533 251.238C483.121 251.238 481.573 252.714 481.573 255.036V260.364C481.573 262.704 483.121 264.18 485.533 264.18ZM485.533 262.686C484.183 262.686 483.301 261.822 483.301 260.472V254.964C483.301 253.614 484.183 252.75 485.533 252.75C486.919 252.75 487.801 253.614 487.801 254.964V260.472C487.801 261.822 486.919 262.686 485.533 262.686ZM495.728 264.18C498.158 264.18 499.724 262.704 499.724 260.364V255.036C499.724 252.714 498.158 251.238 495.728 251.238C493.316 251.238 491.768 252.714 491.768 255.036V260.364C491.768 262.704 493.316 264.18 495.728 264.18ZM495.728 262.686C494.378 262.686 493.496 261.822 493.496 260.472V254.964C493.496 253.614 494.378 252.75 495.728 252.75C497.114 252.75 497.996 253.614 497.996 254.964V260.472C497.996 261.822 497.114 262.686 495.728 262.686Z" fill="#141415"/>
<path d="M582.982 260.67C582.982 259.014 582.046 257.934 579.994 257.016C578.158 256.188 576.736 255.882 576.736 254.532C576.736 253.398 577.51 252.75 578.842 252.75C580.426 252.75 581.2 253.704 581.2 254.928V255.144C581.2 255.288 581.308 255.378 581.47 255.378H582.622C582.784 255.378 582.892 255.27 582.892 255.108V254.586C582.892 252.714 581.668 251.454 579.454 251.274C579.4 251.274 579.364 251.256 579.364 251.184L579.382 250.122C579.382 249.96 579.274 249.852 579.112 249.852H578.5C578.338 249.852 578.23 249.96 578.23 250.122L578.248 251.202C578.248 251.274 578.212 251.292 578.158 251.31C576.142 251.544 575.026 252.732 575.026 254.604C575.026 256.242 575.926 257.016 577.42 257.808C579.436 258.96 581.254 259.392 581.254 260.76C581.254 261.822 580.534 262.65 579.058 262.65C577.492 262.65 576.646 261.732 576.646 260.544V260.202C576.646 260.04 576.538 259.932 576.376 259.932H575.224C575.062 259.932 574.954 260.04 574.954 260.202V260.922C574.954 262.668 576.16 263.874 578.212 264.108C578.266 264.108 578.302 264.126 578.302 264.198L578.284 265.152C578.284 265.314 578.392 265.422 578.554 265.422H579.184C579.346 265.422 579.454 265.314 579.454 265.152L579.436 264.216C579.436 264.144 579.472 264.126 579.526 264.126C581.776 263.928 582.982 262.596 582.982 260.67ZM586.705 251.472L584.869 252.372C584.743 252.444 584.671 252.534 584.671 252.678V253.506C584.671 253.704 584.797 253.794 584.977 253.722L586.759 253.11C586.813 253.092 586.867 253.128 586.867 253.182V263.73C586.867 263.892 586.975 264 587.137 264H588.325C588.487 264 588.595 263.892 588.595 263.73V251.67C588.595 251.508 588.487 251.4 588.325 251.4H587.047C586.921 251.4 586.813 251.418 586.705 251.472ZM597.069 257.232C597.501 256.944 597.825 256.584 598.077 256.206C598.365 255.756 598.545 255.216 598.545 254.586C598.545 253.938 598.365 253.362 598.131 252.948C597.537 251.796 596.349 251.202 594.747 251.202C593.307 251.202 592.137 251.76 591.507 252.732C591.165 253.236 590.967 253.866 590.967 254.568C590.967 255.216 591.147 255.81 591.471 256.278C591.705 256.638 592.011 256.962 592.407 257.232C592.461 257.268 592.461 257.304 592.407 257.34C591.939 257.646 591.579 258.06 591.327 258.582C591.093 259.068 590.931 259.698 590.931 260.4C590.931 261.156 591.093 261.786 591.399 262.362C592.029 263.514 593.235 264.144 594.729 264.144C596.313 264.144 597.483 263.496 598.077 262.434C598.365 261.912 598.545 261.282 598.545 260.418C598.545 259.716 598.437 259.122 598.203 258.618C597.951 258.042 597.573 257.646 597.087 257.358C597.015 257.322 597.015 257.286 597.069 257.232ZM592.929 253.65C593.271 253.038 593.883 252.678 594.747 252.678C595.611 252.678 596.259 253.056 596.601 253.686C596.763 253.974 596.835 254.334 596.835 254.73C596.835 255.144 596.745 255.54 596.547 255.846C596.187 256.404 595.593 256.764 594.747 256.764C593.973 256.764 593.361 256.44 593.019 255.918C592.803 255.612 592.677 255.18 592.677 254.748C592.677 254.334 592.767 253.956 592.929 253.65ZM596.421 261.858C596.079 262.38 595.503 262.668 594.747 262.668C593.973 262.668 593.397 262.362 593.037 261.786C592.821 261.408 592.695 260.904 592.695 260.292C592.695 259.878 592.767 259.464 592.929 259.122C593.253 258.42 593.847 257.97 594.747 257.97C595.665 257.97 596.331 258.402 596.619 259.158C596.745 259.482 596.817 259.878 596.817 260.256C596.817 260.94 596.673 261.462 596.421 261.858ZM600.837 265.548H601.503C601.665 265.548 601.755 265.458 601.791 265.314L602.817 261.498C602.871 261.3 602.763 261.192 602.583 261.192H601.575C601.413 261.192 601.323 261.282 601.287 261.444L600.585 265.26C600.549 265.458 600.657 265.548 600.837 265.548ZM608.783 264.18C611.213 264.18 612.779 262.704 612.779 260.364V255.036C612.779 252.714 611.213 251.238 608.783 251.238C606.371 251.238 604.823 252.714 604.823 255.036V260.364C604.823 262.704 606.371 264.18 608.783 264.18ZM608.783 262.686C607.433 262.686 606.551 261.822 606.551 260.472V254.964C606.551 253.614 607.433 252.75 608.783 252.75C610.169 252.75 611.051 253.614 611.051 254.964V260.472C611.051 261.822 610.169 262.686 608.783 262.686ZM618.978 264.18C621.408 264.18 622.974 262.704 622.974 260.364V255.036C622.974 252.714 621.408 251.238 618.978 251.238C616.566 251.238 615.018 252.714 615.018 255.036V260.364C615.018 262.704 616.566 264.18 618.978 264.18ZM618.978 262.686C617.628 262.686 616.746 261.822 616.746 260.472V254.964C616.746 253.614 617.628 252.75 618.978 252.75C620.364 252.75 621.246 253.614 621.246 254.964V260.472C621.246 261.822 620.364 262.686 618.978 262.686ZM629.174 264.18C631.604 264.18 633.17 262.704 633.17 260.364V255.036C633.17 252.714 631.604 251.238 629.174 251.238C626.762 251.238 625.214 252.714 625.214 255.036V260.364C625.214 262.704 626.762 264.18 629.174 264.18ZM629.174 262.686C627.824 262.686 626.942 261.822 626.942 260.472V254.964C626.942 253.614 627.824 252.75 629.174 252.75C630.56 252.75 631.442 253.614 631.442 254.964V260.472C631.442 261.822 630.56 262.686 629.174 262.686Z" fill="#141415"/>
<path d="M79 268H65C63.895 268 63 267.105 63 266V252C63 250.895 63.895 250 65 250H79C80.105 250 81 250.895 81 252V266C81 267.105 80.105 268 79 268Z" fill="#E67109"/>
<path d="M75.917 257L71.917 261L69 258.083" stroke="white" stroke-width="1.5" stroke-linecap="round" stroke-linejoin="round"/>
<rect x="89.15" y="102.15" width="671.7" height="83.7" fill="white" stroke="#171D1D" stroke-width="0.3"/>
<path d="M162.844 138.472L161.008 139.372C160.882 139.444 160.81 139.534 160.81 139.678V140.506C160.81 140.704 160.936 140.794 161.116 140.722L162.898 140.11C162.952 140.092 163.006 140.128 163.006 140.182V150.73C163.006 150.892 163.114 151 163.276 151H164.464C164.626 151 164.734 150.892 164.734 150.73V138.67C164.734 138.508 164.626 138.4 164.464 138.4H163.186C163.06 138.4 162.952 138.418 162.844 138.472Z" fill="#777777"/>
<path d="M249.364 151.144C252.082 151.144 253.72 149.758 253.72 147.706C253.72 145.51 251.812 144.718 249.814 143.944C247.69 143.134 246.754 142.738 246.754 141.532C246.754 140.38 247.6 139.75 249.094 139.75C250.912 139.75 251.902 140.722 251.902 141.928V142.144C251.902 142.288 252.01 142.378 252.172 142.378H253.342C253.504 142.378 253.612 142.27 253.612 142.108V141.838C253.612 139.696 251.866 138.256 249.166 138.256C246.664 138.256 245.062 139.48 245.062 141.568C245.062 143.764 246.862 144.484 248.914 145.276C251.02 146.122 251.992 146.626 251.992 147.76C251.992 148.84 251.2 149.65 249.49 149.65C247.69 149.65 246.592 148.732 246.592 147.544V147.202C246.592 147.04 246.484 146.932 246.322 146.932H245.17C245.008 146.932 244.9 147.04 244.9 147.202V147.634C244.9 149.758 246.646 151.144 249.364 151.144ZM261.422 142.108V142.576C261.422 142.648 261.368 142.684 261.314 142.63C260.792 142.018 260.054 141.694 259.226 141.694C257.462 141.694 256.328 142.63 255.824 144.142C255.59 144.79 255.5 145.564 255.5 146.446C255.5 147.256 255.572 147.994 255.77 148.624C256.256 150.172 257.408 151.144 259.226 151.144C260.054 151.144 260.792 150.82 261.314 150.226C261.368 150.172 261.422 150.19 261.422 150.262V154.168C261.422 154.33 261.53 154.438 261.692 154.438H262.88C263.042 154.438 263.15 154.33 263.15 154.168V142.108C263.15 141.946 263.042 141.838 262.88 141.838H261.692C261.53 141.838 261.422 141.946 261.422 142.108ZM260.936 148.732C260.594 149.326 260.09 149.65 259.406 149.65C258.704 149.65 258.164 149.344 257.804 148.786C257.444 148.228 257.228 147.472 257.228 146.41C257.228 145.438 257.39 144.718 257.678 144.178C258.02 143.53 258.614 143.188 259.406 143.188C260.108 143.188 260.63 143.548 260.972 144.16C261.26 144.682 261.404 145.438 261.404 146.428C261.404 147.454 261.242 148.192 260.936 148.732ZM271.228 142.108V147.616C271.228 148.84 270.454 149.632 269.248 149.632C268.042 149.632 267.358 148.84 267.358 147.616V142.108C267.358 141.946 267.25 141.838 267.088 141.838H265.918C265.756 141.838 265.648 141.946 265.648 142.108V148.156C265.648 150.136 267.214 151.126 268.924 151.126C269.932 151.126 270.652 150.784 271.12 150.154C271.174 150.1 271.228 150.118 271.228 150.19V150.73C271.228 150.892 271.336 151 271.498 151H272.668C272.83 151 272.938 150.892 272.938 150.73V142.108C272.938 141.946 272.83 141.838 272.668 141.838H271.498C271.336 141.838 271.228 141.946 271.228 142.108ZM278.825 141.694C276.845 141.694 275.423 142.684 275.207 144.034C275.189 144.16 275.297 144.25 275.459 144.268L276.755 144.43C276.917 144.448 277.007 144.376 277.061 144.214C277.241 143.584 277.853 143.188 278.861 143.188C280.139 143.188 280.715 143.836 280.715 144.862V145.33C280.715 145.384 280.679 145.42 280.625 145.42H278.627C276.251 145.42 274.901 146.572 274.901 148.426C274.901 150.352 276.287 151.144 277.907 151.144C278.987 151.144 279.941 150.802 280.607 150.172C280.661 150.118 280.715 150.154 280.715 150.226V150.73C280.715 150.892 280.823 151 280.985 151H282.173C282.335 151 282.443 150.892 282.443 150.73V144.736C282.443 142.972 281.075 141.694 278.825 141.694ZM278.339 149.686C277.385 149.686 276.629 149.254 276.629 148.336C276.629 147.328 277.547 146.77 278.951 146.77H280.625C280.679 146.77 280.715 146.806 280.715 146.86V147.904C280.715 148.966 279.581 149.686 278.339 149.686ZM288.772 141.748C287.782 141.748 287.062 142.234 286.576 142.972C286.54 143.044 286.486 143.026 286.486 142.936V142.108C286.486 141.946 286.378 141.838 286.216 141.838H285.028C284.866 141.838 284.758 141.946 284.758 142.108V150.73C284.758 150.892 284.866 151 285.028 151H286.216C286.378 151 286.486 150.892 286.486 150.73V145.564C286.486 144.358 287.332 143.584 288.43 143.548C288.772 143.512 289.096 143.548 289.312 143.62C289.492 143.674 289.6 143.656 289.636 143.458L289.888 142.288C289.924 142.144 289.888 142.018 289.744 141.946C289.51 141.838 289.204 141.748 288.772 141.748ZM295.149 149.668C293.961 149.668 293.133 149.056 292.881 148.12C292.809 147.904 292.773 147.58 292.755 147.148C292.755 147.094 292.791 147.058 292.845 147.058H298.533C298.695 147.058 298.803 146.968 298.803 146.788C298.785 146.176 298.749 145.654 298.677 145.168C298.335 143.008 297.255 141.694 294.897 141.694C293.025 141.694 291.675 142.738 291.243 144.376C291.081 144.934 291.045 145.546 291.045 146.374C291.045 147.364 291.207 148.246 291.495 148.948C292.089 150.334 293.259 151.144 294.987 151.144C296.625 151.144 297.813 150.388 298.443 149.254C298.515 149.092 298.479 148.966 298.335 148.876L297.597 148.426C297.435 148.318 297.327 148.372 297.237 148.534C296.841 149.236 296.139 149.65 295.149 149.668ZM294.897 143.188C295.977 143.188 296.697 143.818 296.931 144.736C296.985 144.934 297.021 145.258 297.039 145.618C297.039 145.672 297.003 145.708 296.949 145.708H292.863C292.809 145.708 292.773 145.672 292.773 145.618C292.791 145.222 292.845 144.88 292.935 144.61C293.169 143.764 293.817 143.188 294.897 143.188ZM309.734 138.382H304.964C304.802 138.382 304.694 138.49 304.694 138.652V150.73C304.694 150.892 304.802 151 304.964 151H306.152C306.314 151 306.422 150.892 306.422 150.73V145.726C306.422 145.672 306.458 145.636 306.512 145.636H309.662C311.912 145.636 313.424 144.214 313.424 142.036C313.424 139.84 311.948 138.382 309.734 138.382ZM309.5 144.232H306.512C306.458 144.232 306.422 144.196 306.422 144.142V139.966C306.422 139.912 306.458 139.876 306.512 139.876H309.5C310.814 139.876 311.696 140.758 311.696 142.072C311.696 143.368 310.814 144.232 309.5 144.232ZM316.264 140.47C316.966 140.47 317.434 140.002 317.434 139.336C317.434 138.67 316.966 138.202 316.264 138.202C315.562 138.202 315.076 138.67 315.076 139.336C315.076 140.002 315.562 140.47 316.264 140.47ZM315.67 151H316.858C317.02 151 317.128 150.892 317.128 150.73V142.108C317.128 141.946 317.02 141.838 316.858 141.838H315.67C315.508 141.838 315.4 141.946 315.4 142.108V150.73C315.4 150.892 315.508 151 315.67 151ZM327.208 144.142C326.704 142.63 325.57 141.694 323.806 141.694C322.978 141.694 322.24 142.018 321.718 142.63C321.664 142.684 321.61 142.648 321.61 142.576V142.108C321.61 141.946 321.502 141.838 321.34 141.838H320.152C319.99 141.838 319.882 141.946 319.882 142.108V154.168C319.882 154.33 319.99 154.438 320.152 154.438H321.34C321.502 154.438 321.61 154.33 321.61 154.168V150.262C321.61 150.19 321.664 150.172 321.718 150.226C322.24 150.82 322.978 151.144 323.806 151.144C325.624 151.144 326.776 150.172 327.262 148.624C327.46 147.994 327.532 147.256 327.532 146.446C327.532 145.564 327.442 144.79 327.208 144.142ZM325.228 148.786C324.868 149.344 324.328 149.65 323.626 149.65C322.942 149.65 322.438 149.326 322.096 148.732C321.79 148.192 321.628 147.454 321.628 146.428C321.628 145.438 321.772 144.682 322.06 144.16C322.402 143.548 322.924 143.188 323.626 143.188C324.418 143.188 325.012 143.53 325.354 144.178C325.642 144.718 325.804 145.438 325.804 146.41C325.804 147.472 325.588 148.228 325.228 148.786ZM333.557 149.668C332.369 149.668 331.541 149.056 331.289 148.12C331.217 147.904 331.181 147.58 331.163 147.148C331.163 147.094 331.199 147.058 331.253 147.058H336.941C337.103 147.058 337.211 146.968 337.211 146.788C337.193 146.176 337.157 145.654 337.085 145.168C336.743 143.008 335.663 141.694 333.305 141.694C331.433 141.694 330.083 142.738 329.651 144.376C329.489 144.934 329.453 145.546 329.453 146.374C329.453 147.364 329.615 148.246 329.903 148.948C330.497 150.334 331.667 151.144 333.395 151.144C335.033 151.144 336.221 150.388 336.851 149.254C336.923 149.092 336.887 148.966 336.743 148.876L336.005 148.426C335.843 148.318 335.735 148.372 335.645 148.534C335.249 149.236 334.547 149.65 333.557 149.668ZM333.305 143.188C334.385 143.188 335.105 143.818 335.339 144.736C335.393 144.934 335.429 145.258 335.447 145.618C335.447 145.672 335.411 145.708 335.357 145.708H331.271C331.217 145.708 331.181 145.672 331.181 145.618C331.199 145.222 331.253 144.88 331.343 144.61C331.577 143.764 332.225 143.188 333.305 143.188Z" fill="#777777"/>
<path d="M430.242 151H437.604C437.766 151 437.874 150.892 437.874 150.73V149.776C437.874 149.614 437.766 149.506 437.604 149.506H432.366C432.294 149.506 432.258 149.452 432.312 149.398C433.608 147.904 434.832 146.5 435.912 145.114C436.956 143.8 437.532 142.648 437.532 141.586C437.532 139.696 436.056 138.256 433.716 138.256C431.574 138.256 430.008 139.498 429.936 141.406V142.09C429.936 142.252 430.044 142.36 430.206 142.36H431.412C431.574 142.36 431.682 142.252 431.682 142.09V141.64C431.664 140.506 432.474 139.75 433.716 139.75C434.958 139.75 435.786 140.506 435.786 141.622C435.786 142.396 435.156 143.476 434.112 144.718C432.852 146.23 431.52 147.85 430.098 149.452C430.008 149.56 429.972 149.668 429.972 149.794V150.73C429.972 150.892 430.08 151 430.242 151ZM447.215 145.42C446.801 143.89 445.487 143.026 443.831 143.026C443.021 143.026 442.247 143.26 441.653 143.764C441.599 143.8 441.545 143.8 441.545 143.71L441.563 139.984C441.563 139.912 441.599 139.894 441.653 139.894H446.657C446.819 139.894 446.927 139.786 446.927 139.624V138.67C446.927 138.508 446.819 138.4 446.657 138.4H440.105C439.943 138.4 439.835 138.508 439.835 138.67V145.51C439.835 145.672 439.943 145.78 440.105 145.78H441.383C441.527 145.78 441.635 145.708 441.707 145.564C442.013 144.88 442.769 144.538 443.597 144.538C444.605 144.538 445.361 145.024 445.541 145.96C445.631 146.392 445.667 146.788 445.649 147.094C445.649 147.346 445.631 147.778 445.505 148.102C445.289 149.038 444.587 149.632 443.597 149.632C442.607 149.632 441.923 149.056 441.689 148.192C441.653 148.102 441.635 147.994 441.617 147.904C441.581 147.742 441.491 147.652 441.329 147.652H440.105C439.925 147.652 439.817 147.76 439.835 147.94C439.871 148.192 439.943 148.444 440.033 148.714C440.519 150.172 441.833 151.126 443.597 151.126C445.379 151.126 446.747 150.154 447.197 148.624C447.359 148.084 447.413 147.562 447.413 147.058C447.413 146.626 447.377 146.068 447.215 145.42Z" fill="#777777"/>
<path d="M537.424 145.42C537.01 143.89 535.696 143.026 534.04 143.026C533.23 143.026 532.456 143.26 531.862 143.764C531.808 143.8 531.754 143.8 531.754 143.71L531.772 139.984C531.772 139.912 531.808 139.894 531.862 139.894H536.866C537.028 139.894 537.136 139.786 537.136 139.624V138.67C537.136 138.508 537.028 138.4 536.866 138.4H530.314C530.152 138.4 530.044 138.508 530.044 138.67V145.51C530.044 145.672 530.152 145.78 530.314 145.78H531.592C531.736 145.78 531.844 145.708 531.916 145.564C532.222 144.88 532.978 144.538 533.806 144.538C534.814 144.538 535.57 145.024 535.75 145.96C535.84 146.392 535.876 146.788 535.858 147.094C535.858 147.346 535.84 147.778 535.714 148.102C535.498 149.038 534.796 149.632 533.806 149.632C532.816 149.632 532.132 149.056 531.898 148.192C531.862 148.102 531.844 147.994 531.826 147.904C531.79 147.742 531.7 147.652 531.538 147.652H530.314C530.134 147.652 530.026 147.76 530.044 147.94C530.08 148.192 530.152 148.444 530.242 148.714C530.728 150.172 532.042 151.126 533.806 151.126C535.588 151.126 536.956 150.154 537.406 148.624C537.568 148.084 537.622 147.562 537.622 147.058C537.622 146.626 537.586 146.068 537.424 145.42ZM539.736 152.548H540.402C540.564 152.548 540.654 152.458 540.69 152.314L541.716 148.498C541.77 148.3 541.662 148.192 541.482 148.192H540.474C540.312 148.192 540.222 148.282 540.186 148.444L539.484 152.26C539.448 152.458 539.556 152.548 539.736 152.548ZM547.681 151.18C550.111 151.18 551.677 149.704 551.677 147.364V142.036C551.677 139.714 550.111 138.238 547.681 138.238C545.269 138.238 543.721 139.714 543.721 142.036V147.364C543.721 149.704 545.269 151.18 547.681 151.18ZM547.681 149.686C546.331 149.686 545.449 148.822 545.449 147.472V141.964C545.449 140.614 546.331 139.75 547.681 139.75C549.067 139.75 549.949 140.614 549.949 141.964V147.472C549.949 148.822 549.067 149.686 547.681 149.686ZM557.877 151.18C560.307 151.18 561.873 149.704 561.873 147.364V142.036C561.873 139.714 560.307 138.238 557.877 138.238C555.465 138.238 553.917 139.714 553.917 142.036V147.364C553.917 149.704 555.465 151.18 557.877 151.18ZM557.877 149.686C556.527 149.686 555.645 148.822 555.645 147.472V141.964C555.645 140.614 556.527 139.75 557.877 139.75C559.263 139.75 560.145 140.614 560.145 141.964V147.472C560.145 148.822 559.263 149.686 557.877 149.686ZM568.072 151.18C570.502 151.18 572.068 149.704 572.068 147.364V142.036C572.068 139.714 570.502 138.238 568.072 138.238C565.66 138.238 564.112 139.714 564.112 142.036V147.364C564.112 149.704 565.66 151.18 568.072 151.18ZM568.072 149.686C566.722 149.686 565.84 148.822 565.84 147.472V141.964C565.84 140.614 566.722 139.75 568.072 139.75C569.458 139.75 570.34 140.614 570.34 141.964V147.472C570.34 148.822 569.458 149.686 568.072 149.686Z" fill="#777777"/>
<path d="M663.982 147.67C663.982 146.014 663.046 144.934 660.994 144.016C659.158 143.188 657.736 142.882 657.736 141.532C657.736 140.398 658.51 139.75 659.842 139.75C661.426 139.75 662.2 140.704 662.2 141.928V142.144C662.2 142.288 662.308 142.378 662.47 142.378H663.622C663.784 142.378 663.892 142.27 663.892 142.108V141.586C663.892 139.714 662.668 138.454 660.454 138.274C660.4 138.274 660.364 138.256 660.364 138.184L660.382 137.122C660.382 136.96 660.274 136.852 660.112 136.852H659.5C659.338 136.852 659.23 136.96 659.23 137.122L659.248 138.202C659.248 138.274 659.212 138.292 659.158 138.31C657.142 138.544 656.026 139.732 656.026 141.604C656.026 143.242 656.926 144.016 658.42 144.808C660.436 145.96 662.254 146.392 662.254 147.76C662.254 148.822 661.534 149.65 660.058 149.65C658.492 149.65 657.646 148.732 657.646 147.544V147.202C657.646 147.04 657.538 146.932 657.376 146.932H656.224C656.062 146.932 655.954 147.04 655.954 147.202V147.922C655.954 149.668 657.16 150.874 659.212 151.108C659.266 151.108 659.302 151.126 659.302 151.198L659.284 152.152C659.284 152.314 659.392 152.422 659.554 152.422H660.184C660.346 152.422 660.454 152.314 660.454 152.152L660.436 151.216C660.436 151.144 660.472 151.126 660.526 151.126C662.776 150.928 663.982 149.596 663.982 147.67ZM667.705 138.472L665.869 139.372C665.743 139.444 665.671 139.534 665.671 139.678V140.506C665.671 140.704 665.797 140.794 665.977 140.722L667.759 140.11C667.813 140.092 667.867 140.128 667.867 140.182V150.73C667.867 150.892 667.975 151 668.137 151H669.325C669.487 151 669.595 150.892 669.595 150.73V138.67C669.595 138.508 669.487 138.4 669.325 138.4H668.047C667.921 138.4 667.813 138.418 667.705 138.472ZM672.273 151H679.635C679.797 151 679.905 150.892 679.905 150.73V149.776C679.905 149.614 679.797 149.506 679.635 149.506H674.397C674.325 149.506 674.289 149.452 674.343 149.398C675.639 147.904 676.863 146.5 677.943 145.114C678.987 143.8 679.563 142.648 679.563 141.586C679.563 139.696 678.087 138.256 675.747 138.256C673.605 138.256 672.039 139.498 671.967 141.406V142.09C671.967 142.252 672.075 142.36 672.237 142.36H673.443C673.605 142.36 673.713 142.252 673.713 142.09V141.64C673.695 140.506 674.505 139.75 675.747 139.75C676.989 139.75 677.817 140.506 677.817 141.622C677.817 142.396 677.187 143.476 676.143 144.718C674.883 146.23 673.551 147.85 672.129 149.452C672.039 149.56 672.003 149.668 672.003 149.794V150.73C672.003 150.892 672.111 151 672.273 151ZM689.246 145.42C688.832 143.89 687.518 143.026 685.862 143.026C685.052 143.026 684.278 143.26 683.684 143.764C683.63 143.8 683.576 143.8 683.576 143.71L683.594 139.984C683.594 139.912 683.63 139.894 683.684 139.894H688.688C688.85 139.894 688.958 139.786 688.958 139.624V138.67C688.958 138.508 688.85 138.4 688.688 138.4H682.136C681.974 138.4 681.866 138.508 681.866 138.67V145.51C681.866 145.672 681.974 145.78 682.136 145.78H683.414C683.558 145.78 683.666 145.708 683.738 145.564C684.044 144.88 684.8 144.538 685.628 144.538C686.636 144.538 687.392 145.024 687.572 145.96C687.662 146.392 687.698 146.788 687.68 147.094C687.68 147.346 687.662 147.778 687.536 148.102C687.32 149.038 686.618 149.632 685.628 149.632C684.638 149.632 683.954 149.056 683.72 148.192C683.684 148.102 683.666 147.994 683.648 147.904C683.612 147.742 683.522 147.652 683.36 147.652H682.136C681.956 147.652 681.848 147.76 681.866 147.94C681.902 148.192 681.974 148.444 682.064 148.714C682.55 150.172 683.864 151.126 685.628 151.126C687.41 151.126 688.778 150.154 689.228 148.624C689.39 148.084 689.444 147.562 689.444 147.058C689.444 146.626 689.408 146.068 689.246 145.42ZM691.558 152.548H692.224C692.386 152.548 692.476 152.458 692.512 152.314L693.538 148.498C693.592 148.3 693.484 148.192 693.304 148.192H692.296C692.134 148.192 692.044 148.282 692.008 148.444L691.306 152.26C691.27 152.458 691.378 152.548 691.558 152.548ZM699.504 151.18C701.934 151.18 703.5 149.704 703.5 147.364V142.036C703.5 139.714 701.934 138.238 699.504 138.238C697.092 138.238 695.544 139.714 695.544 142.036V147.364C695.544 149.704 697.092 151.18 699.504 151.18ZM699.504 149.686C698.154 149.686 697.272 148.822 697.272 147.472V141.964C697.272 140.614 698.154 139.75 699.504 139.75C700.89 139.75 701.772 140.614 701.772 141.964V147.472C701.772 148.822 700.89 149.686 699.504 149.686ZM709.699 151.18C712.129 151.18 713.695 149.704 713.695 147.364V142.036C713.695 139.714 712.129 138.238 709.699 138.238C707.287 138.238 705.739 139.714 705.739 142.036V147.364C705.739 149.704 707.287 151.18 709.699 151.18ZM709.699 149.686C708.349 149.686 707.467 148.822 707.467 147.472V141.964C707.467 140.614 708.349 139.75 709.699 139.75C711.085 139.75 711.967 140.614 711.967 141.964V147.472C711.967 148.822 711.085 149.686 709.699 149.686ZM719.894 151.18C722.324 151.18 723.89 149.704 723.89 147.364V142.036C723.89 139.714 722.324 138.238 719.894 138.238C717.482 138.238 715.934 139.714 715.934 142.036V147.364C715.934 149.704 717.482 151.18 719.894 151.18ZM719.894 149.686C718.544 149.686 717.662 148.822 717.662 147.472V141.964C717.662 140.614 718.544 139.75 719.894 139.75C721.28 139.75 722.162 140.614 722.162 141.964V147.472C722.162 148.822 721.28 149.686 719.894 149.686Z" fill="#777777"/>
<path d="M137 154H123C121.895 154 121 153.105 121 152V138C121 136.895 121.895 136 123 136H137C138.105 136 139 136.895 139 138V152C139 153.105 138.105 154 137 154Z" stroke="#DBDBDB" stroke-width="1.5" stroke-linecap="round" stroke-linejoin="round"/>
<rect x="89.15" y="328.15" width="671.7" height="83.7" fill="white" stroke="#171D1D" stroke-width="0.3"/>
<path d="M175.046 372.024C174.596 370.98 173.786 370.296 172.49 370.188C172.4 370.17 172.364 370.116 172.418 370.062L175.172 367.056C175.262 366.966 175.298 366.84 175.298 366.714V365.67C175.298 365.508 175.19 365.4 175.028 365.4H168.224C168.062 365.4 167.954 365.508 167.954 365.67V366.642C167.954 366.804 168.062 366.912 168.224 366.912H172.994C173.066 366.912 173.084 366.948 173.03 367.02L170.006 370.242C169.898 370.368 169.88 370.476 169.988 370.62L170.564 371.322C170.672 371.448 170.798 371.466 170.942 371.394C171.158 371.286 171.338 371.232 171.572 371.232C172.436 371.232 173.048 371.628 173.354 372.384C173.552 372.816 173.66 373.356 173.66 374.022C173.66 374.526 173.57 375.012 173.408 375.426C173.12 376.218 172.49 376.632 171.59 376.632C170.6 376.632 169.916 376.056 169.682 375.192C169.61 374.958 169.574 374.616 169.538 374.328C169.538 374.148 169.43 374.058 169.268 374.058H168.062C167.9 374.058 167.792 374.148 167.792 374.328C167.81 374.76 167.882 375.228 168.026 375.66C168.512 377.154 169.826 378.144 171.59 378.144C173.354 378.144 174.596 377.28 175.118 375.822C175.28 375.318 175.406 374.76 175.406 374.058C175.406 373.266 175.28 372.582 175.046 372.024Z" fill="#777777"/>
<path d="M220.844 365.472L219.008 366.372C218.882 366.444 218.81 366.534 218.81 366.678V367.506C218.81 367.704 218.936 367.794 219.116 367.722L220.898 367.11C220.952 367.092 221.006 367.128 221.006 367.182V377.73C221.006 377.892 221.114 378 221.276 378H222.464C222.626 378 222.734 377.892 222.734 377.73V365.67C222.734 365.508 222.626 365.4 222.464 365.4H221.186C221.06 365.4 220.952 365.418 220.844 365.472ZM231.208 371.232C231.64 370.944 231.964 370.584 232.216 370.206C232.504 369.756 232.684 369.216 232.684 368.586C232.684 367.938 232.504 367.362 232.27 366.948C231.676 365.796 230.488 365.202 228.886 365.202C227.446 365.202 226.276 365.76 225.646 366.732C225.304 367.236 225.106 367.866 225.106 368.568C225.106 369.216 225.286 369.81 225.61 370.278C225.844 370.638 226.15 370.962 226.546 371.232C226.6 371.268 226.6 371.304 226.546 371.34C226.078 371.646 225.718 372.06 225.466 372.582C225.232 373.068 225.07 373.698 225.07 374.4C225.07 375.156 225.232 375.786 225.538 376.362C226.168 377.514 227.374 378.144 228.868 378.144C230.452 378.144 231.622 377.496 232.216 376.434C232.504 375.912 232.684 375.282 232.684 374.418C232.684 373.716 232.576 373.122 232.342 372.618C232.09 372.042 231.712 371.646 231.226 371.358C231.154 371.322 231.154 371.286 231.208 371.232ZM227.068 367.65C227.41 367.038 228.022 366.678 228.886 366.678C229.75 366.678 230.398 367.056 230.74 367.686C230.902 367.974 230.974 368.334 230.974 368.73C230.974 369.144 230.884 369.54 230.686 369.846C230.326 370.404 229.732 370.764 228.886 370.764C228.112 370.764 227.5 370.44 227.158 369.918C226.942 369.612 226.816 369.18 226.816 368.748C226.816 368.334 226.906 367.956 227.068 367.65ZM230.56 375.858C230.218 376.38 229.642 376.668 228.886 376.668C228.112 376.668 227.536 376.362 227.176 375.786C226.96 375.408 226.834 374.904 226.834 374.292C226.834 373.878 226.906 373.464 227.068 373.122C227.392 372.42 227.986 371.97 228.886 371.97C229.804 371.97 230.47 372.402 230.758 373.158C230.884 373.482 230.956 373.878 230.956 374.256C230.956 374.94 230.812 375.462 230.56 375.858ZM244.16 369.108V369.54C244.16 369.612 244.106 369.648 244.052 369.576C243.53 369.018 242.774 368.694 241.748 368.694C240.128 368.694 238.922 369.684 238.472 371.088C238.256 371.736 238.202 372.51 238.202 373.392C238.202 374.22 238.256 374.976 238.436 375.588C238.94 377.262 240.416 378 241.856 378C242.882 378 243.584 377.658 244.052 377.136C244.106 377.082 244.16 377.1 244.16 377.172V377.478C244.16 379.494 243.098 380.106 240.632 379.944C240.452 379.926 240.326 380.034 240.326 380.196L240.29 381.258C240.29 381.42 240.362 381.546 240.542 381.546C243.386 381.762 245.888 380.952 245.888 377.532V369.108C245.888 368.946 245.78 368.838 245.618 368.838H244.43C244.268 368.838 244.16 368.946 244.16 369.108ZM244.052 375.066C243.872 375.894 243.224 376.578 242.126 376.578C241.082 376.578 240.362 375.912 240.128 375.066C240.02 374.796 239.948 374.256 239.948 373.374C239.948 372.528 240.02 372.042 240.146 371.7C240.416 370.854 241.082 370.188 242.126 370.188C243.17 370.188 243.854 370.854 244.034 371.7C244.124 372.06 244.16 372.294 244.16 373.374C244.16 374.472 244.124 374.724 244.052 375.066ZM253.753 369.108V374.616C253.753 375.84 252.979 376.632 251.773 376.632C250.567 376.632 249.883 375.84 249.883 374.616V369.108C249.883 368.946 249.775 368.838 249.613 368.838H248.443C248.281 368.838 248.173 368.946 248.173 369.108V375.156C248.173 377.136 249.739 378.126 251.449 378.126C252.457 378.126 253.177 377.784 253.645 377.154C253.699 377.1 253.753 377.118 253.753 377.19V377.73C253.753 377.892 253.861 378 254.023 378H255.193C255.355 378 255.463 377.892 255.463 377.73V369.108C255.463 368.946 255.355 368.838 255.193 368.838H254.023C253.861 368.838 253.753 368.946 253.753 369.108ZM261.351 368.694C259.371 368.694 257.949 369.684 257.733 371.034C257.715 371.16 257.823 371.25 257.985 371.268L259.281 371.43C259.443 371.448 259.533 371.376 259.587 371.214C259.767 370.584 260.379 370.188 261.387 370.188C262.665 370.188 263.241 370.836 263.241 371.862V372.33C263.241 372.384 263.205 372.42 263.151 372.42H261.153C258.777 372.42 257.427 373.572 257.427 375.426C257.427 377.352 258.813 378.144 260.433 378.144C261.513 378.144 262.467 377.802 263.133 377.172C263.187 377.118 263.241 377.154 263.241 377.226V377.73C263.241 377.892 263.349 378 263.511 378H264.699C264.861 378 264.969 377.892 264.969 377.73V371.736C264.969 369.972 263.601 368.694 261.351 368.694ZM260.865 376.686C259.911 376.686 259.155 376.254 259.155 375.336C259.155 374.328 260.073 373.77 261.477 373.77H263.151C263.205 373.77 263.241 373.806 263.241 373.86V374.904C263.241 375.966 262.107 376.686 260.865 376.686ZM272.917 369.108V369.54C272.917 369.612 272.863 369.648 272.809 369.576C272.287 369.018 271.531 368.694 270.505 368.694C268.885 368.694 267.679 369.684 267.229 371.088C267.013 371.736 266.959 372.51 266.959 373.392C266.959 374.22 267.013 374.976 267.193 375.588C267.697 377.262 269.173 378 270.613 378C271.639 378 272.341 377.658 272.809 377.136C272.863 377.082 272.917 377.1 272.917 377.172V377.478C272.917 379.494 271.855 380.106 269.389 379.944C269.209 379.926 269.083 380.034 269.083 380.196L269.047 381.258C269.047 381.42 269.119 381.546 269.299 381.546C272.143 381.762 274.645 380.952 274.645 377.532V369.108C274.645 368.946 274.537 368.838 274.375 368.838H273.187C273.025 368.838 272.917 368.946 272.917 369.108ZM272.809 375.066C272.629 375.894 271.981 376.578 270.883 376.578C269.839 376.578 269.119 375.912 268.885 375.066C268.777 374.796 268.705 374.256 268.705 373.374C268.705 372.528 268.777 372.042 268.903 371.7C269.173 370.854 269.839 370.188 270.883 370.188C271.927 370.188 272.611 370.854 272.791 371.7C272.881 372.06 272.917 372.294 272.917 373.374C272.917 374.472 272.881 374.724 272.809 375.066ZM280.909 376.668C279.721 376.668 278.893 376.056 278.641 375.12C278.569 374.904 278.533 374.58 278.515 374.148C278.515 374.094 278.551 374.058 278.605 374.058H284.293C284.455 374.058 284.563 373.968 284.563 373.788C284.545 373.176 284.509 372.654 284.437 372.168C284.095 370.008 283.015 368.694 280.657 368.694C278.785 368.694 277.435 369.738 277.003 371.376C276.841 371.934 276.805 372.546 276.805 373.374C276.805 374.364 276.967 375.246 277.255 375.948C277.849 377.334 279.019 378.144 280.747 378.144C282.385 378.144 283.573 377.388 284.203 376.254C284.275 376.092 284.239 375.966 284.095 375.876L283.357 375.426C283.195 375.318 283.087 375.372 282.997 375.534C282.601 376.236 281.899 376.65 280.909 376.668ZM280.657 370.188C281.737 370.188 282.457 370.818 282.691 371.736C282.745 371.934 282.781 372.258 282.799 372.618C282.799 372.672 282.763 372.708 282.709 372.708H278.623C278.569 372.708 278.533 372.672 278.533 372.618C278.551 372.222 278.605 371.88 278.695 371.61C278.929 370.764 279.577 370.188 280.657 370.188ZM293.568 378.108C295.71 378.108 297.114 377.082 297.114 375.444C297.114 373.554 295.26 373.032 293.712 372.618C292.56 372.294 291.696 372.024 291.696 371.25C291.696 370.53 292.434 370.116 293.478 370.116C294.684 370.116 295.386 370.674 295.386 371.34V371.448C295.386 371.52 295.494 371.574 295.656 371.574H296.736C296.898 371.574 297.006 371.484 297.006 371.34C297.006 369.846 295.62 368.748 293.496 368.748C291.444 368.748 290.04 369.738 290.04 371.376C290.04 373.23 291.822 373.788 293.406 374.22C294.486 374.526 295.386 374.778 295.386 375.552C295.386 376.254 294.666 376.794 293.55 376.794C292.416 376.794 291.624 376.182 291.624 375.534V375.39C291.624 375.318 291.516 375.264 291.354 375.264H290.238C290.076 375.264 289.968 375.372 289.968 375.534V375.642C289.968 377.01 291.39 378.108 293.568 378.108ZM303.635 369.99V369.108C303.635 368.946 303.527 368.838 303.365 368.838H301.529C301.475 368.838 301.439 368.802 301.439 368.748V366.732C301.439 366.57 301.331 366.462 301.169 366.462H300.053C299.891 366.462 299.783 366.57 299.783 366.732V368.748C299.783 368.802 299.747 368.838 299.693 368.838H298.703C298.541 368.838 298.433 368.946 298.433 369.108V369.99C298.433 370.152 298.541 370.26 298.703 370.26H299.693C299.747 370.26 299.783 370.296 299.783 370.35V375.678C299.783 377.568 300.863 377.982 302.537 377.982C302.789 377.982 303.023 377.964 303.275 377.964C303.455 377.946 303.545 377.838 303.545 377.676V376.74C303.545 376.578 303.437 376.47 303.275 376.47H302.843C301.889 376.47 301.439 376.092 301.439 375.048V370.35C301.439 370.296 301.475 370.26 301.529 370.26H303.365C303.527 370.26 303.635 370.152 303.635 369.99ZM309.403 376.668C308.215 376.668 307.387 376.056 307.135 375.12C307.063 374.904 307.027 374.58 307.009 374.148C307.009 374.094 307.045 374.058 307.099 374.058H312.787C312.949 374.058 313.057 373.968 313.057 373.788C313.039 373.176 313.003 372.654 312.931 372.168C312.589 370.008 311.509 368.694 309.151 368.694C307.279 368.694 305.929 369.738 305.497 371.376C305.335 371.934 305.299 372.546 305.299 373.374C305.299 374.364 305.461 375.246 305.749 375.948C306.343 377.334 307.513 378.144 309.241 378.144C310.879 378.144 312.067 377.388 312.697 376.254C312.769 376.092 312.733 375.966 312.589 375.876L311.851 375.426C311.689 375.318 311.581 375.372 311.491 375.534C311.095 376.236 310.393 376.65 309.403 376.668ZM309.151 370.188C310.231 370.188 310.951 370.818 311.185 371.736C311.239 371.934 311.275 372.258 311.293 372.618C311.293 372.672 311.257 372.708 311.203 372.708H307.117C307.063 372.708 307.027 372.672 307.027 372.618C307.045 372.222 307.099 371.88 307.189 371.61C307.423 370.764 308.071 370.188 309.151 370.188ZM319.089 376.668C317.901 376.668 317.073 376.056 316.821 375.12C316.749 374.904 316.713 374.58 316.695 374.148C316.695 374.094 316.731 374.058 316.785 374.058H322.473C322.635 374.058 322.743 373.968 322.743 373.788C322.725 373.176 322.689 372.654 322.617 372.168C322.275 370.008 321.195 368.694 318.837 368.694C316.965 368.694 315.615 369.738 315.183 371.376C315.021 371.934 314.985 372.546 314.985 373.374C314.985 374.364 315.147 375.246 315.435 375.948C316.029 377.334 317.199 378.144 318.927 378.144C320.565 378.144 321.753 377.388 322.383 376.254C322.455 376.092 322.419 375.966 322.275 375.876L321.537 375.426C321.375 375.318 321.267 375.372 321.177 375.534C320.781 376.236 320.079 376.65 319.089 376.668ZM318.837 370.188C319.917 370.188 320.637 370.818 320.871 371.736C320.925 371.934 320.961 372.258 320.979 372.618C320.979 372.672 320.943 372.708 320.889 372.708H316.803C316.749 372.708 316.713 372.672 316.713 372.618C316.731 372.222 316.785 371.88 316.875 371.61C317.109 370.764 317.757 370.188 318.837 370.188ZM325.21 378H326.398C326.56 378 326.668 377.892 326.668 377.73V365.67C326.668 365.508 326.56 365.4 326.398 365.4H325.21C325.048 365.4 324.94 365.508 324.94 365.67V377.73C324.94 377.892 325.048 378 325.21 378ZM340.249 371.142C339.745 369.63 338.611 368.694 336.847 368.694C336.019 368.694 335.281 369.018 334.759 369.63C334.705 369.684 334.651 369.648 334.651 369.576V369.108C334.651 368.946 334.543 368.838 334.381 368.838H333.193C333.031 368.838 332.923 368.946 332.923 369.108V381.168C332.923 381.33 333.031 381.438 333.193 381.438H334.381C334.543 381.438 334.651 381.33 334.651 381.168V377.262C334.651 377.19 334.705 377.172 334.759 377.226C335.281 377.82 336.019 378.144 336.847 378.144C338.665 378.144 339.817 377.172 340.303 375.624C340.501 374.994 340.573 374.256 340.573 373.446C340.573 372.564 340.483 371.79 340.249 371.142ZM338.269 375.786C337.909 376.344 337.369 376.65 336.667 376.65C335.983 376.65 335.479 376.326 335.137 375.732C334.831 375.192 334.669 374.454 334.669 373.428C334.669 372.438 334.813 371.682 335.101 371.16C335.443 370.548 335.965 370.188 336.667 370.188C337.459 370.188 338.053 370.53 338.395 371.178C338.683 371.718 338.845 372.438 338.845 373.41C338.845 374.472 338.629 375.228 338.269 375.786ZM343.034 378H344.222C344.384 378 344.492 377.892 344.492 377.73V365.67C344.492 365.508 344.384 365.4 344.222 365.4H343.034C342.872 365.4 342.764 365.508 342.764 365.67V377.73C342.764 377.892 342.872 378 343.034 378ZM350.401 368.694C348.421 368.694 346.999 369.684 346.783 371.034C346.765 371.16 346.873 371.25 347.035 371.268L348.331 371.43C348.493 371.448 348.583 371.376 348.637 371.214C348.817 370.584 349.429 370.188 350.437 370.188C351.715 370.188 352.291 370.836 352.291 371.862V372.33C352.291 372.384 352.255 372.42 352.201 372.42H350.203C347.827 372.42 346.477 373.572 346.477 375.426C346.477 377.352 347.863 378.144 349.483 378.144C350.563 378.144 351.517 377.802 352.183 377.172C352.237 377.118 352.291 377.154 352.291 377.226V377.73C352.291 377.892 352.399 378 352.561 378H353.749C353.911 378 354.019 377.892 354.019 377.73V371.736C354.019 369.972 352.651 368.694 350.401 368.694ZM349.915 376.686C348.961 376.686 348.205 376.254 348.205 375.336C348.205 374.328 349.123 373.77 350.527 373.77H352.201C352.255 373.77 352.291 373.806 352.291 373.86V374.904C352.291 375.966 351.157 376.686 349.915 376.686ZM360.729 369.99V369.108C360.729 368.946 360.621 368.838 360.459 368.838H358.623C358.569 368.838 358.533 368.802 358.533 368.748V366.732C358.533 366.57 358.425 366.462 358.263 366.462H357.147C356.985 366.462 356.877 366.57 356.877 366.732V368.748C356.877 368.802 356.841 368.838 356.787 368.838H355.797C355.635 368.838 355.527 368.946 355.527 369.108V369.99C355.527 370.152 355.635 370.26 355.797 370.26H356.787C356.841 370.26 356.877 370.296 356.877 370.35V375.678C356.877 377.568 357.957 377.982 359.631 377.982C359.883 377.982 360.117 377.964 360.369 377.964C360.549 377.946 360.639 377.838 360.639 377.676V376.74C360.639 376.578 360.531 376.47 360.369 376.47H359.937C358.983 376.47 358.533 376.092 358.533 375.048V370.35C358.533 370.296 358.569 370.26 358.623 370.26H360.459C360.621 370.26 360.729 370.152 360.729 369.99ZM366.497 376.668C365.309 376.668 364.481 376.056 364.229 375.12C364.157 374.904 364.121 374.58 364.103 374.148C364.103 374.094 364.139 374.058 364.193 374.058H369.881C370.043 374.058 370.151 373.968 370.151 373.788C370.133 373.176 370.097 372.654 370.025 372.168C369.683 370.008 368.603 368.694 366.245 368.694C364.373 368.694 363.023 369.738 362.591 371.376C362.429 371.934 362.393 372.546 362.393 373.374C362.393 374.364 362.555 375.246 362.843 375.948C363.437 377.334 364.607 378.144 366.335 378.144C367.973 378.144 369.161 377.388 369.791 376.254C369.863 376.092 369.827 375.966 369.683 375.876L368.945 375.426C368.783 375.318 368.675 375.372 368.585 375.534C368.189 376.236 367.487 376.65 366.497 376.668ZM366.245 370.188C367.325 370.188 368.045 370.818 368.279 371.736C368.333 371.934 368.369 372.258 368.387 372.618C368.387 372.672 368.351 372.708 368.297 372.708H364.211C364.157 372.708 364.121 372.672 364.121 372.618C364.139 372.222 364.193 371.88 364.283 371.61C364.517 370.764 365.165 370.188 366.245 370.188Z" fill="#777777"/>
<path d="M438.844 365.472L437.008 366.372C436.882 366.444 436.81 366.534 436.81 366.678V367.506C436.81 367.704 436.936 367.794 437.116 367.722L438.898 367.11C438.952 367.092 439.006 367.128 439.006 367.182V377.73C439.006 377.892 439.114 378 439.276 378H440.464C440.626 378 440.734 377.892 440.734 377.73V365.67C440.734 365.508 440.626 365.4 440.464 365.4H439.186C439.06 365.4 438.952 365.418 438.844 365.472Z" fill="#777777"/>
<path d="M538.844 365.472L537.008 366.372C536.882 366.444 536.81 366.534 536.81 366.678V367.506C536.81 367.704 536.936 367.794 537.116 367.722L538.898 367.11C538.952 367.092 539.006 367.128 539.006 367.182V377.73C539.006 377.892 539.114 378 539.276 378H540.464C540.626 378 540.734 377.892 540.734 377.73V365.67C540.734 365.508 540.626 365.4 540.464 365.4H539.186C539.06 365.4 538.952 365.418 538.844 365.472ZM545.084 365.472L543.248 366.372C543.122 366.444 543.05 366.534 543.05 366.678V367.506C543.05 367.704 543.176 367.794 543.356 367.722L545.138 367.11C545.192 367.092 545.246 367.128 545.246 367.182V377.73C545.246 377.892 545.354 378 545.516 378H546.704C546.866 378 546.974 377.892 546.974 377.73V365.67C546.974 365.508 546.866 365.4 546.704 365.4H545.426C545.3 365.4 545.192 365.418 545.084 365.472ZM549.724 379.548H550.39C550.552 379.548 550.642 379.458 550.678 379.314L551.704 375.498C551.758 375.3 551.65 375.192 551.47 375.192H550.462C550.3 375.192 550.21 375.282 550.174 375.444L549.472 379.26C549.436 379.458 549.544 379.548 549.724 379.548ZM557.67 378.18C560.1 378.18 561.666 376.704 561.666 374.364V369.036C561.666 366.714 560.1 365.238 557.67 365.238C555.258 365.238 553.71 366.714 553.71 369.036V374.364C553.71 376.704 555.258 378.18 557.67 378.18ZM557.67 376.686C556.32 376.686 555.438 375.822 555.438 374.472V368.964C555.438 367.614 556.32 366.75 557.67 366.75C559.056 366.75 559.938 367.614 559.938 368.964V374.472C559.938 375.822 559.056 376.686 557.67 376.686ZM567.865 378.18C570.295 378.18 571.861 376.704 571.861 374.364V369.036C571.861 366.714 570.295 365.238 567.865 365.238C565.453 365.238 563.905 366.714 563.905 369.036V374.364C563.905 376.704 565.453 378.18 567.865 378.18ZM567.865 376.686C566.515 376.686 565.633 375.822 565.633 374.472V368.964C565.633 367.614 566.515 366.75 567.865 366.75C569.251 366.75 570.133 367.614 570.133 368.964V374.472C570.133 375.822 569.251 376.686 567.865 376.686ZM578.06 378.18C580.49 378.18 582.056 376.704 582.056 374.364V369.036C582.056 366.714 580.49 365.238 578.06 365.238C575.648 365.238 574.1 366.714 574.1 369.036V374.364C574.1 376.704 575.648 378.18 578.06 378.18ZM578.06 376.686C576.71 376.686 575.828 375.822 575.828 374.472V368.964C575.828 367.614 576.71 366.75 578.06 366.75C579.446 366.75 580.328 367.614 580.328 368.964V374.472C580.328 375.822 579.446 376.686 578.06 376.686Z" fill="#777777"/>
<path d="M670.982 373.67C670.982 372.014 670.046 370.934 667.994 370.016C666.158 369.188 664.736 368.882 664.736 367.532C664.736 366.398 665.51 365.75 666.842 365.75C668.426 365.75 669.2 366.704 669.2 367.928V368.144C669.2 368.288 669.308 368.378 669.47 368.378H670.622C670.784 368.378 670.892 368.27 670.892 368.108V367.586C670.892 365.714 669.668 364.454 667.454 364.274C667.4 364.274 667.364 364.256 667.364 364.184L667.382 363.122C667.382 362.96 667.274 362.852 667.112 362.852H666.5C666.338 362.852 666.23 362.96 666.23 363.122L666.248 364.202C666.248 364.274 666.212 364.292 666.158 364.31C664.142 364.544 663.026 365.732 663.026 367.604C663.026 369.242 663.926 370.016 665.42 370.808C667.436 371.96 669.254 372.392 669.254 373.76C669.254 374.822 668.534 375.65 667.058 375.65C665.492 375.65 664.646 374.732 664.646 373.544V373.202C664.646 373.04 664.538 372.932 664.376 372.932H663.224C663.062 372.932 662.954 373.04 662.954 373.202V373.922C662.954 375.668 664.16 376.874 666.212 377.108C666.266 377.108 666.302 377.126 666.302 377.198L666.284 378.152C666.284 378.314 666.392 378.422 666.554 378.422H667.184C667.346 378.422 667.454 378.314 667.454 378.152L667.436 377.216C667.436 377.144 667.472 377.126 667.526 377.126C669.776 376.928 670.982 375.596 670.982 373.67ZM674.705 364.472L672.869 365.372C672.743 365.444 672.671 365.534 672.671 365.678V366.506C672.671 366.704 672.797 366.794 672.977 366.722L674.759 366.11C674.813 366.092 674.867 366.128 674.867 366.182V376.73C674.867 376.892 674.975 377 675.137 377H676.325C676.487 377 676.595 376.892 676.595 376.73V364.67C676.595 364.508 676.487 364.4 676.325 364.4H675.047C674.921 364.4 674.813 364.418 674.705 364.472ZM680.946 364.472L679.11 365.372C678.984 365.444 678.912 365.534 678.912 365.678V366.506C678.912 366.704 679.038 366.794 679.218 366.722L681 366.11C681.054 366.092 681.108 366.128 681.108 366.182V376.73C681.108 376.892 681.216 377 681.378 377H682.566C682.728 377 682.836 376.892 682.836 376.73V364.67C682.836 364.508 682.728 364.4 682.566 364.4H681.288C681.162 364.4 681.054 364.418 680.946 364.472ZM685.585 378.548H686.251C686.413 378.548 686.503 378.458 686.539 378.314L687.565 374.498C687.619 374.3 687.511 374.192 687.331 374.192H686.323C686.161 374.192 686.071 374.282 686.035 374.444L685.333 378.26C685.297 378.458 685.405 378.548 685.585 378.548ZM693.531 377.18C695.961 377.18 697.527 375.704 697.527 373.364V368.036C697.527 365.714 695.961 364.238 693.531 364.238C691.119 364.238 689.571 365.714 689.571 368.036V373.364C689.571 375.704 691.119 377.18 693.531 377.18ZM693.531 375.686C692.181 375.686 691.299 374.822 691.299 373.472V367.964C691.299 366.614 692.181 365.75 693.531 365.75C694.917 365.75 695.799 366.614 695.799 367.964V373.472C695.799 374.822 694.917 375.686 693.531 375.686ZM703.726 377.18C706.156 377.18 707.722 375.704 707.722 373.364V368.036C707.722 365.714 706.156 364.238 703.726 364.238C701.314 364.238 699.766 365.714 699.766 368.036V373.364C699.766 375.704 701.314 377.18 703.726 377.18ZM703.726 375.686C702.376 375.686 701.494 374.822 701.494 373.472V367.964C701.494 366.614 702.376 365.75 703.726 365.75C705.112 365.75 705.994 366.614 705.994 367.964V373.472C705.994 374.822 705.112 375.686 703.726 375.686ZM713.922 377.18C716.352 377.18 717.918 375.704 717.918 373.364V368.036C717.918 365.714 716.352 364.238 713.922 364.238C711.51 364.238 709.962 365.714 709.962 368.036V373.364C709.962 375.704 711.51 377.18 713.922 377.18ZM713.922 375.686C712.572 375.686 711.69 374.822 711.69 373.472V367.964C711.69 366.614 712.572 365.75 713.922 365.75C715.308 365.75 716.19 366.614 716.19 367.964V373.472C716.19 374.822 715.308 375.686 713.922 375.686Z" fill="#777777"/>
<path d="M145 380H131C129.895 380 129 379.105 129 378V364C129 362.895 129.895 362 131 362H145C146.105 362 147 362.895 147 364V378C147 379.105 146.105 380 145 380Z" stroke="#DBDBDB" stroke-width="1.5" stroke-linecap="round" stroke-linejoin="round"/>
<path d="M290.478 474.67V479.818C290.478 479.872 290.442 479.908 290.388 479.908H285.294C285.24 479.908 285.204 479.872 285.204 479.818V474.67C285.204 474.508 285.096 474.4 284.934 474.4H283.746C283.584 474.4 283.476 474.508 283.476 474.67V486.73C283.476 486.892 283.584 487 283.746 487H284.934C285.096 487 285.204 486.892 285.204 486.73V481.492C285.204 481.438 285.24 481.402 285.294 481.402H290.388C290.442 481.402 290.478 481.438 290.478 481.492V486.73C290.478 486.892 290.586 487 290.748 487H291.936C292.098 487 292.206 486.892 292.206 486.73V474.67C292.206 474.508 292.098 474.4 291.936 474.4H290.748C290.586 474.4 290.478 474.508 290.478 474.67ZM298.624 487.144C300.37 487.144 301.738 486.19 302.278 484.588C302.494 483.958 302.602 483.148 302.602 482.374C302.602 481.618 302.494 480.826 302.278 480.214C301.738 478.648 300.388 477.694 298.642 477.694C296.806 477.694 295.42 478.648 294.898 480.232C294.7 480.808 294.592 481.6 294.592 482.392C294.592 483.184 294.718 483.994 294.916 484.588C295.438 486.19 296.824 487.144 298.624 487.144ZM298.624 485.65C297.598 485.65 296.824 485.074 296.536 484.102C296.41 483.688 296.338 483.058 296.338 482.41C296.338 481.744 296.41 481.132 296.536 480.736C296.842 479.764 297.598 479.188 298.588 479.188C299.614 479.188 300.37 479.764 300.676 480.736C300.784 481.132 300.856 481.744 300.856 482.41C300.856 483.022 300.784 483.67 300.658 484.102C300.352 485.074 299.596 485.65 298.624 485.65ZM306.53 487H307.808C307.97 487 308.06 486.91 308.096 486.766L309.734 480.808C309.752 480.736 309.824 480.736 309.842 480.808L311.57 486.766C311.606 486.928 311.732 487 311.876 487H313.136C313.28 487 313.406 486.91 313.442 486.766L315.998 478.162C316.052 477.964 315.944 477.856 315.764 477.856L314.54 477.838C314.378 477.838 314.288 477.928 314.252 478.072L312.506 484.516C312.488 484.588 312.416 484.588 312.398 484.516L310.634 478.09C310.598 477.946 310.508 477.856 310.346 477.856H309.23C309.068 477.856 308.978 477.946 308.942 478.09L307.232 484.498C307.214 484.57 307.142 484.57 307.124 484.498L305.45 478.072C305.414 477.928 305.324 477.838 305.162 477.838H303.938C303.758 477.838 303.65 477.946 303.704 478.144L306.224 486.766C306.26 486.928 306.386 487 306.53 487ZM326.985 474.67V478.576C326.985 478.648 326.931 478.666 326.877 478.612C326.355 478.018 325.617 477.694 324.789 477.694C322.971 477.694 321.819 478.666 321.333 480.214C321.135 480.844 321.063 481.582 321.063 482.392C321.063 483.274 321.153 484.048 321.387 484.696C321.891 486.208 323.025 487.144 324.789 487.144C325.617 487.144 326.355 486.82 326.877 486.208C326.931 486.154 326.985 486.19 326.985 486.262V486.73C326.985 486.892 327.093 487 327.255 487H328.443C328.605 487 328.713 486.892 328.713 486.73V474.67C328.713 474.508 328.605 474.4 328.443 474.4H327.255C327.093 474.4 326.985 474.508 326.985 474.67ZM326.535 484.678C326.193 485.29 325.671 485.65 324.969 485.65C324.177 485.65 323.583 485.308 323.241 484.66C322.953 484.12 322.791 483.4 322.791 482.428C322.791 481.366 323.007 480.61 323.367 480.052C323.727 479.494 324.267 479.188 324.969 479.188C325.653 479.188 326.157 479.512 326.499 480.106C326.805 480.646 326.967 481.384 326.967 482.41C326.967 483.4 326.823 484.156 326.535 484.678ZM335.01 487.144C336.756 487.144 338.124 486.19 338.664 484.588C338.88 483.958 338.988 483.148 338.988 482.374C338.988 481.618 338.88 480.826 338.664 480.214C338.124 478.648 336.774 477.694 335.028 477.694C333.192 477.694 331.806 478.648 331.284 480.232C331.086 480.808 330.978 481.6 330.978 482.392C330.978 483.184 331.104 483.994 331.302 484.588C331.824 486.19 333.21 487.144 335.01 487.144ZM335.01 485.65C333.984 485.65 333.21 485.074 332.922 484.102C332.796 483.688 332.724 483.058 332.724 482.41C332.724 481.744 332.796 481.132 332.922 480.736C333.228 479.764 333.984 479.188 334.974 479.188C336 479.188 336.756 479.764 337.062 480.736C337.17 481.132 337.242 481.744 337.242 482.41C337.242 483.022 337.17 483.67 337.044 484.102C336.738 485.074 335.982 485.65 335.01 485.65ZM344.566 490.6H344.692C347.068 490.6 347.68 489.97 348.472 487.63L351.694 478.144C351.748 477.964 351.676 477.838 351.478 477.838H350.218C350.074 477.838 349.948 477.928 349.912 478.072L347.95 484.534C347.932 484.624 347.86 484.624 347.842 484.534L345.808 478.054C345.754 477.892 345.646 477.838 345.502 477.838H344.242C344.044 477.838 343.972 477.964 344.026 478.144L346.996 486.946C347.014 487 347.014 487.018 346.996 487.054C346.492 488.782 346.042 489.142 344.656 489.142H344.548C344.476 489.142 344.44 489.25 344.44 489.412V490.33C344.44 490.492 344.494 490.6 344.566 490.6ZM356.754 487.144C358.5 487.144 359.868 486.19 360.408 484.588C360.624 483.958 360.732 483.148 360.732 482.374C360.732 481.618 360.624 480.826 360.408 480.214C359.868 478.648 358.518 477.694 356.772 477.694C354.936 477.694 353.55 478.648 353.028 480.232C352.83 480.808 352.722 481.6 352.722 482.392C352.722 483.184 352.848 483.994 353.046 484.588C353.568 486.19 354.954 487.144 356.754 487.144ZM356.754 485.65C355.728 485.65 354.954 485.074 354.666 484.102C354.54 483.688 354.468 483.058 354.468 482.41C354.468 481.744 354.54 481.132 354.666 480.736C354.972 479.764 355.728 479.188 356.718 479.188C357.744 479.188 358.5 479.764 358.806 480.736C358.914 481.132 358.986 481.744 358.986 482.41C358.986 483.022 358.914 483.67 358.788 484.102C358.482 485.074 357.726 485.65 356.754 485.65ZM368.431 478.108V483.616C368.431 484.84 367.657 485.632 366.451 485.632C365.245 485.632 364.561 484.84 364.561 483.616V478.108C364.561 477.946 364.453 477.838 364.291 477.838H363.121C362.959 477.838 362.851 477.946 362.851 478.108V484.156C362.851 486.136 364.417 487.126 366.127 487.126C367.135 487.126 367.855 486.784 368.323 486.154C368.377 486.1 368.431 486.118 368.431 486.19V486.73C368.431 486.892 368.539 487 368.701 487H369.871C370.033 487 370.141 486.892 370.141 486.73V478.108C370.141 477.946 370.033 477.838 369.871 477.838H368.701C368.539 477.838 368.431 477.946 368.431 478.108ZM378.372 487H379.65C379.812 487 379.902 486.91 379.938 486.766L381.576 480.808C381.594 480.736 381.666 480.736 381.684 480.808L383.412 486.766C383.448 486.928 383.574 487 383.718 487H384.978C385.122 487 385.248 486.91 385.284 486.766L387.84 478.162C387.894 477.964 387.786 477.856 387.606 477.856L386.382 477.838C386.22 477.838 386.13 477.928 386.094 478.072L384.348 484.516C384.33 484.588 384.258 484.588 384.24 484.516L382.476 478.09C382.44 477.946 382.35 477.856 382.188 477.856H381.072C380.91 477.856 380.82 477.946 380.784 478.09L379.074 484.498C379.056 484.57 378.984 484.57 378.966 484.498L377.292 478.072C377.256 477.928 377.166 477.838 377.004 477.838H375.78C375.6 477.838 375.492 477.946 375.546 478.144L378.066 486.766C378.102 486.928 378.228 487 378.372 487ZM392.71 477.694C390.73 477.694 389.308 478.684 389.092 480.034C389.074 480.16 389.182 480.25 389.344 480.268L390.64 480.43C390.802 480.448 390.892 480.376 390.946 480.214C391.126 479.584 391.738 479.188 392.746 479.188C394.024 479.188 394.6 479.836 394.6 480.862V481.33C394.6 481.384 394.564 481.42 394.51 481.42H392.512C390.136 481.42 388.786 482.572 388.786 484.426C388.786 486.352 390.172 487.144 391.792 487.144C392.872 487.144 393.826 486.802 394.492 486.172C394.546 486.118 394.6 486.154 394.6 486.226V486.73C394.6 486.892 394.708 487 394.87 487H396.058C396.22 487 396.328 486.892 396.328 486.73V480.736C396.328 478.972 394.96 477.694 392.71 477.694ZM392.224 485.686C391.27 485.686 390.514 485.254 390.514 484.336C390.514 483.328 391.432 482.77 392.836 482.77H394.51C394.564 482.77 394.6 482.806 394.6 482.86V483.904C394.6 484.966 393.466 485.686 392.224 485.686ZM402.729 477.712C401.757 477.712 400.983 478 400.461 478.666C400.425 478.72 400.371 478.684 400.371 478.612V478.108C400.371 477.946 400.263 477.838 400.101 477.838H398.913C398.751 477.838 398.643 477.946 398.643 478.108V486.73C398.643 486.892 398.751 487 398.913 487H400.101C400.263 487 400.371 486.892 400.371 486.73V480.898C400.497 479.872 401.253 479.206 402.297 479.206C403.449 479.206 404.205 480.034 404.205 481.222V486.73C404.205 486.892 404.313 487 404.475 487H405.663C405.825 487 405.933 486.892 405.933 486.73V480.88C405.933 478.936 404.691 477.712 402.729 477.712ZM412.917 478.99V478.108C412.917 477.946 412.809 477.838 412.647 477.838H410.811C410.757 477.838 410.721 477.802 410.721 477.748V475.732C410.721 475.57 410.613 475.462 410.451 475.462H409.335C409.173 475.462 409.065 475.57 409.065 475.732V477.748C409.065 477.802 409.029 477.838 408.975 477.838H407.985C407.823 477.838 407.715 477.946 407.715 478.108V478.99C407.715 479.152 407.823 479.26 407.985 479.26H408.975C409.029 479.26 409.065 479.296 409.065 479.35V484.678C409.065 486.568 410.145 486.982 411.819 486.982C412.071 486.982 412.305 486.964 412.557 486.964C412.737 486.946 412.827 486.838 412.827 486.676V485.74C412.827 485.578 412.719 485.47 412.557 485.47H412.125C411.171 485.47 410.721 485.092 410.721 484.048V479.35C410.721 479.296 410.757 479.26 410.811 479.26H412.647C412.809 479.26 412.917 479.152 412.917 478.99ZM423.165 478.99V478.108C423.165 477.946 423.057 477.838 422.895 477.838H421.059C421.005 477.838 420.969 477.802 420.969 477.748V475.732C420.969 475.57 420.861 475.462 420.699 475.462H419.583C419.421 475.462 419.313 475.57 419.313 475.732V477.748C419.313 477.802 419.277 477.838 419.223 477.838H418.233C418.071 477.838 417.963 477.946 417.963 478.108V478.99C417.963 479.152 418.071 479.26 418.233 479.26H419.223C419.277 479.26 419.313 479.296 419.313 479.35V484.678C419.313 486.568 420.393 486.982 422.067 486.982C422.319 486.982 422.553 486.964 422.805 486.964C422.985 486.946 423.075 486.838 423.075 486.676V485.74C423.075 485.578 422.967 485.47 422.805 485.47H422.373C421.419 485.47 420.969 485.092 420.969 484.048V479.35C420.969 479.296 421.005 479.26 421.059 479.26H422.895C423.057 479.26 423.165 479.152 423.165 478.99ZM428.842 487.144C430.588 487.144 431.956 486.19 432.496 484.588C432.712 483.958 432.82 483.148 432.82 482.374C432.82 481.618 432.712 480.826 432.496 480.214C431.956 478.648 430.606 477.694 428.86 477.694C427.024 477.694 425.638 478.648 425.116 480.232C424.918 480.808 424.81 481.6 424.81 482.392C424.81 483.184 424.936 483.994 425.134 484.588C425.656 486.19 427.042 487.144 428.842 487.144ZM428.842 485.65C427.816 485.65 427.042 485.074 426.754 484.102C426.628 483.688 426.556 483.058 426.556 482.41C426.556 481.744 426.628 481.132 426.754 480.736C427.06 479.764 427.816 479.188 428.806 479.188C429.832 479.188 430.588 479.764 430.894 480.736C431.002 481.132 431.074 481.744 431.074 482.41C431.074 483.022 431.002 483.67 430.876 484.102C430.57 485.074 429.814 485.65 428.842 485.65ZM441.89 487.108C444.032 487.108 445.436 486.082 445.436 484.444C445.436 482.554 443.582 482.032 442.034 481.618C440.882 481.294 440.018 481.024 440.018 480.25C440.018 479.53 440.756 479.116 441.8 479.116C443.006 479.116 443.708 479.674 443.708 480.34V480.448C443.708 480.52 443.816 480.574 443.978 480.574H445.058C445.22 480.574 445.328 480.484 445.328 480.34C445.328 478.846 443.942 477.748 441.818 477.748C439.766 477.748 438.362 478.738 438.362 480.376C438.362 482.23 440.144 482.788 441.728 483.22C442.808 483.526 443.708 483.778 443.708 484.552C443.708 485.254 442.988 485.794 441.872 485.794C440.738 485.794 439.946 485.182 439.946 484.534V484.39C439.946 484.318 439.838 484.264 439.676 484.264H438.56C438.398 484.264 438.29 484.372 438.29 484.534V484.642C438.29 486.01 439.712 487.108 441.89 487.108ZM450.823 477.694C448.843 477.694 447.421 478.684 447.205 480.034C447.187 480.16 447.295 480.25 447.457 480.268L448.753 480.43C448.915 480.448 449.005 480.376 449.059 480.214C449.239 479.584 449.851 479.188 450.859 479.188C452.137 479.188 452.713 479.836 452.713 480.862V481.33C452.713 481.384 452.677 481.42 452.623 481.42H450.625C448.249 481.42 446.899 482.572 446.899 484.426C446.899 486.352 448.285 487.144 449.905 487.144C450.985 487.144 451.939 486.802 452.605 486.172C452.659 486.118 452.713 486.154 452.713 486.226V486.73C452.713 486.892 452.821 487 452.983 487H454.171C454.333 487 454.441 486.892 454.441 486.73V480.736C454.441 478.972 453.073 477.694 450.823 477.694ZM450.337 485.686C449.383 485.686 448.627 485.254 448.627 484.336C448.627 483.328 449.545 482.77 450.949 482.77H452.623C452.677 482.77 452.713 482.806 452.713 482.86V483.904C452.713 484.966 451.579 485.686 450.337 485.686ZM459.082 487H460.45C460.594 487 460.702 486.946 460.756 486.784L463.618 478.162C463.672 477.982 463.6 477.856 463.402 477.856L462.07 477.838C461.926 477.838 461.8 477.928 461.764 478.072L459.82 484.498C459.802 484.588 459.73 484.606 459.712 484.516L457.75 478.072C457.714 477.928 457.588 477.838 457.444 477.838H456.112C455.914 477.838 455.842 477.964 455.896 478.144L458.776 486.784C458.83 486.946 458.938 487 459.082 487ZM468.887 485.668C467.699 485.668 466.871 485.056 466.619 484.12C466.547 483.904 466.511 483.58 466.493 483.148C466.493 483.094 466.529 483.058 466.583 483.058H472.271C472.433 483.058 472.541 482.968 472.541 482.788C472.523 482.176 472.487 481.654 472.415 481.168C472.073 479.008 470.993 477.694 468.635 477.694C466.763 477.694 465.413 478.738 464.981 480.376C464.819 480.934 464.783 481.546 464.783 482.374C464.783 483.364 464.945 484.246 465.233 484.948C465.827 486.334 466.997 487.144 468.725 487.144C470.363 487.144 471.551 486.388 472.181 485.254C472.253 485.092 472.217 484.966 472.073 484.876L471.335 484.426C471.173 484.318 471.065 484.372 470.975 484.534C470.579 485.236 469.877 485.65 468.887 485.668ZM468.635 479.188C469.715 479.188 470.435 479.818 470.669 480.736C470.723 480.934 470.759 481.258 470.777 481.618C470.777 481.672 470.741 481.708 470.687 481.708H466.601C466.547 481.708 466.511 481.672 466.511 481.618C466.529 481.222 466.583 480.88 466.673 480.61C466.907 479.764 467.555 479.188 468.635 479.188ZM482.842 478.99V478.108C482.842 477.946 482.734 477.838 482.572 477.838H480.736C480.682 477.838 480.646 477.802 480.646 477.748V475.732C480.646 475.57 480.538 475.462 480.376 475.462H479.26C479.098 475.462 478.99 475.57 478.99 475.732V477.748C478.99 477.802 478.954 477.838 478.9 477.838H477.91C477.748 477.838 477.64 477.946 477.64 478.108V478.99C477.64 479.152 477.748 479.26 477.91 479.26H478.9C478.954 479.26 478.99 479.296 478.99 479.35V484.678C478.99 486.568 480.07 486.982 481.744 486.982C481.996 486.982 482.23 486.964 482.482 486.964C482.662 486.946 482.752 486.838 482.752 486.676V485.74C482.752 485.578 482.644 485.47 482.482 485.47H482.05C481.096 485.47 480.646 485.092 480.646 484.048V479.35C480.646 479.296 480.682 479.26 480.736 479.26H482.572C482.734 479.26 482.842 479.152 482.842 478.99ZM489.055 477.712C488.083 477.712 487.309 478 486.787 478.666C486.751 478.72 486.697 478.684 486.697 478.612V474.67C486.697 474.508 486.589 474.4 486.427 474.4H485.239C485.077 474.4 484.969 474.508 484.969 474.67V486.73C484.969 486.892 485.077 487 485.239 487H486.427C486.589 487 486.697 486.892 486.697 486.73V480.898C486.823 479.872 487.579 479.206 488.623 479.206C489.775 479.206 490.531 480.034 490.531 481.222V486.73C490.531 486.892 490.639 487 490.801 487H491.989C492.151 487 492.259 486.892 492.259 486.73V480.88C492.259 478.936 491.017 477.712 489.055 477.712ZM495.733 476.47C496.435 476.47 496.903 476.002 496.903 475.336C496.903 474.67 496.435 474.202 495.733 474.202C495.031 474.202 494.545 474.67 494.545 475.336C494.545 476.002 495.031 476.47 495.733 476.47ZM495.139 487H496.327C496.489 487 496.597 486.892 496.597 486.73V478.108C496.597 477.946 496.489 477.838 496.327 477.838H495.139C494.977 477.838 494.869 477.946 494.869 478.108V486.73C494.869 486.892 494.977 487 495.139 487ZM502.464 487.108C504.606 487.108 506.01 486.082 506.01 484.444C506.01 482.554 504.156 482.032 502.608 481.618C501.456 481.294 500.592 481.024 500.592 480.25C500.592 479.53 501.33 479.116 502.374 479.116C503.58 479.116 504.282 479.674 504.282 480.34V480.448C504.282 480.52 504.39 480.574 504.552 480.574H505.632C505.794 480.574 505.902 480.484 505.902 480.34C505.902 478.846 504.516 477.748 502.392 477.748C500.34 477.748 498.936 478.738 498.936 480.376C498.936 482.23 500.718 482.788 502.302 483.22C503.382 483.526 504.282 483.778 504.282 484.552C504.282 485.254 503.562 485.794 502.446 485.794C501.312 485.794 500.52 485.182 500.52 484.534V484.39C500.52 484.318 500.412 484.264 500.25 484.264H499.134C498.972 484.264 498.864 484.372 498.864 484.534V484.642C498.864 486.01 500.286 487.108 502.464 487.108ZM515.649 477.748C514.659 477.748 513.939 478.234 513.453 478.972C513.417 479.044 513.363 479.026 513.363 478.936V478.108C513.363 477.946 513.255 477.838 513.093 477.838H511.905C511.743 477.838 511.635 477.946 511.635 478.108V486.73C511.635 486.892 511.743 487 511.905 487H513.093C513.255 487 513.363 486.892 513.363 486.73V481.564C513.363 480.358 514.209 479.584 515.307 479.548C515.649 479.512 515.973 479.548 516.189 479.62C516.369 479.674 516.477 479.656 516.513 479.458L516.765 478.288C516.801 478.144 516.765 478.018 516.621 477.946C516.387 477.838 516.081 477.748 515.649 477.748ZM522.026 485.668C520.838 485.668 520.01 485.056 519.758 484.12C519.686 483.904 519.65 483.58 519.632 483.148C519.632 483.094 519.668 483.058 519.722 483.058H525.41C525.572 483.058 525.68 482.968 525.68 482.788C525.662 482.176 525.626 481.654 525.554 481.168C525.212 479.008 524.132 477.694 521.774 477.694C519.902 477.694 518.552 478.738 518.12 480.376C517.958 480.934 517.922 481.546 517.922 482.374C517.922 483.364 518.084 484.246 518.372 484.948C518.966 486.334 520.136 487.144 521.864 487.144C523.502 487.144 524.69 486.388 525.32 485.254C525.392 485.092 525.356 484.966 525.212 484.876L524.474 484.426C524.312 484.318 524.204 484.372 524.114 484.534C523.718 485.236 523.016 485.65 522.026 485.668ZM521.774 479.188C522.854 479.188 523.574 479.818 523.808 480.736C523.862 480.934 523.898 481.258 523.916 481.618C523.916 481.672 523.88 481.708 523.826 481.708H519.74C519.686 481.708 519.65 481.672 519.65 481.618C519.668 481.222 519.722 480.88 519.812 480.61C520.046 479.764 520.694 479.188 521.774 479.188ZM535.294 480.142C534.79 478.63 533.656 477.694 531.892 477.694C531.064 477.694 530.326 478.018 529.804 478.63C529.75 478.684 529.696 478.648 529.696 478.576V478.108C529.696 477.946 529.588 477.838 529.426 477.838H528.238C528.076 477.838 527.968 477.946 527.968 478.108V490.168C527.968 490.33 528.076 490.438 528.238 490.438H529.426C529.588 490.438 529.696 490.33 529.696 490.168V486.262C529.696 486.19 529.75 486.172 529.804 486.226C530.326 486.82 531.064 487.144 531.892 487.144C533.71 487.144 534.862 486.172 535.348 484.624C535.546 483.994 535.618 483.256 535.618 482.446C535.618 481.564 535.528 480.79 535.294 480.142ZM533.314 484.786C532.954 485.344 532.414 485.65 531.712 485.65C531.028 485.65 530.524 485.326 530.182 484.732C529.876 484.192 529.714 483.454 529.714 482.428C529.714 481.438 529.858 480.682 530.146 480.16C530.488 479.548 531.01 479.188 531.712 479.188C532.504 479.188 533.098 479.53 533.44 480.178C533.728 480.718 533.89 481.438 533.89 482.41C533.89 483.472 533.674 484.228 533.314 484.786ZM541.553 487.144C543.299 487.144 544.667 486.19 545.207 484.588C545.423 483.958 545.531 483.148 545.531 482.374C545.531 481.618 545.423 480.826 545.207 480.214C544.667 478.648 543.317 477.694 541.571 477.694C539.735 477.694 538.349 478.648 537.827 480.232C537.629 480.808 537.521 481.6 537.521 482.392C537.521 483.184 537.647 483.994 537.845 484.588C538.367 486.19 539.753 487.144 541.553 487.144ZM541.553 485.65C540.527 485.65 539.753 485.074 539.465 484.102C539.339 483.688 539.267 483.058 539.267 482.41C539.267 481.744 539.339 481.132 539.465 480.736C539.771 479.764 540.527 479.188 541.517 479.188C542.543 479.188 543.299 479.764 543.605 480.736C543.713 481.132 543.785 481.744 543.785 482.41C543.785 483.022 543.713 483.67 543.587 484.102C543.281 485.074 542.525 485.65 541.553 485.65ZM551.79 477.748C550.8 477.748 550.08 478.234 549.594 478.972C549.558 479.044 549.504 479.026 549.504 478.936V478.108C549.504 477.946 549.396 477.838 549.234 477.838H548.046C547.884 477.838 547.776 477.946 547.776 478.108V486.73C547.776 486.892 547.884 487 548.046 487H549.234C549.396 487 549.504 486.892 549.504 486.73V481.564C549.504 480.358 550.35 479.584 551.448 479.548C551.79 479.512 552.114 479.548 552.33 479.62C552.51 479.674 552.618 479.656 552.654 479.458L552.906 478.288C552.942 478.144 552.906 478.018 552.762 477.946C552.528 477.838 552.222 477.748 551.79 477.748ZM559.167 478.99V478.108C559.167 477.946 559.059 477.838 558.897 477.838H557.061C557.007 477.838 556.971 477.802 556.971 477.748V475.732C556.971 475.57 556.863 475.462 556.701 475.462H555.585C555.423 475.462 555.315 475.57 555.315 475.732V477.748C555.315 477.802 555.279 477.838 555.225 477.838H554.235C554.073 477.838 553.965 477.946 553.965 478.108V478.99C553.965 479.152 554.073 479.26 554.235 479.26H555.225C555.279 479.26 555.315 479.296 555.315 479.35V484.678C555.315 486.568 556.395 486.982 558.069 486.982C558.321 486.982 558.555 486.964 558.807 486.964C558.987 486.946 559.077 486.838 559.077 486.676V485.74C559.077 485.578 558.969 485.47 558.807 485.47H558.375C557.421 485.47 556.971 485.092 556.971 484.048V479.35C556.971 479.296 557.007 479.26 557.061 479.26H558.897C559.059 479.26 559.167 479.152 559.167 478.99ZM563.453 483.256H564.659C564.821 483.256 564.929 483.148 564.929 482.986V482.266C564.929 480.574 568.043 480.52 568.043 477.514C568.043 475.534 566.603 474.238 564.425 474.238C562.193 474.238 560.681 475.588 560.681 477.604V477.91C560.681 478.072 560.789 478.198 560.951 478.198L562.139 478.234C562.301 478.234 562.409 478.144 562.409 477.982V477.604C562.409 476.542 563.183 475.804 564.371 475.804C565.523 475.804 566.297 476.488 566.297 477.568C566.297 479.71 563.183 479.782 563.183 482.176V482.986C563.183 483.148 563.291 483.256 563.453 483.256ZM564.137 486.982C564.803 486.982 565.379 486.46 565.379 485.812C565.379 485.164 564.785 484.642 564.137 484.642C563.471 484.642 562.913 485.164 562.913 485.812C562.913 486.46 563.453 486.982 564.137 486.982Z" fill="#E67109"/>
<g filter="url(#filter2_d)">
<circle cx="318" cy="561" r="39" fill="#141415"/>
</g>
<path d="M307.526 568.162C310.154 568.162 311.9 566.542 311.9 564.148V564.058C311.9 564.004 311.792 563.986 311.63 563.968L310.442 563.896C310.262 563.878 310.172 563.968 310.172 564.094C310.172 565.624 309.128 566.65 307.526 566.65C305.924 566.65 304.862 565.624 304.862 564.094V559.306C304.862 557.776 305.924 556.75 307.526 556.75C309.128 556.75 310.172 557.776 310.172 559.306V559.414C310.172 559.486 310.262 559.54 310.442 559.522L311.63 559.45C311.792 559.432 311.9 559.36 311.9 559.234C311.9 556.84 310.154 555.256 307.526 555.256C304.898 555.256 303.134 556.894 303.134 559.36V564.022C303.134 566.506 304.898 568.162 307.526 568.162ZM318.298 568.144C321.016 568.144 322.654 566.758 322.654 564.706C322.654 562.51 320.746 561.718 318.748 560.944C316.624 560.134 315.688 559.738 315.688 558.532C315.688 557.38 316.534 556.75 318.028 556.75C319.846 556.75 320.836 557.722 320.836 558.928V559.144C320.836 559.288 320.944 559.378 321.106 559.378H322.276C322.438 559.378 322.546 559.27 322.546 559.108V558.838C322.546 556.696 320.8 555.256 318.1 555.256C315.598 555.256 313.996 556.48 313.996 558.568C313.996 560.764 315.796 561.484 317.848 562.276C319.954 563.122 320.926 563.626 320.926 564.76C320.926 565.84 320.134 566.65 318.424 566.65C316.624 566.65 315.526 565.732 315.526 564.544V564.202C315.526 564.04 315.418 563.932 315.256 563.932H314.104C313.942 563.932 313.834 564.04 313.834 564.202V564.634C313.834 566.758 315.58 568.144 318.298 568.144ZM328.021 568H329.335C329.479 568 329.587 567.946 329.641 567.784L333.493 555.706C333.547 555.508 333.457 555.4 333.259 555.4H332.017C331.873 555.4 331.747 555.49 331.711 555.634L328.777 565.444C328.759 565.534 328.687 565.534 328.669 565.444L325.717 555.634C325.681 555.49 325.555 555.4 325.411 555.4H324.133C323.935 555.4 323.845 555.508 323.899 555.706L327.715 567.784C327.769 567.946 327.877 568 328.021 568Z" fill="white"/>
<g filter="url(#filter3_d)">
<circle cx="533" cy="561" r="39" fill="#141415"/>
</g>
<path d="M515.408 555.382H510.638C510.476 555.382 510.368 555.49 510.368 555.652V567.73C510.368 567.892 510.476 568 510.638 568H511.826C511.988 568 512.096 567.892 512.096 567.73V562.726C512.096 562.672 512.132 562.636 512.186 562.636H515.336C517.586 562.636 519.098 561.214 519.098 559.036C519.098 556.84 517.622 555.382 515.408 555.382ZM515.174 561.232H512.186C512.132 561.232 512.096 561.196 512.096 561.142V556.966C512.096 556.912 512.132 556.876 512.186 556.876H515.174C516.488 556.876 517.37 557.758 517.37 559.072C517.37 560.368 516.488 561.232 515.174 561.232ZM528.4 568H529.624C529.822 568 529.912 567.874 529.822 567.676L527.266 562.366C527.248 562.312 527.266 562.276 527.32 562.258C528.832 561.862 529.786 560.638 529.786 558.964C529.786 556.822 528.346 555.382 526.168 555.382H521.416C521.254 555.382 521.146 555.49 521.146 555.652V567.73C521.146 567.892 521.254 568 521.416 568H522.604C522.766 568 522.874 567.892 522.874 567.73V562.492C522.874 562.438 522.91 562.402 522.964 562.402H525.502C525.538 562.402 525.592 562.438 525.61 562.474L528.094 567.802C528.148 567.928 528.256 568 528.4 568ZM522.964 556.876H525.952C527.212 556.876 528.058 557.722 528.058 558.982C528.058 560.206 527.212 561.052 525.952 561.052H522.964C522.91 561.052 522.874 561.016 522.874 560.962V556.966C522.874 556.912 522.91 556.876 522.964 556.876ZM532.455 568H533.643C533.805 568 533.913 567.892 533.913 567.73V555.67C533.913 555.508 533.805 555.4 533.643 555.4H532.455C532.293 555.4 532.185 555.508 532.185 555.67V567.73C532.185 567.892 532.293 568 532.455 568ZM537.131 568H538.319C538.481 568 538.589 567.892 538.589 567.73L538.571 558.892C538.571 558.802 538.643 558.784 538.679 558.856L544.187 567.82C544.259 567.946 544.367 568 544.511 568H545.681C545.843 568 545.951 567.892 545.951 567.73V555.67C545.951 555.508 545.843 555.4 545.681 555.4H544.493C544.331 555.4 544.223 555.508 544.223 555.67V564.454C544.223 564.544 544.151 564.562 544.115 564.49L538.607 555.58C538.535 555.454 538.427 555.4 538.283 555.4H537.131C536.969 555.4 536.861 555.508 536.861 555.67V567.73C536.861 567.892 536.969 568 537.131 568ZM556.804 555.4H548.362C548.2 555.4 548.092 555.508 548.092 555.67V556.642C548.092 556.804 548.2 556.912 548.362 556.912H551.548C551.602 556.912 551.638 556.948 551.638 557.002V567.73C551.638 567.892 551.746 568 551.908 568H553.096C553.258 568 553.366 567.892 553.366 567.73V557.002C553.366 556.948 553.402 556.912 553.456 556.912H556.804C556.966 556.912 557.074 556.804 557.074 556.642V555.67C557.074 555.508 556.966 555.4 556.804 555.4Z" fill="white"/>
<path d="M373.447 666.189C376.513 666.189 378.55 664.299 378.55 661.506V661.401C378.55 661.338 378.424 661.317 378.235 661.296L376.849 661.212C376.639 661.191 376.534 661.296 376.534 661.443C376.534 663.228 375.316 664.425 373.447 664.425C371.578 664.425 370.339 663.228 370.339 661.443V655.857C370.339 654.072 371.578 652.875 373.447 652.875C375.316 652.875 376.534 654.072 376.534 655.857V655.983C376.534 656.067 376.639 656.13 376.849 656.109L378.235 656.025C378.424 656.004 378.55 655.92 378.55 655.773C378.55 652.98 376.513 651.132 373.447 651.132C370.381 651.132 368.323 653.043 368.323 655.92V661.359C368.323 664.257 370.381 666.189 373.447 666.189ZM385.594 666.168C387.631 666.168 389.227 665.055 389.857 663.186C390.109 662.451 390.235 661.506 390.235 660.603C390.235 659.721 390.109 658.797 389.857 658.083C389.227 656.256 387.652 655.143 385.615 655.143C383.473 655.143 381.856 656.256 381.247 658.104C381.016 658.776 380.89 659.7 380.89 660.624C380.89 661.548 381.037 662.493 381.268 663.186C381.877 665.055 383.494 666.168 385.594 666.168ZM385.594 664.425C384.397 664.425 383.494 663.753 383.158 662.619C383.011 662.136 382.927 661.401 382.927 660.645C382.927 659.868 383.011 659.154 383.158 658.692C383.515 657.558 384.397 656.886 385.552 656.886C386.749 656.886 387.631 657.558 387.988 658.692C388.114 659.154 388.198 659.868 388.198 660.645C388.198 661.359 388.114 662.115 387.967 662.619C387.61 663.753 386.728 664.425 385.594 664.425ZM397.621 655.164C396.487 655.164 395.584 655.5 394.975 656.277C394.933 656.34 394.87 656.298 394.87 656.214V655.626C394.87 655.437 394.744 655.311 394.555 655.311H393.169C392.98 655.311 392.854 655.437 392.854 655.626V665.685C392.854 665.874 392.98 666 393.169 666H394.555C394.744 666 394.87 665.874 394.87 665.685V658.881C395.017 657.684 395.899 656.907 397.117 656.907C398.461 656.907 399.343 657.873 399.343 659.259V665.685C399.343 665.874 399.469 666 399.658 666H401.044C401.233 666 401.359 665.874 401.359 665.685V658.86C401.359 656.592 399.91 655.164 397.621 655.164ZM409.507 656.655V655.626C409.507 655.437 409.381 655.311 409.192 655.311H407.05C406.987 655.311 406.945 655.269 406.945 655.206V652.854C406.945 652.665 406.819 652.539 406.63 652.539H405.328C405.139 652.539 405.013 652.665 405.013 652.854V655.206C405.013 655.269 404.971 655.311 404.908 655.311H403.753C403.564 655.311 403.438 655.437 403.438 655.626V656.655C403.438 656.844 403.564 656.97 403.753 656.97H404.908C404.971 656.97 405.013 657.012 405.013 657.075V663.291C405.013 665.496 406.273 665.979 408.226 665.979C408.52 665.979 408.793 665.958 409.087 665.958C409.297 665.937 409.402 665.811 409.402 665.622V664.53C409.402 664.341 409.276 664.215 409.087 664.215H408.583C407.47 664.215 406.945 663.774 406.945 662.556V657.075C406.945 657.012 406.987 656.97 407.05 656.97H409.192C409.381 656.97 409.507 656.844 409.507 656.655ZM413.164 653.715C413.983 653.715 414.529 653.169 414.529 652.392C414.529 651.615 413.983 651.069 413.164 651.069C412.345 651.069 411.778 651.615 411.778 652.392C411.778 653.169 412.345 653.715 413.164 653.715ZM412.471 666H413.857C414.046 666 414.172 665.874 414.172 665.685V655.626C414.172 655.437 414.046 655.311 413.857 655.311H412.471C412.282 655.311 412.156 655.437 412.156 655.626V665.685C412.156 665.874 412.282 666 412.471 666ZM422.025 655.164C420.891 655.164 419.988 655.5 419.379 656.277C419.337 656.34 419.274 656.298 419.274 656.214V655.626C419.274 655.437 419.148 655.311 418.959 655.311H417.573C417.384 655.311 417.258 655.437 417.258 655.626V665.685C417.258 665.874 417.384 666 417.573 666H418.959C419.148 666 419.274 665.874 419.274 665.685V658.881C419.421 657.684 420.303 656.907 421.521 656.907C422.865 656.907 423.747 657.873 423.747 659.259V665.685C423.747 665.874 423.873 666 424.062 666H425.448C425.637 666 425.763 665.874 425.763 665.685V658.86C425.763 656.592 424.314 655.164 422.025 655.164ZM435.003 655.626V662.052C435.003 663.48 434.1 664.404 432.693 664.404C431.286 664.404 430.488 663.48 430.488 662.052V655.626C430.488 655.437 430.362 655.311 430.173 655.311H428.808C428.619 655.311 428.493 655.437 428.493 655.626V662.682C428.493 664.992 430.32 666.147 432.315 666.147C433.491 666.147 434.331 665.748 434.877 665.013C434.94 664.95 435.003 664.971 435.003 665.055V665.685C435.003 665.874 435.129 666 435.318 666H436.683C436.872 666 436.998 665.874 436.998 665.685V655.626C436.998 655.437 436.872 655.311 436.683 655.311H435.318C435.129 655.311 435.003 655.437 435.003 655.626ZM444.434 664.446C443.048 664.446 442.082 663.732 441.788 662.64C441.704 662.388 441.662 662.01 441.641 661.506C441.641 661.443 441.683 661.401 441.746 661.401H448.382C448.571 661.401 448.697 661.296 448.697 661.086C448.676 660.372 448.634 659.763 448.55 659.196C448.151 656.676 446.891 655.143 444.14 655.143C441.956 655.143 440.381 656.361 439.877 658.272C439.688 658.923 439.646 659.637 439.646 660.603C439.646 661.758 439.835 662.787 440.171 663.606C440.864 665.223 442.229 666.168 444.245 666.168C446.156 666.168 447.542 665.286 448.277 663.963C448.361 663.774 448.319 663.627 448.151 663.522L447.29 662.997C447.101 662.871 446.975 662.934 446.87 663.123C446.408 663.942 445.589 664.425 444.434 664.446ZM444.14 656.886C445.4 656.886 446.24 657.621 446.513 658.692C446.576 658.923 446.618 659.301 446.639 659.721C446.639 659.784 446.597 659.826 446.534 659.826H441.767C441.704 659.826 441.662 659.784 441.662 659.721C441.683 659.259 441.746 658.86 441.851 658.545C442.124 657.558 442.88 656.886 444.14 656.886Z" fill="#E67109"/>
<path d="M367 668.1H449.768V669.15H367V668.1Z" fill="#E67109"/>
<path d="M483 660L463 660" stroke="#E67109" stroke-width="2" stroke-linecap="round" stroke-linejoin="round"/>
<path d="M475.929 667.071L483 660" stroke="#E67109" stroke-width="2" stroke-linecap="round" stroke-linejoin="round"/>
<path d="M475.929 652.929L483 660" stroke="#E67109" stroke-width="2" stroke-linecap="round" stroke-linejoin="round"/>
<defs>
<filter id="filter0_d" x="21.5251" y="0.515074" width="806.95" height="764.95" filterUnits="userSpaceOnUse" color-interpolation-filters="sRGB">
<feFlood flood-opacity="0" result="BackgroundImageFix"/>
<feColorMatrix in="SourceAlpha" type="matrix" values="0 0 0 0 0 0 0 0 0 0 0 0 0 0 0 0 0 0 127 0"/>
<feOffset dy="12.99"/>
<feGaussianBlur stdDeviation="16.2374"/>
<feColorMatrix type="matrix" values="0 0 0 0 0.0901961 0 0 0 0 0.113725 0 0 0 0 0.113725 0 0 0 0.1 0"/>
<feBlend mode="normal" in2="BackgroundImageFix" result="effect1_dropShadow"/>
<feBlend mode="normal" in="SourceGraphic" in2="effect1_dropShadow" result="shape"/>
</filter>
<filter id="filter1_d" x="0" y="205" width="702" height="114" filterUnits="userSpaceOnUse" color-interpolation-filters="sRGB">
<feFlood flood-opacity="0" result="BackgroundImageFix"/>
<feColorMatrix in="SourceAlpha" type="matrix" values="0 0 0 0 0 0 0 0 0 0 0 0 0 0 0 0 0 0 127 0"/>
<feOffset dy="5"/>
<feGaussianBlur stdDeviation="7.5"/>
<feColorMatrix type="matrix" values="0 0 0 0 0.0784314 0 0 0 0 0.0784314 0 0 0 0 0.0823529 0 0 0 0.1 0"/>
<feBlend mode="normal" in2="BackgroundImageFix" result="effect1_dropShadow"/>
<feBlend mode="normal" in="SourceGraphic" in2="effect1_dropShadow" result="shape"/>
</filter>
<filter id="filter2_d" x="264" y="512" width="108" height="108" filterUnits="userSpaceOnUse" color-interpolation-filters="sRGB">
<feFlood flood-opacity="0" result="BackgroundImageFix"/>
<feColorMatrix in="SourceAlpha" type="matrix" values="0 0 0 0 0 0 0 0 0 0 0 0 0 0 0 0 0 0 127 0"/>
<feOffset dy="5"/>
<feGaussianBlur stdDeviation="7.5"/>
<feColorMatrix type="matrix" values="0 0 0 0 0.0784314 0 0 0 0 0.0784314 0 0 0 0 0.0823529 0 0 0 0.1 0"/>
<feBlend mode="normal" in2="BackgroundImageFix" result="effect1_dropShadow"/>
<feBlend mode="normal" in="SourceGraphic" in2="effect1_dropShadow" result="shape"/>
</filter>
<filter id="filter3_d" x="479" y="512" width="108" height="108" filterUnits="userSpaceOnUse" color-interpolation-filters="sRGB">
<feFlood flood-opacity="0" result="BackgroundImageFix"/>
<feColorMatrix in="SourceAlpha" type="matrix" values="0 0 0 0 0 0 0 0 0 0 0 0 0 0 0 0 0 0 127 0"/>
<feOffset dy="5"/>
<feGaussianBlur stdDeviation="7.5"/>
<feColorMatrix type="matrix" values="0 0 0 0 0.0784314 0 0 0 0 0.0784314 0 0 0 0 0.0823529 0 0 0 0.1 0"/>
<feBlend mode="normal" in2="BackgroundImageFix" result="effect1_dropShadow"/>
<feBlend mode="normal" in="SourceGraphic" in2="effect1_dropShadow" result="shape"/>
</filter>
</defs>
</svg>
