<svg width="609" height="609" viewBox="0 0 609 609" fill="none" xmlns="http://www.w3.org/2000/svg">
<rect width="609" height="609" fill="white"/>
<path d="M511.731 239.775H385.022V415.131H511.731V239.775Z" fill="#EBEBEB"/>
<path d="M517.869 233.271H378.883V239.775H517.869V233.271Z" fill="#DBDBDB"/>
<path d="M561.583 233.271H517.869V239.775H561.583V233.271Z" fill="#EBEBEB"/>
<path d="M554.665 239.775H511.73V415.131H554.665V239.775Z" fill="#DBDBDB"/>
<path d="M498.077 320.931H398.664V264.757H498.077V320.931ZM398.968 320.626H497.772V265.061H398.968V320.626Z" fill="#C7C7C7"/>
<path d="M453.851 281.175H434.497V292.296H453.851V281.175Z" fill="#C7C7C7"/>
<path d="M459.734 291.614H440.063V281.87H459.734V291.614ZM440.368 291.309H459.43V282.162H440.368V291.309Z" fill="#C7C7C7"/>
<path d="M498.077 391.526H398.664V335.352H498.077V391.526ZM398.968 391.222H497.772V335.656H398.968V391.222Z" fill="#C7C7C7"/>
<path d="M453.851 351.771H434.497V362.891H453.851V351.771Z" fill="#C7C7C7"/>
<path d="M459.734 362.209H440.063V352.465H459.734V362.209ZM440.368 361.904H459.43V352.757H440.368V361.904Z" fill="#C7C7C7"/>
<path d="M68.0374 48.72H268.861V311.199H68.0374V48.72ZM263.563 54.0183H73.3357V305.901H263.563V54.0183Z" fill="#EBEBEB"/>
<path d="M173.163 55.3947H167.865V308.544H173.163V55.3947Z" fill="#EBEBEB"/>
<path d="M63.2265 66.7951L273.66 66.7951V59.4262L63.2265 59.4262V66.7951Z" fill="#EBEBEB"/>
<path d="M63.2265 75.0897L273.66 75.0897V67.7208L63.2265 67.7208V75.0897Z" fill="#EBEBEB"/>
<path d="M63.2265 83.3842L273.66 83.3842V76.0154L63.2265 76.0154V83.3842Z" fill="#EBEBEB"/>
<path d="M63.2265 91.6789L273.66 91.6789V84.31L63.2265 84.31V91.6789Z" fill="#EBEBEB"/>
<path d="M63.2265 99.9734L273.66 99.9734V92.6045L63.2265 92.6045V99.9734Z" fill="#EBEBEB"/>
<path d="M63.2265 108.268L273.66 108.268V100.899L63.2265 100.899V108.268Z" fill="#EBEBEB"/>
<path d="M63.2265 116.563L273.66 116.563V109.194L63.2265 109.194V116.563Z" fill="#EBEBEB"/>
<path d="M63.2265 124.857L273.66 124.857V117.488L63.2265 117.488V124.857Z" fill="#EBEBEB"/>
<path d="M63.2265 133.164L273.66 133.164V125.795L63.2265 125.795V133.164Z" fill="#EBEBEB"/>
<path d="M80.2906 57.9159H78.963V227.888H80.2906V57.9159Z" fill="#263238"/>
<path d="M77.2701 234.063H81.9716L80.7902 227.303H78.4516L77.2701 234.063Z" fill="#263238"/>
<path d="M75.5161 57.9159H74.1885V303.806H75.5161V57.9159Z" fill="#263238"/>
<path d="M72.5077 308.775H77.2092L76.0277 302.027H73.677L72.5077 308.775Z" fill="#263238"/>
<path d="M55.0172 63.1046L281.882 63.1046V47.6725L55.0172 47.6725V63.1046Z" fill="#DBDBDB"/>
<path d="M464.935 152.457C478.333 165.514 480.525 185.721 477.712 203.43C477.639 203.832 477.017 203.723 477.017 203.345C477.017 199.314 477.139 195.318 477.127 191.336L476.92 190.8C473.327 188.436 470.353 185.245 468.248 181.494C466.019 177.109 465.142 172.164 463.437 167.585C463.278 167.146 463.753 167.28 464.058 167.499C472.17 173.492 474.764 179.935 477.091 188.534C477.042 184.034 476.569 179.548 475.678 175.136C473.924 166.963 470.452 158.864 464.582 152.81C464.362 152.579 464.703 152.25 464.935 152.457Z" fill="#A6A6A6"/>
<path d="M462.426 153.98C460.136 154.053 458.699 157.719 456.908 158.852C456.721 159.005 456.503 159.117 456.269 159.18C456.035 159.244 455.791 159.257 455.551 159.219C455.312 159.181 455.084 159.093 454.881 158.96C454.678 158.828 454.506 158.654 454.375 158.45C452.597 156.014 455.033 152.932 457.322 151.215C455.678 151.897 454.326 153.078 452.56 153.407C452.335 153.48 452.097 153.505 451.862 153.479C451.627 153.452 451.401 153.376 451.197 153.255C450.994 153.134 450.82 152.971 450.685 152.776C450.55 152.582 450.459 152.361 450.416 152.128C449.637 148.754 453.875 147.256 456.774 147.183C455.361 146.197 451.33 143.529 453.473 142.226C455.617 140.923 460.38 144.662 461.926 145.977C464.192 147.817 466.896 150.569 467.005 153.444C467.139 156.744 464.192 154.686 462.426 153.98Z" fill="#DBDBDB"/>
<path d="M463.096 154.54C460.16 153.2 454.57 155.124 454.046 154.016C453.072 151.751 457.578 150.204 460.002 149.899C457.761 149.29 453.474 148.328 453.608 146.172C453.766 143.529 460.185 145.795 463.437 148.291C467.541 151.434 467.505 154.467 466.835 155.064C465.897 155.904 463.583 154.759 463.096 154.54Z" fill="#EBEBEB"/>
<path d="M495.324 151.154C481.5 163.699 478.491 183.821 480.623 201.616C480.623 202.017 481.305 201.932 481.317 201.555C481.475 197.523 481.512 193.528 481.67 189.557C481.755 189.375 481.816 189.204 481.902 189.021C485.585 186.799 488.678 183.719 490.915 180.045C493.351 175.757 494.374 170.849 496.25 166.342C496.42 165.904 495.957 166.013 495.641 166.233C487.297 171.908 484.472 178.242 481.816 186.756C482.034 182.24 482.675 177.754 483.729 173.358C485.799 165.258 489.575 157.305 495.665 151.434C495.672 151.39 495.667 151.345 495.652 151.303C495.636 151.261 495.609 151.224 495.575 151.196C495.54 151.168 495.499 151.149 495.455 151.142C495.411 151.134 495.366 151.138 495.324 151.154Z" fill="#A6A6A6"/>
<path d="M497.772 152.774C500.062 152.944 501.365 156.659 503.107 157.804C503.29 157.963 503.505 158.082 503.737 158.153C503.968 158.224 504.212 158.246 504.453 158.217C504.694 158.188 504.926 158.11 505.135 157.986C505.343 157.863 505.524 157.697 505.665 157.5C507.528 155.064 505.214 151.946 502.985 150.192C504.605 150.922 505.908 152.165 507.662 152.628C507.886 152.708 508.124 152.739 508.361 152.719C508.597 152.7 508.827 152.63 509.034 152.515C509.242 152.4 509.422 152.241 509.564 152.051C509.705 151.86 509.805 151.642 509.855 151.41C510.756 148.06 506.591 146.404 503.692 146.221C505.129 145.295 509.27 142.798 507.175 141.349C505.08 139.9 500.184 143.566 498.649 144.759C496.311 146.513 493.497 149.169 493.29 152.067C492.973 155.368 495.982 153.468 497.772 152.774Z" fill="#DBDBDB"/>
<path d="M497.09 153.31C500.074 152.092 505.616 154.223 506.152 153.139C507.212 150.91 502.766 149.193 500.354 148.803C502.608 148.279 506.944 147.475 506.895 145.307C506.834 142.664 500.33 144.686 496.981 147.061C492.766 150.045 492.681 153.066 493.327 153.699C494.228 154.564 496.603 153.468 497.09 153.31Z" fill="#EBEBEB"/>
<path d="M481.183 184.296C480.246 191.007 478.809 197.639 476.884 204.137C476.871 204.2 476.846 204.26 476.81 204.313C476.774 204.367 476.727 204.413 476.674 204.448C476.62 204.484 476.56 204.509 476.497 204.521C476.433 204.533 476.368 204.533 476.305 204.52C476.242 204.508 476.182 204.483 476.128 204.447C476.075 204.411 476.029 204.364 475.993 204.311C475.958 204.257 475.933 204.197 475.921 204.133C475.908 204.07 475.909 204.005 475.921 203.942C476.835 197.852 478.491 191.823 479.393 185.672C480.388 179.489 480.747 173.22 480.465 166.963C479.88 156.659 477.078 145.697 470.355 137.634C470.209 137.451 470.526 137.183 470.672 137.354C484.131 153.054 481.987 172.286 481.975 174.016C483.887 167.512 485.848 160.07 493.059 153.456C493.363 153.163 493.607 153.31 493.558 153.785C492.267 165.843 488.917 172.128 481.926 178.571C481.731 180.52 481.488 182.42 481.183 184.296Z" fill="#A6A6A6"/>
<path d="M470.233 139.485C467.797 138.401 464.472 141.483 462.072 141.702C461.8 141.768 461.517 141.775 461.241 141.723C460.966 141.672 460.705 141.562 460.475 141.402C460.244 141.242 460.051 141.036 459.906 140.795C459.762 140.555 459.67 140.287 459.636 140.009C459.04 136.55 463.108 134.613 466.335 133.992C464.301 133.858 462.304 134.406 460.245 133.87C459.973 133.833 459.712 133.736 459.48 133.588C459.248 133.44 459.05 133.244 458.901 133.013C458.752 132.781 458.654 132.521 458.615 132.248C458.576 131.976 458.596 131.698 458.674 131.434C459.563 127.549 464.703 128.121 467.761 129.51C466.786 127.78 463.936 122.994 466.823 122.714C469.709 122.433 472.73 128.804 473.704 130.85C475.129 133.907 476.554 138.158 475.215 141.154C473.717 144.723 471.707 141.105 470.233 139.485Z" fill="#DBDBDB"/>
<path d="M470.635 140.399C468.26 137.537 461.451 136.745 461.512 135.295C461.634 132.47 467.091 133.127 469.77 134.077C467.749 132.311 463.79 129.205 465.008 126.977C466.506 124.321 472.024 129.912 474.143 134.126C476.81 139.449 475.264 142.579 474.253 142.871C472.864 143.225 471.025 140.874 470.635 140.399Z" fill="#EBEBEB"/>
<path d="M490.038 187.925L495.97 233.271H459.856C460.599 229.252 467.322 187.864 467.322 187.864L490.038 187.925Z" fill="#EBEBEB"/>
<path fill-rule="evenodd" clip-rule="evenodd" d="M367.069 204.161C365.948 203.284 365.022 202.091 363.415 202.078C362.794 202.078 362.976 201.579 363.013 201.238L364.876 183.199C364.876 182.761 364.986 182.408 365.498 182.213C370.37 180.386 372.806 176.038 376.009 172.469C377.655 170.685 378.925 168.588 379.743 166.303C380.562 164.018 380.911 161.591 380.771 159.168C380.771 157.804 381.417 157.256 382.659 157.11C383.294 156.96 383.961 157.019 384.56 157.277C385.159 157.536 385.658 157.982 385.984 158.547C387.047 161.14 387.657 163.896 387.787 166.695C387.787 169.01 386.764 171.141 386.24 173.37C385.862 175.002 385.302 176.598 384.815 178.242C385.18 178.583 385.668 178.474 386.106 178.522C391.181 179.066 396.26 179.598 401.343 180.118C403.487 180.349 404.461 181.068 404.62 182.554C404.69 183.447 404.467 184.339 403.983 185.094C403.499 185.848 402.782 186.423 401.94 186.732C401.538 186.878 400.88 186.634 400.722 187.231C400.564 187.828 401.319 187.84 401.648 188.12C403.353 189.582 402.744 192.139 400.43 193.418C399.882 193.735 398.907 193.418 398.81 194.21C398.712 195.002 399.662 194.892 400.028 195.428C401.355 197.048 400.332 199.703 397.994 200.58C397.679 200.641 397.369 200.727 397.068 200.836C396.8 200.97 396.532 201.141 396.983 201.542C399.017 203.333 398.749 205.525 396.362 206.889L395.655 207.291C394.801 207.695 393.837 207.802 392.915 207.596C384.949 206.784 376.983 205.972 369.018 205.16C368.262 205.096 367.562 204.737 367.069 204.161Z" fill="#EBEBEB"/>
<path fill-rule="evenodd" clip-rule="evenodd" d="M345.522 191.226C345.924 187.414 346.338 183.589 346.74 179.765C346.813 178.985 346.935 178.62 347.885 178.729C352.554 179.265 357.215 179.752 361.868 180.191C362.781 180.276 362.891 180.605 362.806 181.409C361.994 189.099 361.182 196.788 360.37 204.478C360.272 205.464 359.98 205.696 359.006 205.586C354.483 205.067 349.964 204.6 345.449 204.186C344.317 204.088 344.231 203.674 344.317 202.687C344.767 198.839 345.12 195.014 345.522 191.226Z" fill="#EBEBEB"/>
<path fill-rule="evenodd" clip-rule="evenodd" d="M336.034 153.322C335.023 152.932 334.085 152.274 332.916 152.615C332.465 152.749 332.49 152.347 332.441 152.104L329.81 138.572C329.81 138.243 329.713 137.975 330.042 137.719C333.147 135.283 333.976 131.629 335.523 128.28C336.325 126.62 336.785 124.815 336.875 122.974C336.965 121.132 336.683 119.292 336.046 117.561C335.959 117.378 335.914 117.177 335.914 116.974C335.914 116.771 335.96 116.571 336.047 116.388C336.135 116.204 336.262 116.043 336.42 115.915C336.578 115.787 336.762 115.696 336.96 115.649C337.389 115.401 337.887 115.297 338.38 115.352C338.873 115.406 339.336 115.617 339.7 115.954C341.039 117.609 342.089 119.478 342.806 121.483C343.125 123.193 343.244 124.935 343.159 126.672C343.245 127.89 343.159 129.23 343.159 130.521C343.5 130.691 343.829 130.521 344.158 130.448L355.595 128.243C357.191 127.927 358.031 128.243 358.494 129.266C358.755 129.901 358.797 130.605 358.614 131.266C358.431 131.928 358.033 132.51 357.483 132.92C357.227 133.115 356.679 133.091 356.728 133.541C356.777 133.992 357.313 133.858 357.605 133.992C359.164 134.662 359.286 136.672 357.909 138.109C357.581 138.45 356.813 138.462 356.898 139.035C356.984 139.607 357.678 139.351 358.056 139.595C359.383 140.484 359.274 142.652 357.727 143.797C357.509 143.91 357.302 144.04 357.106 144.187C356.935 144.345 356.777 144.528 357.191 144.723C359.079 145.575 359.359 147.159 357.922 148.742L357.495 149.193C356.966 149.672 356.294 149.963 355.583 150.021C349.599 151.19 343.622 152.347 337.654 153.492C337.386 153.572 337.105 153.598 336.827 153.569C336.549 153.54 336.28 153.456 336.034 153.322Z" fill="#EBEBEB"/>
<path fill-rule="evenodd" clip-rule="evenodd" d="M317.508 148.657C316.948 145.795 316.412 142.92 315.827 140.058C315.718 139.485 315.718 139.181 316.436 139.047C319.944 138.413 323.428 137.744 326.923 137.025C327.605 136.891 327.752 137.098 327.873 137.707C328.97 143.48 330.086 149.25 331.223 155.015C331.369 155.746 331.223 155.989 330.468 156.123C327.07 156.744 323.683 157.341 320.297 158.096C319.457 158.267 319.286 157.999 319.152 157.256C318.641 154.381 318.056 151.519 317.508 148.657Z" fill="#EBEBEB"/>
<path d="M304.5 531.194C453.345 531.194 574.007 516.514 574.007 498.406C574.007 480.297 453.345 465.617 304.5 465.617C155.655 465.617 34.9932 480.297 34.9932 498.406C34.9932 516.514 155.655 531.194 304.5 531.194Z" fill="#EBEBEB"/>
<path d="M55.017 415.338L117.391 415.046L179.765 414.936L304.5 414.729L429.247 414.936L491.609 415.046L553.983 415.338L491.609 415.643L429.247 415.74L304.5 415.947L179.765 415.74L117.391 415.63L55.017 415.338Z" fill="#263238"/>
<path d="M109.242 311.187C117.988 293.221 133.286 283.989 150.52 289.092C167.755 294.196 170.435 318.227 157.56 324.305C144.686 330.382 131.824 312.648 125.028 309.007C118.231 305.365 109.242 311.187 109.242 311.187Z" fill="#E67109"/>
<path d="M100.777 359.018C100.777 356.85 100.911 354.682 100.984 352.526C101.143 348.202 101.289 343.866 101.447 339.542C101.74 331.637 102.592 323.866 105.869 316.583C108.762 309.974 113.596 304.401 119.729 300.602C122.009 299.224 124.469 298.167 127.037 297.46C129.365 295.106 132.328 293.481 135.563 292.783C139.574 291.964 143.697 291.86 147.743 292.478C147.89 292.478 147.89 292.722 147.743 292.71C143.903 292.211 140.001 292.489 136.27 293.526C134.67 293.963 133.119 294.563 131.641 295.316C130.715 295.819 129.823 296.385 128.974 297.009C132.454 296.297 136.046 296.334 139.51 297.119C140.758 297.427 141.98 297.835 143.164 298.337C144.106 298.123 145.073 298.041 146.038 298.093C147.297 298.132 148.547 298.311 149.765 298.629C152.263 299.33 154.652 300.371 156.866 301.723C156.988 301.796 156.866 301.991 156.744 301.918C154.567 300.73 152.234 299.853 149.814 299.311C148.644 299.045 147.455 298.87 146.257 298.788C145.6 298.751 144.942 298.751 144.284 298.788C149.196 301.056 153.145 304.992 155.429 309.896C155.429 310.03 155.283 310.139 155.234 310.005C153.873 307.161 151.889 304.659 149.428 302.688C146.967 300.716 144.093 299.325 141.02 298.617C140.642 298.52 140.253 298.471 139.875 298.398C139.965 298.975 140.026 299.556 140.058 300.14C140.167 301.004 140.314 301.881 140.496 302.746C140.847 304.529 141.315 306.287 141.897 308.008C142.48 309.748 143.175 311.449 143.98 313.099C144.757 314.834 145.738 316.469 146.903 317.971C147 318.105 146.806 318.251 146.72 318.105C145.685 316.485 144.479 314.987 143.529 313.306C142.622 311.696 141.841 310.018 141.191 308.288C140.528 306.54 140.014 304.739 139.656 302.904C139.461 301.93 139.315 300.956 139.205 299.981C139.084 299.393 139.047 298.79 139.096 298.191C137.079 297.891 135.033 297.851 133.006 298.069C133.773 302.356 134.589 306.826 137.001 310.553C137.074 310.675 136.867 310.785 136.794 310.663C135.67 308.702 134.682 306.668 133.834 304.573C133.041 302.527 132.545 300.377 132.36 298.191C128.8 298.667 125.364 299.82 122.238 301.589C116.348 305.014 111.644 310.156 108.755 316.327C105.721 322.975 104.024 330.156 103.761 337.459C103.189 346.643 103.067 355.887 102.154 365.035C102.154 365.644 101.143 365.838 101.033 365.169C100.753 363.131 100.667 361.071 100.777 359.018Z" fill="#263238"/>
<path d="M120.984 299.153C121.564 298.461 122.232 297.847 122.969 297.326C123.688 296.729 124.419 296.108 125.186 295.633C126.704 294.596 128.383 293.818 130.156 293.331C130.302 293.331 130.35 293.526 130.156 293.55C128.381 294.018 126.722 294.847 125.284 295.986C124.553 296.522 123.858 297.095 123.176 297.691C122.568 298.328 121.894 298.9 121.167 299.397C121.135 299.409 121.099 299.41 121.066 299.401C121.033 299.391 121.004 299.371 120.983 299.344C120.963 299.316 120.952 299.283 120.952 299.248C120.952 299.214 120.963 299.18 120.984 299.153Z" fill="#263238"/>
<path d="M148.888 305.718C150.334 307.403 151.672 309.176 152.896 311.029C154.09 312.89 155.089 314.87 155.88 316.936C155.88 316.997 155.807 317.033 155.77 316.936C153.769 313.026 151.408 309.311 148.718 305.84C148.596 305.718 148.791 305.56 148.888 305.718Z" fill="#263238"/>
<path d="M130.082 303.891C130.264 305.014 130.596 306.108 131.069 307.143C131.545 308.147 132.099 309.112 132.726 310.03C132.726 310.03 132.726 310.151 132.628 310.103C131.132 308.384 130.168 306.269 129.851 304.013C129.839 303.806 130.058 303.745 130.082 303.891Z" fill="#263238"/>
<path d="M101.995 311.625C101.995 311.625 89.6203 296.071 65.7719 301.589C43.0562 306.826 32.5814 348.47 55.5285 353.451C78.4756 358.433 74.4319 319.896 82.7874 313.355C88.9139 308.556 97.7079 309.591 101.995 311.625Z" fill="#E67109"/>
<path d="M47.2829 324.329C48.8212 322.964 50.4488 321.702 52.1549 320.553C53.7877 319.424 55.5713 318.53 57.4532 317.898C60.0765 313.878 63.6164 310.539 67.7818 308.154H67.0754C65.8574 308.154 64.5419 308.154 63.2752 308.154C60.7288 308.322 58.2331 308.945 55.9063 309.993C55.8788 310.006 55.8474 310.008 55.8188 309.997C55.7903 309.987 55.767 309.966 55.7541 309.938C55.7411 309.911 55.7396 309.879 55.7499 309.851C55.7602 309.822 55.7814 309.799 55.8089 309.786C58.153 308.773 60.6048 308.029 63.1169 307.569C64.3467 307.349 65.5945 307.243 66.8439 307.253C67.5138 307.253 68.1959 307.253 68.8536 307.362H69.2434C71.4325 306.256 73.7416 305.406 76.1251 304.829C75.9059 304.768 75.6866 304.695 75.4552 304.646C74.2887 304.39 73.1097 304.195 71.923 304.061C69.5448 303.793 67.1422 303.83 64.7733 304.171C64.6272 304.171 64.5906 303.964 64.7733 303.952C67.1732 303.66 69.5927 303.562 72.0083 303.66C74.0312 303.714 76.0432 303.975 78.013 304.439C79.4527 304.169 80.9099 304.002 82.3734 303.94C90.7046 303.586 99.7787 306.705 104.906 313.55C110.034 320.395 110.996 329.542 111.946 337.812C113.346 349.333 113.652 360.959 112.86 372.537C112.86 373.219 111.849 373.098 111.825 372.44C111.52 362.623 111.167 352.806 110.229 343.025C109.791 338.494 109.316 333.939 108.56 329.457C108.017 325.591 106.904 321.828 105.26 318.288C103.49 314.663 100.683 311.644 97.1965 309.616C93.6989 307.614 89.8013 306.412 85.7838 306.096C82.1794 305.801 78.5512 306.143 75.0654 307.106C75.1692 307.805 75.1692 308.515 75.0654 309.214C74.9886 310.103 74.8129 310.982 74.5417 311.832C74.2747 312.631 73.9406 313.405 73.5429 314.147C73.0923 314.963 72.5442 315.693 72.0448 316.485C71.9717 316.607 71.7647 316.485 71.8621 316.351C72.846 314.95 73.4808 313.334 73.7135 311.637C73.8596 310.832 73.9572 310.019 74.0058 309.201C74.0058 308.592 74.0058 307.983 74.0058 307.362C70.2154 308.526 66.6784 310.394 63.5797 312.868C62.9951 313.33 62.4348 313.818 61.8867 314.329C62.6674 315.046 63.3475 315.866 63.9086 316.765C64.727 317.964 65.4402 319.231 66.0401 320.553C67.1443 323.211 67.8858 326.005 68.2446 328.86C68.2446 329.006 68.0376 329.055 68.0254 328.86C67.5854 326.093 66.6618 323.426 65.2971 320.979C64.6751 319.768 63.9711 318.6 63.1899 317.484C62.788 316.911 62.3617 316.339 61.9719 315.791C61.7283 315.486 61.4726 315.194 61.2533 314.865C58.4484 317.622 56.1554 320.855 54.4812 324.414C55.6061 325.612 56.5461 326.971 57.2705 328.446C58.1301 329.982 58.8791 331.578 59.5116 333.22C60.6662 336.405 61.6181 339.66 62.3617 342.964C62.3617 343.111 62.1668 343.147 62.1425 342.964C61.4154 339.636 60.2737 336.411 58.7442 333.367C58.0378 331.868 57.2826 330.395 56.4909 328.933C55.6535 327.591 54.9048 326.195 54.2498 324.755C52.6513 328.241 51.7256 331.997 51.5215 335.827C51.5215 335.973 51.2779 335.949 51.2901 335.827C51.7298 329.827 53.5649 324.013 56.6493 318.848C55.1877 319.469 53.7261 320.066 52.3254 320.833C50.5302 321.783 48.8607 322.953 47.3559 324.317C47.3194 324.597 47.1732 324.426 47.2829 324.329Z" fill="#263238"/>
<path d="M64.7975 325.206C65.5162 327.569 66.4175 329.859 67.063 332.246C67.7247 334.528 68.081 336.887 68.1227 339.262C68.1227 339.335 68.0131 339.335 68.0131 339.262C67.3519 334.493 66.1925 329.806 64.5539 325.279C64.5491 325.263 64.5475 325.246 64.5492 325.23C64.5509 325.213 64.5559 325.197 64.5638 325.182C64.5717 325.168 64.5824 325.155 64.5954 325.144C64.6083 325.134 64.6232 325.126 64.6392 325.121C64.6552 325.116 64.672 325.114 64.6886 325.116C64.7052 325.118 64.7213 325.123 64.736 325.131C64.7507 325.139 64.7637 325.149 64.7743 325.162C64.7848 325.175 64.7927 325.19 64.7975 325.206Z" fill="#263238"/>
<path d="M49.67 319.36C50.6034 318.452 51.6666 317.689 52.8246 317.094C54.0041 316.562 55.2264 316.13 56.4786 315.803C56.6248 315.803 56.6613 315.998 56.4786 316.022C55.2429 316.349 54.0554 316.836 52.9464 317.472C51.8217 318.062 50.7392 318.729 49.7066 319.469C49.699 319.481 49.6883 319.49 49.6759 319.495C49.6634 319.501 49.6496 319.503 49.6361 319.501C49.6225 319.499 49.6098 319.493 49.5992 319.485C49.5887 319.476 49.5808 319.465 49.5765 319.452C49.5722 319.439 49.5716 319.425 49.5748 319.411C49.578 319.398 49.5848 319.386 49.5946 319.376C49.6043 319.367 49.6165 319.36 49.6299 319.357C49.6432 319.354 49.6571 319.355 49.67 319.36Z" fill="#263238"/>
<path d="M90.2416 290.858C90.2416 290.858 87.9518 262.844 67.1727 253.843C49.8284 246.28 39.8895 265.78 52.1547 277.716C62.118 287.363 77.952 283.014 90.2416 290.858Z" fill="#E67109"/>
<path d="M56.0279 259.263C59.189 260.538 62.2719 261.998 65.2604 263.636C67.7511 265.069 70.1473 266.659 72.4344 268.398C72.0933 267.692 71.7888 266.949 71.4478 266.255C70.8997 265.183 70.3272 264.123 69.6817 263.1C68.399 260.987 66.8609 259.04 65.102 257.302C64.9924 257.205 65.102 257.047 65.2725 257.144C67.0457 258.881 68.675 260.759 70.1445 262.759C70.8662 263.769 71.5252 264.823 72.1177 265.914C72.7061 266.935 73.1488 268.034 73.4331 269.178L73.6646 269.336C77.2946 272.24 80.6206 275.505 83.5913 279.08C83.5913 278.8 83.4695 278.532 83.3964 278.276C83.0066 276.912 82.5925 275.56 82.1784 274.208C81.2819 271.343 80.0211 268.604 78.4269 266.06C78.3417 265.938 78.5487 265.828 78.6218 265.95C80.2512 268.499 81.704 271.156 82.9701 273.904C83.5449 275.245 84.0252 276.625 84.4073 278.033C84.7061 278.947 84.9301 279.884 85.0772 280.834C85.9907 281.991 86.8799 283.148 87.7203 284.342C96.636 297.034 101.118 312.356 102.19 327.764C102.499 332.345 102.576 336.938 102.422 341.527C102.382 346.16 101.975 350.783 101.204 355.351C101.204 355.632 100.692 355.546 100.704 355.266C100.802 351.235 101.216 347.203 101.301 343.171C101.386 339.14 101.301 335.072 100.911 330.991C100.251 322.928 98.7323 314.957 96.3803 307.216C93.962 299.288 90.4004 291.754 85.808 284.854C84.9311 284.683 84.0663 284.452 83.2137 284.232C82.1662 283.964 81.1309 283.697 80.0956 283.404C78.0978 282.88 76.1559 282.162 74.2979 281.261C74.1639 281.187 74.2979 280.993 74.4197 281.066C76.2485 282.066 78.2335 282.75 80.2905 283.088C81.9104 283.416 83.6034 283.623 85.2356 284.001C83.7252 281.809 82.1175 279.677 80.3636 277.643C76.4039 278.004 72.4118 277.708 68.549 276.766C66.4791 276.273 64.4446 275.643 62.459 274.878C60.3762 274.074 58.403 273.051 56.369 272.186C56.2106 272.126 56.369 271.894 56.4542 271.979C60.1754 274.01 64.2379 275.339 68.4393 275.901C72.1499 276.494 75.8997 276.807 79.6571 276.839C78.1712 275.146 76.6487 273.49 75.0287 271.967C69.5964 266.742 63.1167 261.967 55.9305 259.434C55.7965 259.434 55.8696 259.203 56.0279 259.263Z" fill="#263238"/>
<path d="M72.9096 259.349C73.8678 260.53 74.7389 261.78 75.5161 263.088C76.2917 264.453 76.9049 265.904 77.3431 267.412C77.3431 267.412 77.2822 267.497 77.27 267.412C76.5758 266.048 76.052 264.623 75.2847 263.259C74.614 261.914 73.7971 260.648 72.8487 259.483C72.6538 259.434 72.8121 259.227 72.9096 259.349Z" fill="#263238"/>
<path d="M53.5921 268.654C54.9446 269.381 56.3693 269.965 57.8429 270.396C59.27 270.861 60.7216 271.248 62.1912 271.553C62.1912 271.553 62.1912 271.687 62.1912 271.675C60.6614 271.512 59.1543 271.181 57.6968 270.688C56.2586 270.151 54.8552 269.524 53.4947 268.813C53.4751 268.813 53.4558 268.808 53.4389 268.798C53.422 268.788 53.408 268.774 53.3984 268.757C53.3888 268.74 53.3839 268.72 53.3843 268.701C53.3847 268.681 53.3903 268.662 53.4005 268.645C53.4108 268.629 53.4253 268.615 53.4426 268.606C53.4599 268.597 53.4793 268.593 53.4989 268.593C53.5184 268.594 53.5374 268.6 53.5538 268.611C53.5702 268.622 53.5834 268.637 53.5921 268.654Z" fill="#263238"/>
<path d="M106.392 285.828C106.514 287.046 109.535 275.682 127.098 265.597C143.054 256.438 162.091 232.638 146.452 217.596C133.822 205.452 100.558 231.919 106.392 285.828Z" fill="#E67109"/>
<path d="M94.2975 350.918C94.5504 339.1 95.4817 327.307 97.0868 315.596C98.471 304.814 100.956 294.203 104.504 283.928C105.808 280.274 107.306 276.62 108.926 272.966C108.834 271.574 108.858 270.176 108.999 268.788C109.084 266.998 109.242 265.219 109.413 263.429C109.583 261.639 109.754 259.86 109.973 258.082C110.192 256.304 110.558 254.538 110.631 252.759C110.631 252.601 110.899 252.625 110.85 252.759C110.503 254.625 110.295 256.514 110.229 258.411C110.095 260.14 109.998 261.858 109.937 263.587C109.876 265.317 109.937 267.046 109.937 268.776C109.937 269.397 109.937 270.067 109.937 270.725C111.593 267.241 113.359 263.794 115.272 260.457C114.054 253.149 115.637 245.549 117.123 238.436C117.123 238.289 117.366 238.35 117.342 238.436C116.61 242.156 116.223 245.935 116.185 249.727C116.112 252.723 116.258 255.707 116.27 258.703C116.684 257.985 117.111 257.266 117.488 256.559C119.762 252.832 122.198 249.178 124.796 245.597C124.591 243.869 124.648 242.12 124.967 240.409C125.233 238.489 125.64 236.592 126.185 234.733C126.745 232.865 127.391 231.034 128.121 229.24C128.889 227.401 129.9 225.647 130.63 223.795C130.643 223.768 130.667 223.747 130.695 223.736C130.724 223.726 130.755 223.728 130.783 223.74C130.81 223.753 130.831 223.777 130.842 223.805C130.852 223.834 130.85 223.865 130.838 223.893C129.906 225.641 129.171 227.488 128.645 229.398C128.064 231.193 127.584 233.018 127.208 234.867C126.83 236.718 126.526 238.521 126.27 240.433C126.1 241.651 125.99 242.954 125.771 244.209C129.58 239.259 133.727 234.579 138.182 230.202C138.292 230.105 138.438 230.263 138.34 230.372C131.649 237.863 125.671 245.961 120.485 254.562C120.29 254.879 120.107 255.208 119.924 255.536C120.886 254.927 121.995 254.452 122.908 253.941C124.614 252.991 126.323 252.053 128.036 251.127L133.006 248.472C133.858 247.997 134.699 247.498 135.563 247.059C136.601 246.593 137.599 246.043 138.547 245.415C138.681 245.305 138.815 245.512 138.681 245.585C136.988 246.523 135.49 247.9 133.809 248.947C132.129 249.994 130.497 251.005 128.791 251.955C125.673 253.697 122.275 254.952 119.206 256.754C117.074 260.481 115.113 264.318 113.298 268.216C115.166 267.022 117.066 265.881 118.999 264.793C120.241 264.103 121.495 263.421 122.762 262.747C124.016 262.172 125.201 261.457 126.294 260.615C126.404 260.518 126.562 260.615 126.453 260.774C124.424 262.627 122.174 264.223 119.754 265.524C117.488 266.839 115.211 268.118 112.872 269.263C110.98 273.38 109.283 277.57 107.781 281.833C100.388 302.77 97.6714 324.999 96.3682 347.081C95.9906 353.658 95.7835 360.236 95.6982 366.825C95.613 373.414 95.9662 379.979 95.954 386.557C95.954 386.752 95.6373 386.8 95.613 386.557C94.8213 380.71 94.6751 374.779 94.395 368.908C94.1148 363.037 94.1636 356.874 94.2975 350.918Z" fill="#263238"/>
<path d="M126.209 256.133C129.421 254.705 132.541 253.077 135.551 251.261C138.604 249.544 141.564 247.665 144.418 245.634C144.418 245.634 144.516 245.634 144.418 245.719C141.721 247.904 138.872 249.894 135.892 251.675C132.774 253.409 129.552 254.951 126.246 256.292C126.185 256.389 126.075 256.182 126.209 256.133Z" fill="#263238"/>
<path d="M121.118 232.455C121.386 231.444 121.703 230.433 122.056 229.435C122.056 229.435 121.983 229.374 122.056 229.325C122.275 228.753 122.506 228.192 122.738 227.632C122.738 227.559 122.738 227.486 122.823 227.425C122.908 227.364 122.908 227.218 122.957 227.108C123.006 226.999 122.957 227.108 122.957 227.108C122.957 227.108 122.847 227.498 122.787 227.693C122.764 227.804 122.735 227.914 122.701 228.022C121.535 231.926 120.664 235.912 120.095 239.946C120.095 240.068 119.876 240.08 119.888 239.946C120.06 237.416 120.471 234.908 121.118 232.455Z" fill="#263238"/>
<path d="M75.7351 355.169L76.9896 370.028L80.8263 415.338H121.934L125.771 370.028L127.025 355.169H75.7351Z" fill="#455A64"/>
<path d="M75.7351 355.169L76.9896 370.028H125.771L127.025 355.169H75.7351Z" fill="#263238"/>
<path d="M71.7035 363.451H131.057V349.201H71.7035V363.451Z" fill="#455A64"/>
<path d="M246.779 348.981C245.793 349.042 241.189 349.31 234.477 349.737C231.956 345.534 228.911 338.056 229.703 327.264C229.837 325.486 226.049 335.851 228.229 350.126C215.233 350.918 197.572 351.99 182.128 352.782C181.604 346.765 180.849 341.211 180.849 341.211C180.502 345.182 179.805 349.115 178.766 352.964C176.659 353.098 174.588 353.171 172.603 353.269C172.7 343.89 170.52 327.642 170.52 327.642C169.735 336.629 167.48 345.426 163.846 353.683C154.102 354.085 147.573 354.17 148.012 353.683C162.213 336.107 150.983 326.716 154.65 311.577C159.047 293.428 174.418 290.006 173.456 276.535C172.7 265.573 170.593 245.719 184.296 240.945C187.91 237.136 192.566 234.477 197.682 233.298C202.799 232.12 208.149 232.475 213.065 234.319C235.281 241.895 227.876 276.06 229.63 282.881C232.066 292.625 236.938 295.925 240.835 307.009C244.733 318.093 239.946 325.949 239.617 333.659C239.288 341.369 249.24 348.872 246.779 348.981Z" fill="#263238"/>
<path d="M147.378 351.271C149.292 348.245 150.772 344.965 151.775 341.527C152.774 338.141 152.165 334.743 151.349 331.223C150.428 327.674 149.692 324.081 149.144 320.456C148.603 316.67 148.826 312.814 149.802 309.116C150.865 305.417 152.765 302.012 155.356 299.165C157.861 296.455 160.586 293.958 163.504 291.699C166.331 289.534 168.862 287.007 171.031 284.184C173.105 281.254 174.339 277.813 174.6 274.233C174.884 277.954 174.034 281.673 172.164 284.902C170.194 288.052 167.759 290.885 164.941 293.307C162.264 295.671 159.738 298.201 157.378 300.883C155.157 303.506 153.524 306.575 152.591 309.884C151.741 313.232 151.522 316.71 151.945 320.139C152.274 323.647 153.066 327.155 153.663 330.772C153.997 332.614 154.188 334.479 154.235 336.351C154.226 338.273 153.876 340.178 153.2 341.978C151.817 345.392 149.846 348.537 147.378 351.271Z" fill="#263238"/>
<path d="M225.866 246.438C227.541 250.614 228.702 254.978 229.325 259.434C230.056 263.868 230.543 268.325 231.018 272.759L231.736 279.385C231.936 281.523 232.343 283.636 232.954 285.694C234.172 289.762 236.608 293.258 239.361 296.814C240.754 298.636 242.024 300.548 243.161 302.539C244.291 304.585 245.19 306.75 245.841 308.994C246.413 311.231 246.82 313.507 247.059 315.803C247.305 318.117 247.264 320.453 246.937 322.758C246.62 325.06 246.06 327.24 245.597 329.384C245.128 331.514 244.863 333.683 244.806 335.864C244.822 338.045 245.358 340.191 246.368 342.125C247.379 344.059 248.834 345.724 250.615 346.984C248.593 345.875 246.878 344.282 245.621 342.348C244.365 340.414 243.608 338.198 243.417 335.9C243.295 333.613 243.405 331.32 243.746 329.055C244.05 326.802 244.525 324.646 244.696 322.502C244.971 318.204 244.464 313.891 243.198 309.774C242.562 307.743 241.717 305.784 240.677 303.928C239.58 302.054 238.359 300.255 237.023 298.544C235.636 296.736 234.343 294.858 233.149 292.917C231.943 290.902 230.99 288.746 230.311 286.498C229.718 284.257 229.339 281.965 229.179 279.653C228.972 277.4 228.85 275.171 228.728 272.942C228.472 268.484 228.265 264.038 227.888 259.617C227.667 255.166 226.99 250.75 225.866 246.438Z" fill="#263238"/>
<path d="M568.684 487.736C564.884 489.185 454.643 494.106 450.331 491.646C449.856 491.366 449.99 486.494 448.37 473.912C448.285 473.315 445.764 470.976 441.842 467.688C427.104 455.325 392.452 429.272 392.452 429.272L447.469 381.478L500.793 433.852L514.654 447.481C514.654 447.481 559.72 468.893 564.153 472.109C568.587 475.325 572.46 486.274 568.684 487.736Z" fill="#AD6359"/>
<path d="M568.684 487.736C564.884 489.185 454.643 494.106 450.319 491.646C449.856 491.366 449.978 486.494 448.358 473.912C464.131 476.348 548.234 480.672 551.108 470.769C552.253 466.872 539.757 459.807 537.503 458.516C549.391 464.289 561.863 470.513 564.165 472.121C568.587 475.349 572.46 486.274 568.684 487.736Z" fill="#263238"/>
<path d="M481.341 409.419L472.815 419.102L430.49 467.432C430.49 467.432 372.233 425.082 355.12 411.099C354.572 410.636 287.278 458.248 238.07 467.432C200.312 474.484 174.734 460.246 159.911 425.07L222.261 397.482C274.513 371.721 333.391 330.724 368.993 335.035C407.665 339.725 481.341 409.419 481.341 409.419Z" fill="#37474F"/>
<path d="M468.029 405.886C459.332 415.289 461.707 412.476 453.12 421.976C448.906 426.629 427.725 449.99 424.534 454.923C424.461 455.033 424.607 455.167 424.717 455.094C429.284 451.318 449.966 427.555 454.083 422.829C462.499 413.182 459.978 415.862 468.297 406.13C468.322 406.094 468.333 406.049 468.328 406.005C468.323 405.961 468.302 405.921 468.269 405.891C468.236 405.861 468.194 405.844 468.15 405.844C468.106 405.843 468.062 405.858 468.029 405.886Z" fill="#263238"/>
<path d="M466.116 426.787L430.526 467.444C430.526 467.444 372.233 425.082 355.12 411.099C354.572 410.637 287.278 458.248 238.082 467.444C200.325 474.484 174.686 460.246 159.911 425.07L222.261 397.47C229.179 394.06 236.207 390.393 243.296 386.593C298.045 396.569 418.03 418.152 466.116 426.787Z" fill="#263238"/>
<path d="M559.61 508.21C555.822 509.672 445.569 514.581 441.257 512.12C440.782 511.84 440.916 506.98 439.296 494.386C439.211 493.789 436.702 491.451 432.768 488.162C418.03 475.799 383.378 449.759 383.378 449.759L438.395 401.94L491.719 454.314L505.58 467.931C505.58 467.931 550.646 489.344 555.091 492.559C559.537 495.775 563.41 506.749 559.61 508.21Z" fill="#AD6359"/>
<path d="M559.622 508.21C555.822 509.66 445.569 514.593 441.257 512.12C440.782 511.84 440.916 506.98 439.284 494.398C455.057 496.773 539.16 501.158 542.046 491.244C543.191 487.358 530.682 480.282 528.429 478.991C540.317 484.764 552.789 490.988 555.091 492.608C559.512 495.836 563.41 506.749 559.622 508.21Z" fill="#263238"/>
<path d="M525.531 477.858C521.048 475.422 516.59 472.986 512.035 470.793C509.872 469.846 507.858 468.59 506.055 467.066C504.191 465.373 502.401 463.559 500.61 461.817C493.217 454.765 485.848 447.676 478.394 440.672C474.362 436.884 470.379 433.06 466.384 429.235C466.287 429.138 466.116 429.235 466.202 429.381C466.445 429.759 473.169 436.945 476.396 440.197C480.05 443.851 483.704 447.444 487.358 451.038L498.32 461.756C500.16 463.559 501.974 465.337 503.862 467.115C505.498 468.754 507.396 470.108 509.477 471.122C514.702 473.558 520.013 475.86 525.311 478.138C525.567 478.211 525.713 477.955 525.531 477.858Z" fill="#263238"/>
<path d="M149.814 414.12C149.814 414.12 141.727 458.394 164.869 477.31C181.482 490.964 203.406 492.303 222.322 489.636C274.696 482.194 319.055 418.992 336.473 415.569C345.401 413.84 415.643 483.315 415.643 483.315L470.221 430.49C456.336 418.432 373.561 334.743 331.783 334.743C303.185 334.743 230.689 394.157 228.923 393.463C226.073 392.318 213.382 386.228 213.382 386.228L149.814 414.12Z" fill="#37474F"/>
<path d="M459.186 424.863C452.353 430.612 445.971 436.884 439.515 442.999C433.06 449.113 426.702 455.24 420.405 461.464C416.824 464.996 413.267 468.54 409.832 472.182C409.735 472.267 409.832 472.401 409.966 472.316C416.714 466.47 423.182 460.331 429.649 454.192C436.117 448.054 442.463 442.012 448.784 435.752C452.365 432.244 455.982 428.724 459.369 425.046C459.478 424.924 459.308 424.765 459.186 424.863Z" fill="#263238"/>
<path d="M193.151 407.299C193.053 407.056 192.688 407.226 192.749 407.458C194.315 414.099 193.496 421.079 190.434 427.177C186.89 433.937 180.459 438.784 174.747 443.596C174.198 444.071 174.893 444.935 175.502 444.582C179.204 442.415 182.66 439.85 185.806 436.933C188.719 434.363 191.077 431.226 192.736 427.713C194.22 424.526 195.023 421.064 195.094 417.55C195.166 414.035 194.504 410.544 193.151 407.299Z" fill="#263238"/>
<path d="M229.946 397.884C228.338 396.666 226.633 395.606 224.989 394.461C221.091 391.77 217.169 389.078 213.162 386.544C212.785 386.313 212.334 386.91 212.699 387.19C215.525 389.334 218.436 391.356 221.323 393.402C222.809 394.461 224.282 395.509 225.781 396.544C227.276 397.434 228.68 398.47 229.971 399.638C231.189 400.917 230.494 402.5 228.972 403.085C227.603 403.504 226.125 403.382 224.843 402.744C221.907 401.526 219.252 399.407 216.609 397.689C214.985 396.626 213.361 395.578 211.737 394.547C209.995 393.451 208.193 392.464 206.463 391.368C206.354 391.295 206.22 391.477 206.329 391.563C207.925 392.781 209.459 394.206 211.067 395.485C212.675 396.764 214.295 398.018 215.939 399.26C217.583 400.503 219.069 401.562 220.665 402.659C222.024 403.64 223.533 404.393 225.135 404.888C227.729 405.582 231.676 404.802 232.078 401.587C232.085 400.836 231.891 400.096 231.516 399.445C231.141 398.794 230.599 398.255 229.946 397.884Z" fill="#263238"/>
<path d="M466.616 426.3C463.169 422.756 459.539 419.382 455.946 415.996C452.353 412.61 448.784 409.285 445.155 405.984C437.847 399.346 430.478 392.781 422.938 386.423C415.399 380.065 407.628 373.938 399.674 368.092C391.721 362.245 383.731 356.813 375.314 351.832C371.112 349.335 366.788 346.96 362.44 344.718C358.175 342.464 353.797 340.432 349.322 338.628C348.104 338.178 346.886 337.727 345.668 337.228C345.486 337.155 345.327 337.423 345.51 337.496C347.751 338.507 349.907 339.7 352.099 340.796C354.292 341.893 356.399 343.001 358.53 344.122C362.818 346.399 367.056 348.774 371.246 351.259C379.642 356.253 387.823 361.596 395.789 367.288C403.767 372.988 411.501 379.005 419.041 385.253C426.58 391.502 434.132 397.969 441.488 404.547C448.845 411.124 456.043 417.725 463.412 424.266C464.338 425.082 465.264 425.898 466.214 426.702C466.27 426.727 466.333 426.734 466.393 426.723C466.454 426.712 466.509 426.683 466.553 426.639C466.596 426.596 466.626 426.54 466.637 426.479C466.648 426.419 466.641 426.356 466.616 426.3Z" fill="#263238"/>
<path d="M412.829 465.142C396.008 449.137 350.455 408.371 340.139 401.55C339.099 400.872 337.932 400.414 336.708 400.205C335.485 399.995 334.232 400.039 333.026 400.332C330.37 400.99 328.239 402.963 326.144 404.62L318.653 410.551L303.27 422.731C293.66 430.368 284.111 438.078 274.403 445.581C265.832 452.415 256.756 458.591 247.254 464.058C228.984 474.216 205.842 480.708 185.733 471.938C176.573 467.856 169.212 460.577 165.027 451.464C160.679 442.39 158.839 432.305 157.719 422.378C157.451 419.942 157.232 417.567 157.037 415.155C157.042 415.141 157.044 415.125 157.042 415.109C157.04 415.094 157.034 415.079 157.025 415.066C157.016 415.053 157.004 415.042 156.99 415.035C156.977 415.028 156.961 415.024 156.945 415.024C156.93 415.024 156.914 415.028 156.9 415.035C156.886 415.042 156.874 415.053 156.865 415.066C156.856 415.079 156.851 415.094 156.849 415.109C156.847 415.125 156.849 415.141 156.854 415.155C157.792 433.876 160.752 455.593 176.598 467.907C193.443 480.988 217.133 478.711 235.744 471.074C256.608 462.548 274.099 447.542 291.565 433.657L322.1 409.394C324.536 407.433 326.972 405.387 329.518 403.511C332.063 401.635 335.047 400.235 337.958 401.928C347.605 407.543 410.149 463.534 412.366 465.483C412.707 465.775 413.097 465.386 412.829 465.142Z" fill="#263238"/>
<path d="M206.524 318.994C217.742 325.803 274.403 357.057 292.905 347.703C315.328 336.351 339.006 314.439 346.996 301.248C351.466 293.855 314.475 272.649 309.616 278.776C301.967 288.52 282.101 306.473 278.496 309.226C274.89 311.979 235.768 303.574 213.881 302.088C194.161 300.712 198.619 314.244 206.524 318.994Z" fill="#AD6359"/>
<path d="M359.87 283.794C356.509 292.247 342.818 306.839 338.202 309.092C333.586 311.345 307.971 288.958 308.3 283.672C308.629 278.386 322.161 250.786 330.224 246.207C338.287 241.627 363.366 274.988 359.87 283.794Z" fill="#AD6359"/>
<path d="M309.774 278.52C309.774 278.52 309.908 266.681 306.534 256.815C303.708 248.509 298.556 236.511 302.965 234.818C312.003 231.347 324.829 261.285 324.829 261.285C324.829 261.285 328.361 275.402 319.713 279.628C318.115 280.378 316.341 280.671 314.587 280.475C312.833 280.28 311.168 279.603 309.774 278.52Z" fill="#AD6359"/>
<path d="M319.238 255.707C320.03 260.469 325.182 256.815 325.182 256.815C325.182 256.815 319.031 263.855 321.735 268.447C324.366 272.856 330.431 268.228 330.87 267.899C330.553 268.277 325.072 274.903 328.263 279.227C331.454 283.55 336.887 278.009 337.228 277.668C337.033 278.118 334.585 284.111 337.764 286.851C343.232 291.541 349.944 276.389 355.437 274.513C355.437 274.513 359.7 283.502 359.87 283.745C359.87 283.745 366.521 269.458 363.524 262.138C363.11 261.069 362.344 260.174 361.351 259.6C360.359 259.026 359.201 258.809 358.068 258.983C358.068 258.983 360.723 254.611 358.311 251.115C357.093 249.337 353.098 249.727 353.098 249.727C353.098 249.727 355.084 246.146 352.745 243.174C350.881 240.738 347.203 241.566 347.203 241.566C347.203 241.566 347.495 237.242 344.767 235.476C339.444 231.761 317.545 245.524 319.238 255.707Z" fill="#AD6359"/>
<path d="M346.643 241.59C346.659 241.59 346.674 241.584 346.686 241.572C346.697 241.561 346.704 241.546 346.704 241.529C346.704 241.513 346.697 241.498 346.686 241.486C346.674 241.475 346.659 241.468 346.643 241.468C337.979 244.314 330.387 249.731 324.877 256.998C324.706 257.242 325.011 257.619 325.255 257.388C331.583 251.116 338.787 245.795 346.643 241.59Z" fill="#263238"/>
<path d="M353.22 249.617C353.305 249.617 353.22 249.422 353.135 249.459C344.609 252.357 335.437 258.898 330.492 267.85C330.322 268.155 330.492 268.606 330.699 268.264C334.451 262.564 345.802 253.441 353.22 249.617Z" fill="#263238"/>
<path d="M337.094 278.41C342.173 270.006 349.432 264.087 357.8 259.081C357.909 259.008 357.8 258.862 357.702 258.898C352.964 260.238 347.958 263.989 344.365 267.229C340.947 270.166 338.357 273.945 336.85 278.191C336.74 278.398 336.996 278.581 337.094 278.41Z" fill="#263238"/>
<path d="M325.011 256.815C324.816 257.095 325.45 257.083 325.255 257.363C324.439 258.581 320.188 266.291 322.368 268.557C324.11 270.372 327.764 269.275 328.994 268.313L332.112 265.877L330.041 269.251C329.1 270.752 328.412 272.398 328.007 274.123C327.775 274.904 327.71 275.726 327.817 276.534C327.924 277.342 328.201 278.119 328.629 278.812C329.03 279.442 329.633 279.916 330.339 280.157C331.045 280.398 331.812 280.392 332.514 280.14C334.095 279.525 335.492 278.514 336.57 277.205L339.676 273.697L337.898 278.009C337.402 279.207 337.062 280.463 336.887 281.748C336.659 282.98 336.803 284.252 337.301 285.402C337.543 285.901 337.92 286.323 338.389 286.62C338.858 286.917 339.401 287.077 339.956 287.083C341.192 286.902 342.352 286.379 343.305 285.572C345.392 283.84 347.342 281.951 349.14 279.921C350.09 278.922 351.028 277.923 352.026 276.961C352.967 275.948 354.113 275.146 355.388 274.61C354.196 275.273 353.145 276.163 352.294 277.229C351.393 278.252 350.528 279.312 349.663 280.371C347.971 282.571 346.079 284.61 344.012 286.461C342.904 287.478 341.524 288.15 340.041 288.398C339.218 288.442 338.399 288.245 337.686 287.832C336.972 287.419 336.394 286.807 336.022 286.072C335.375 284.69 335.154 283.146 335.388 281.638C335.562 280.201 335.923 278.792 336.46 277.448L337.788 278.252C336.537 279.823 334.895 281.037 333.026 281.772C331.98 282.156 330.832 282.156 329.786 281.772C328.768 281.373 327.894 280.677 327.277 279.775C326.736 278.897 326.386 277.915 326.252 276.892C326.118 275.87 326.201 274.831 326.497 273.843C326.976 271.967 327.758 270.181 328.811 268.557L329.847 269.495C328.239 270.713 324.293 272.345 321.223 269.872C317.752 265.962 323.805 258.216 325.011 256.815Z" fill="#263238"/>
<path d="M325.206 256.815C324.296 257.218 323.331 257.481 322.344 257.595C321.95 257.654 321.548 257.606 321.179 257.456C320.81 257.306 320.489 257.059 320.249 256.742C319.825 255.968 319.627 255.09 319.676 254.209C319.676 253.234 319.761 252.223 319.871 251.164C319.265 252.051 318.85 253.055 318.653 254.111C318.511 254.686 318.485 255.284 318.575 255.869C318.664 256.454 318.869 257.016 319.177 257.522C319.572 258.043 320.115 258.434 320.736 258.642C321.329 258.807 321.957 258.807 322.551 258.642C323.606 258.328 324.535 257.688 325.206 256.815Z" fill="#263238"/>
<path d="M274.232 308.519L259.616 346.034C259.616 346.034 225.33 333.099 208.838 322.697C192.346 312.295 191.141 301.492 215.537 301.492C230.981 301.492 274.232 308.519 274.232 308.519Z" fill="#E67109"/>
<path d="M199.046 308.86L198.157 309.957L198.23 311.37L197.146 310.955C196.745 309.855 196.711 308.654 197.048 307.533L197.682 308.507L199.046 308.86Z" fill="#E67109"/>
<path d="M222.651 308.86L221.761 309.957L221.835 311.37L220.507 310.87L219.191 311.37L219.265 309.957L218.375 308.86L219.74 308.507L220.507 307.314L221.286 308.507L222.651 308.86Z" fill="#E67109"/>
<path d="M234.44 325.925L233.551 327.021L233.624 328.434L232.309 327.934L230.994 328.434L231.067 327.021L230.177 325.925L231.542 325.571L232.309 324.378L233.076 325.571L234.44 325.925Z" fill="#E67109"/>
<path d="M246.243 308.86L245.354 309.957L245.427 311.37L244.111 310.87L242.796 311.37L242.869 309.957L241.98 308.86L243.344 308.507L244.111 307.314L244.879 308.507L246.243 308.86Z" fill="#E67109"/>
<path d="M258.045 325.925L257.156 327.021L257.229 328.434L255.914 327.934L254.586 328.434L254.672 327.021L253.782 325.925L255.147 325.571L255.914 324.378L256.681 325.571L258.045 325.925Z" fill="#E67109"/>
<path d="M268.947 309.957L269.032 311.37L267.704 310.87L266.389 311.37L266.462 309.957L265.573 308.86L266.937 308.507L267.582 307.508H267.863L268.484 308.471L269.848 308.824L268.947 309.957Z" fill="#E67109"/>
<g opacity="0.2">
<path opacity="0.2" d="M198.156 309.957L198.23 311.37L197.146 310.955C196.751 309.85 196.717 308.647 197.048 307.521L197.681 308.495L199.046 308.848L198.156 309.957Z" fill="black"/>
<path opacity="0.2" d="M221.761 309.957L221.835 311.37L220.507 310.87L219.191 311.37L219.265 309.957L218.375 308.86L219.74 308.507L220.507 307.314L221.286 308.507L222.651 308.86L221.761 309.957Z" fill="black"/>
<path opacity="0.2" d="M245.354 309.957L245.427 311.37L244.112 310.87L242.796 311.37L242.869 309.957L241.98 308.86L243.344 308.507L244.112 307.314L244.879 308.507L246.243 308.86L245.354 309.957Z" fill="black"/>
<path opacity="0.2" d="M268.947 309.957L269.032 311.37L267.704 310.87L266.389 311.37L266.462 309.957L265.573 308.86L266.937 308.507L267.582 307.508H267.826L268.447 308.471L269.811 308.824L268.947 309.957Z" fill="black"/>
<path opacity="0.2" d="M233.551 327.021L233.624 328.434L232.309 327.934L230.994 328.434L231.067 327.021L230.177 325.925L231.542 325.571L232.309 324.378L233.076 325.571L234.44 325.925L233.551 327.021Z" fill="black"/>
<path opacity="0.2" d="M257.156 327.021L257.229 328.434L255.914 327.934L254.586 328.434L254.672 327.021L253.782 325.925L255.147 325.571L255.914 324.378L256.681 325.571L258.045 325.925L257.156 327.021Z" fill="black"/>
</g>
<path d="M253.539 340.821C255.975 335.766 258.021 330.456 260.019 325.194C262.016 319.932 263.843 314.707 265.414 309.36C265.414 309.262 265.28 309.189 265.244 309.299C263.027 314.475 260.993 319.737 259.02 325.011C257.047 330.285 255.013 335.437 253.344 340.76C253.344 340.869 253.49 340.93 253.539 340.821Z" fill="#263238"/>
<path opacity="0.1" d="M263.733 335.388L259.568 346.034C259.568 346.034 225.33 333.099 208.838 322.697C198.242 315.986 193.954 309.116 198.79 305.085L263.733 335.388Z" fill="black"/>
<path d="M235.415 376.179L238.899 388.932C238.899 388.932 146.331 459.637 142.128 457.371C142.128 457.371 155.843 333.854 179.558 309.335C191.421 297.07 204.965 298.373 213.394 307.314C215.586 309.591 238.728 338.604 241.164 351.868C243.259 363.561 235.415 376.179 235.415 376.179Z" fill="#E67109"/>
<path d="M233.698 335.206C232.285 332.599 230.787 330.078 229.179 327.581C228.806 326.646 228.374 325.734 227.888 324.853C227.23 323.549 226.584 322.258 226.012 320.919C226.011 320.903 226.006 320.889 225.997 320.876C225.989 320.863 225.978 320.852 225.965 320.844C225.952 320.836 225.937 320.832 225.921 320.831C225.906 320.829 225.891 320.832 225.877 320.838C225.862 320.844 225.85 320.854 225.84 320.865C225.83 320.877 225.823 320.891 225.82 320.906C225.817 320.921 225.817 320.937 225.82 320.951C225.824 320.966 225.831 320.98 225.841 320.992C226.45 322.319 227.059 323.659 227.522 325.011C227.556 325.082 227.584 325.155 227.608 325.23C227.011 324.39 226.39 323.549 225.793 322.721C224.867 321.389 223.875 320.105 222.821 318.872C222.76 318.811 222.675 318.872 222.711 318.958C223.491 320.358 224.465 321.662 225.33 323.001C226.195 324.341 227.12 325.803 228.034 327.179C229.849 329.907 231.688 332.599 233.539 335.303C233.543 335.318 233.55 335.332 233.56 335.343C233.57 335.355 233.583 335.364 233.597 335.37C233.611 335.375 233.626 335.378 233.642 335.376C233.657 335.375 233.672 335.37 233.685 335.362C233.698 335.354 233.709 335.343 233.717 335.33C233.725 335.317 233.73 335.303 233.731 335.287C233.732 335.272 233.73 335.257 233.724 335.243C233.718 335.228 233.709 335.216 233.698 335.206Z" fill="#263238"/>
<g opacity="0.2">
<path opacity="0.2" d="M196.914 307.314L197.682 308.495L199.046 308.86L198.157 309.969L198.23 311.37L196.914 310.87L195.599 311.37L195.672 309.969L194.783 308.86L196.147 308.495L196.914 307.314Z" fill="black"/>
<path opacity="0.2" d="M173.309 340.943L174.089 342.136L175.453 342.502L174.552 343.598L174.637 344.998L173.309 344.499L171.994 344.998L172.067 343.598L171.178 342.502L172.542 342.136L173.309 340.943Z" fill="black"/>
<path opacity="0.2" d="M196.914 340.943L197.682 342.136L199.046 342.502L198.157 343.598L198.23 344.998L196.914 344.499L195.599 344.998L195.672 343.598L194.783 342.502L196.147 342.136L196.914 340.943Z" fill="black"/>
<path opacity="0.2" d="M220.507 340.943L221.286 342.136L222.651 342.502L221.749 343.598L221.835 344.998L220.507 344.499L219.191 344.998L219.265 343.598L218.375 342.502L219.74 342.136L220.507 340.943Z" fill="black"/>
<path opacity="0.2" d="M185.112 324.378L185.879 325.571L187.243 325.925L186.354 327.033L186.427 328.434L185.112 327.934L183.796 328.434L183.869 327.033L182.98 325.925L184.344 325.571L185.112 324.378Z" fill="black"/>
<path opacity="0.2" d="M208.717 324.378L209.484 325.571L210.848 325.925L209.959 327.033L210.032 328.434L208.717 327.934L207.389 328.434L207.474 327.033L206.573 325.925L207.949 325.571L208.717 324.378Z" fill="black"/>
<path opacity="0.2" d="M173.309 374.584L174.089 375.765L175.453 376.131L174.552 377.227L174.637 378.64L173.309 378.128L171.994 378.64L172.067 377.227L171.178 376.131L172.542 375.765L173.309 374.584Z" fill="black"/>
<path opacity="0.2" d="M196.914 374.584L197.682 375.765L199.046 376.131L198.157 377.227L198.23 378.64L196.914 378.128L195.599 378.64L195.672 377.227L194.783 376.131L196.147 375.765L196.914 374.584Z" fill="black"/>
<path opacity="0.2" d="M220.507 374.584L221.286 375.765L222.651 376.131L221.749 377.227L221.835 378.64L220.507 378.128L219.191 378.64L219.265 377.227L218.375 376.131L219.74 375.765L220.507 374.584Z" fill="black"/>
<path opacity="0.2" d="M161.519 358.007L162.287 359.2L163.651 359.566L162.762 360.662L162.835 362.063L161.519 361.563L160.204 362.063L160.277 360.662L159.388 359.566L160.752 359.2L161.519 358.007Z" fill="black"/>
<path opacity="0.2" d="M185.112 358.007L185.879 359.2L187.243 359.566L186.354 360.662L186.427 362.063L185.112 361.563L183.796 362.063L183.869 360.662L182.98 359.566L184.344 359.2L185.112 358.007Z" fill="black"/>
<path opacity="0.2" d="M208.717 358.007L209.484 359.2L210.848 359.566L209.959 360.662L210.032 362.063L208.717 361.563L207.389 362.063L207.474 360.662L206.573 359.566L207.949 359.2L208.717 358.007Z" fill="black"/>
<path opacity="0.2" d="M232.309 358.007L233.076 359.2L234.44 359.566L233.551 360.662L233.624 362.063L232.309 361.563L230.994 362.063L231.067 360.662L230.177 359.566L231.542 359.2L232.309 358.007Z" fill="black"/>
<path opacity="0.2" d="M150.959 410.856L151.032 412.269L149.717 411.757L148.499 412.232C148.645 411.294 148.803 410.344 148.962 409.394L149.717 408.176L150.484 409.394L151.848 409.76L150.959 410.856Z" fill="black"/>
<path opacity="0.2" d="M173.309 408.213L174.089 409.394L175.453 409.76L174.552 410.856L174.637 412.269L173.309 411.757L171.994 412.269L172.067 410.856L171.178 409.76L172.542 409.394L173.309 408.213Z" fill="black"/>
<path opacity="0.2" d="M196.914 408.213L197.682 409.394L199.046 409.76L198.157 410.856L198.23 412.269L196.914 411.757L195.599 412.269L195.672 410.856L194.783 409.76L196.147 409.394L196.914 408.213Z" fill="black"/>
<path opacity="0.2" d="M161.519 391.648L162.287 392.829L163.651 393.195L162.762 394.291L162.835 395.704L161.519 395.192L160.204 395.704L160.277 394.291L159.388 393.195L160.752 392.829L161.519 391.648Z" fill="black"/>
<path opacity="0.2" d="M185.112 391.648L185.879 392.829L187.243 393.195L186.354 394.291L186.427 395.704L185.112 395.192L183.796 395.704L183.869 394.291L182.98 393.195L184.344 392.829L185.112 391.648Z" fill="black"/>
<path opacity="0.2" d="M208.717 391.648L209.484 392.829L210.848 393.195L209.959 394.291L210.032 395.704L208.717 395.192L207.389 395.704L207.474 394.291L206.573 393.195L207.949 392.829L208.717 391.648Z" fill="black"/>
<path opacity="0.2" d="M231.03 394.9V394.291L230.141 393.195L231.505 392.829L232.273 391.611L233.04 392.829L233.564 392.963L231.03 394.9Z" fill="black"/>
<path opacity="0.2" d="M149.717 441.842L150.484 443.023L151.848 443.389L150.959 444.485L151.032 445.898L149.717 445.386L148.401 445.898L148.474 444.485L147.585 443.389L148.949 443.023L149.717 441.842Z" fill="black"/>
<path opacity="0.2" d="M161.519 425.277L162.287 426.458L163.651 426.824L162.762 427.92L162.835 429.333L161.519 428.821L160.204 429.333L160.277 427.92L159.388 426.824L160.752 426.458L161.519 425.277Z" fill="black"/>
<path opacity="0.2" d="M186.354 427.92V428.188L185.355 428.919L185.1 428.821L183.784 429.333L183.857 427.92L182.968 426.824L184.332 426.458L185.1 425.24L185.867 426.458L187.231 426.824L186.354 427.92Z" fill="black"/>
</g>
<path d="M177.828 311.698C145.174 345.693 97.5619 431.769 91.6789 444.107C87.6839 452.487 131.483 474.557 133.347 468.467C135.783 460.672 173.882 364.34 184.016 327.995C189.631 307.959 184.588 304.683 177.828 311.698Z" fill="#AD6359"/>
<path d="M135.429 462.73C133.907 466.896 128.706 484.654 125.064 486.835C121.422 489.015 102.312 488.564 92.7142 488.564C83.1163 488.564 81.2041 485.885 81.3624 482.572C81.5208 479.259 101.703 478.674 101.703 478.674C101.703 478.674 74.7487 486.408 67.9644 487.663C61.1801 488.917 45.5532 492.876 43.2999 487.249C42.2768 484.715 46.552 482.145 46.552 482.145C46.552 482.145 39.9991 484.057 38.9516 480.805C37.7336 477.151 42.9832 475.044 42.9832 475.044C42.9832 475.044 38.8786 475.873 38.7933 472.852C38.5741 466.092 64.2251 462.779 64.2251 462.779C64.2251 462.779 44.591 472.328 43.9576 466.823C43.0807 459.186 83.3234 450.818 87.5133 447.493C90.2505 445.173 92.5271 442.36 94.2245 439.199L135.429 462.73Z" fill="#AD6359"/>
<path d="M81.5085 484.252C81.4415 483.78 81.4895 483.299 81.6486 482.849C81.8076 482.4 82.073 481.995 82.422 481.67C83.1094 481.034 83.9002 480.519 84.7606 480.148C86.5423 479.39 88.389 478.795 90.2781 478.37C94.0661 477.395 97.9515 476.725 101.825 475.714C97.8257 475.661 93.8358 476.111 89.9492 477.054C87.9662 477.511 86.0561 478.241 84.2734 479.222C83.3579 479.736 82.5545 480.427 81.9104 481.256C81.5916 481.679 81.3872 482.177 81.3168 482.702C81.2464 483.227 81.3124 483.761 81.5085 484.252Z" fill="#263238"/>
<path d="M46.552 482.097C49.329 481.415 52.0574 480.635 54.7979 479.843C57.5384 479.052 60.2301 478.223 62.9585 477.407L71.0703 474.862C73.7865 474.009 76.4904 473.169 79.2188 472.353C76.3849 472.653 73.5735 473.137 70.8024 473.802C68.0132 474.435 65.2848 475.239 62.5565 476.068C59.8282 476.896 57.1364 477.809 54.469 478.82C51.8016 479.831 49.1463 480.891 46.552 482.097Z" fill="#263238"/>
<path d="M72.7147 465.617C70.0978 465.785 67.4967 466.144 64.9317 466.689C62.3617 467.209 59.8207 467.864 57.3192 468.65C54.8088 469.413 52.3444 470.32 49.9381 471.366C47.5269 472.415 45.1945 473.636 42.959 475.02C45.395 474.167 47.831 473.217 50.267 472.389C52.703 471.561 55.139 470.72 57.6602 469.953C60.1815 469.186 62.6175 468.443 65.1022 467.712C67.5869 466.981 70.1813 466.299 72.7147 465.617Z" fill="#263238"/>
<path d="M68.7441 459.186C64.5221 459.504 60.3609 460.381 56.3692 461.793C52.3425 463.121 48.5091 464.976 44.9688 467.31C48.9638 465.885 52.837 464.387 56.7955 463.071C60.754 461.756 64.7247 460.477 68.7441 459.186Z" fill="#263238"/>
<path d="M132.762 366.204L169.058 378.895C169.058 378.895 183.272 343.062 186.403 323.866C189.533 304.67 185.903 300.529 169.351 318.422C152.798 336.314 132.762 366.204 132.762 366.204Z" fill="#E67109"/>
<g opacity="0.2">
<path opacity="0.2" d="M150.959 343.598L151.032 344.998L149.717 344.499L148.401 344.998V344.182C148.986 343.391 149.619 342.587 150.192 341.746L150.435 342.136L151.799 342.502L150.959 343.598Z" fill="black"/>
<path opacity="0.2" d="M173.309 340.943L174.089 342.136L175.453 342.502L174.552 343.598L174.637 344.998L173.309 344.499L171.994 344.998L172.067 343.598L171.178 342.502L172.542 342.136L173.309 340.943Z" fill="black"/>
<path opacity="0.2" d="M162.761 327.021L162.834 328.434L161.519 327.934L160.898 328.166L162.919 325.73L163.65 325.925L162.761 327.021Z" fill="black"/>
<path opacity="0.2" d="M186.123 325.632C185.976 326.436 185.806 327.277 185.623 328.068L185.112 327.873L183.796 328.373L183.869 326.96L182.98 325.864L184.344 325.51L185.112 324.292L185.879 325.51L186.123 325.632Z" fill="black"/>
<path opacity="0.2" d="M139.157 360.662L139.23 362.063L137.914 361.563L136.599 362.063L136.672 360.662V360.601C137.159 359.919 137.671 359.176 138.219 358.396L138.73 359.2L140.094 359.566L139.157 360.662Z" fill="black"/>
<path opacity="0.2" d="M161.519 358.007L162.286 359.2L163.65 359.566L162.761 360.662L162.834 362.063L161.519 361.563L160.204 362.063L160.277 360.662L159.387 359.566L160.752 359.2L161.519 358.007Z" fill="black"/>
</g>
<path d="M183.638 343.781C182.113 346.287 180.723 348.873 179.472 351.527C179.85 350.309 180.227 349.018 180.593 347.776C181.494 344.694 182.42 341.588 183.139 338.458C183.133 338.445 183.123 338.434 183.112 338.426C183.1 338.418 183.086 338.414 183.072 338.414C183.057 338.414 183.043 338.418 183.031 338.426C183.02 338.434 183.01 338.445 183.005 338.458C181.031 343.707 179.351 349.067 177.45 354.365C175.55 359.663 173.711 364.925 171.872 370.199C170.861 373.086 169.923 375.984 169.034 378.908L167.207 378.262C167.085 378.189 167.049 378.396 167.207 378.42L169.399 379.37C169.473 379.37 176.086 362.574 178.729 353.987C180.569 350.699 182.249 347.313 183.808 343.89C183.816 343.879 183.821 343.866 183.823 343.853C183.825 343.84 183.825 343.827 183.822 343.814C183.819 343.801 183.814 343.788 183.806 343.778C183.799 343.767 183.789 343.757 183.778 343.75C183.767 343.743 183.754 343.738 183.741 343.736C183.728 343.733 183.715 343.733 183.702 343.736C183.689 343.739 183.676 343.744 183.665 343.752C183.654 343.76 183.645 343.769 183.638 343.781Z" fill="#263238"/>
<path d="M170.52 372.501C165.429 370.065 160.094 368.177 154.808 366.253C149.522 364.328 144.26 362.599 138.888 361.076C138.779 361.076 138.73 361.222 138.888 361.259C144.101 363.402 149.388 365.351 154.722 367.251C160.057 369.151 165.197 371.112 170.556 372.696C170.573 372.684 170.586 372.667 170.594 372.648C170.602 372.628 170.604 372.607 170.6 372.587C170.596 372.566 170.587 372.547 170.572 372.532C170.558 372.517 170.54 372.506 170.52 372.501Z" fill="#263238"/>
<path d="M195.879 300.846C184.442 301.991 187.499 313.513 192.541 318.787C195.903 322.319 202.712 325.876 206.621 324.475C210.531 323.075 207.45 314.329 207.45 314.329C207.45 314.329 213.893 320.59 216.28 317.886C218.668 315.182 207.718 299.628 195.879 300.846Z" fill="#263238"/>
<path d="M189.935 306.826C190.581 308.459 199.301 315.036 206.987 313.562C209.423 313.075 208.327 302.539 208.327 302.539L208.412 301.492L209.52 286.876L191.25 278.605L188.632 277.546C188.632 277.546 188.632 281.577 188.632 286.583V287.302C188.632 287.582 188.632 287.85 188.632 288.118C188.632 288.861 188.632 289.628 188.632 290.396C188.632 290.968 188.632 291.54 188.632 292.149C188.632 292.758 188.632 293.367 188.632 293.964C188.78 298.276 189.215 302.573 189.935 306.826Z" fill="#AD6359"/>
<path d="M188.607 286.559C190.618 290.336 193.428 293.629 196.842 296.208C200.257 298.787 204.192 300.59 208.375 301.492L209.484 286.876L191.214 278.605L188.595 277.546C188.595 277.546 188.607 281.553 188.607 286.559Z" fill="#263238"/>
<path d="M227.559 262.759C232.212 288.118 217.547 293.757 212.078 294.756C207.109 295.657 190.093 298.118 182.846 273.368C175.599 248.618 185.916 238.46 197.158 235.793C208.4 233.125 222.894 237.4 227.559 262.759Z" fill="#AD6359"/>
<path d="M219.35 256.742C218.741 256.742 218.132 256.645 217.571 256.596C216.94 256.626 216.316 256.451 215.793 256.097C215.653 255.952 215.564 255.765 215.54 255.565C215.516 255.365 215.558 255.162 215.659 254.988C215.911 254.671 216.245 254.428 216.625 254.287C217.005 254.145 217.417 254.11 217.815 254.184C218.645 254.195 219.44 254.517 220.044 255.086C220.173 255.225 220.259 255.398 220.292 255.584C220.325 255.771 220.303 255.963 220.23 256.137C220.157 256.312 220.035 256.462 219.879 256.569C219.723 256.676 219.539 256.737 219.35 256.742Z" fill="#263238"/>
<path d="M201.92 259.787C202.495 259.623 203.06 259.428 203.613 259.203C204.232 259.085 204.793 258.763 205.209 258.289C205.314 258.116 205.358 257.913 205.334 257.712C205.31 257.511 205.218 257.324 205.075 257.181C204.751 256.937 204.367 256.785 203.965 256.74C203.562 256.695 203.154 256.759 202.785 256.925C201.983 257.147 201.293 257.659 200.848 258.362C200.756 258.527 200.713 258.715 200.726 258.904C200.739 259.092 200.806 259.273 200.92 259.424C201.033 259.575 201.188 259.69 201.366 259.754C201.543 259.819 201.736 259.83 201.92 259.787Z" fill="#263238"/>
<path d="M206.695 265.914C206.695 265.914 206.573 266.011 206.585 266.084C206.902 267.814 206.963 269.848 205.477 270.652C205.477 270.652 205.477 270.761 205.477 270.749C207.389 270.189 207.267 267.497 206.695 265.914Z" fill="#263238"/>
<path d="M204.88 264.306C202.054 264.513 202.663 270.14 205.282 269.957C207.9 269.775 207.243 264.16 204.88 264.306Z" fill="#263238"/>
<path d="M203.796 264.744C203.345 265.122 202.919 265.731 202.334 265.853C201.749 265.975 201.116 265.463 200.568 264.952C200.568 264.891 200.471 264.952 200.471 265.025C200.58 266.109 201.116 267.168 202.285 267.205C203.455 267.241 204.015 266.194 204.161 265.086C204.198 264.878 203.991 264.598 203.796 264.744Z" fill="#263238"/>
<path d="M216.804 263.904C216.804 263.831 216.95 263.965 216.962 264.038C217.084 265.792 217.51 267.777 219.155 268.191V268.301C217.157 268.216 216.609 265.524 216.804 263.904Z" fill="#263238"/>
<path d="M218.144 261.87C220.933 261.371 221.725 266.986 219.143 267.448C216.56 267.911 215.805 262.333 218.144 261.87Z" fill="#263238"/>
<path d="M219.362 262.126C219.849 262.357 220.373 262.832 220.896 262.796C221.42 262.759 221.895 262.077 222.2 261.444C222.2 261.371 222.285 261.444 222.297 261.444C222.48 262.503 222.297 263.673 221.274 264.026C220.251 264.379 219.544 263.526 219.143 262.491C219.057 262.345 219.167 262.028 219.362 262.126Z" fill="#263238"/>
<path d="M215.269 272.065C215.269 272.065 215.939 274.622 216.085 275.853C216.085 275.962 215.805 276.06 215.391 276.133C214.361 276.455 213.263 276.487 212.216 276.225C211.169 275.963 210.215 275.417 209.459 274.647C209.35 274.537 209.459 274.391 209.618 274.452C211.314 275.332 213.25 275.64 215.135 275.329C215.135 274.988 213.832 270.993 214.015 270.956C214.982 270.916 215.95 271.015 216.889 271.249C215.671 265.877 213.527 260.749 212.37 255.415C212.37 255.22 212.602 255.134 212.675 255.293C215.257 260.518 216.84 266.669 218.265 272.174C218.424 272.832 215.781 272.211 215.269 272.065Z" fill="#263238"/>
<path d="M215.269 275.268C214.762 276.388 213.973 277.357 212.979 278.082C212.424 278.452 211.771 278.647 211.104 278.642C209.642 278.642 209.313 277.339 209.313 276.206C209.321 275.598 209.398 274.993 209.545 274.403C211.312 275.295 213.318 275.598 215.269 275.268Z" fill="#263238"/>
<path d="M212.979 278.118C212.424 278.488 211.771 278.683 211.104 278.678C209.642 278.678 209.313 277.375 209.313 276.242C210.046 276.098 210.807 276.204 211.472 276.544C212.137 276.885 212.668 277.439 212.979 278.118Z" fill="#FF9ABB"/>
<path d="M184.661 272.028C190.824 271.334 191.19 252.187 191.202 249.836C191.263 251.322 191.64 259.166 192.261 259.434C192.924 259.369 193.571 259.192 194.174 258.91C194.095 257.974 194.095 257.033 194.174 256.097C194.174 255.658 194.405 257.022 194.77 258.703L195.891 258.289C195.666 256.295 195.711 254.279 196.025 252.297C196.147 251.541 196.597 254.854 197.535 257.704C202.692 255.764 208.047 254.395 213.503 253.624C215.038 253.454 216.378 253.368 217.559 253.344C217.389 251.03 216.938 248.582 217.145 249.105C217.717 250.463 218.149 251.875 218.436 253.32H220.202C220.117 250.043 218.168 244.952 218.753 245.719C220.492 248.055 221.77 250.7 222.516 253.515C224.77 253.77 225.427 254.16 225.44 253.575C225.44 252.528 223.503 243.49 215.878 237.339C207.596 230.64 192.042 230.031 184.21 241.858C184.21 241.858 177.402 247.071 176.902 254.684C176.403 262.296 181.092 272.418 184.661 272.028Z" fill="#263238"/>
<path d="M187.243 274.586C187.243 274.586 180.873 267.107 177.499 269.446C174.125 271.785 179.363 283.002 183.784 284.184C184.34 284.374 184.929 284.449 185.515 284.406C186.101 284.363 186.672 284.202 187.195 283.932C187.717 283.662 188.179 283.29 188.554 282.837C188.928 282.384 189.208 281.861 189.375 281.297L187.243 274.586Z" fill="#AD6359"/>
<path d="M179.046 272.625V272.735C182.152 273.672 183.991 276.291 185.367 279.068C185.162 278.788 184.899 278.555 184.597 278.384C184.294 278.214 183.958 278.11 183.612 278.08C183.266 278.05 182.918 278.095 182.59 278.211C182.263 278.326 181.964 278.511 181.713 278.751C181.64 278.751 181.713 278.922 181.811 278.898C182.321 278.682 182.885 278.629 183.426 278.747C183.966 278.865 184.458 279.147 184.832 279.555C185.461 280.236 186.009 280.988 186.464 281.796C186.634 282.052 187.097 281.796 186.975 281.565V281.492C186.646 277.704 183.163 272.613 179.046 272.625Z" fill="#263238"/>
<path d="M312.283 194.697C311.529 201.977 308.766 208.903 304.302 214.702C299.838 220.502 293.85 224.945 287.006 227.537C280.162 230.129 272.732 230.766 265.546 229.379C258.361 227.991 251.703 224.632 246.316 219.678L226.548 222.577L236.426 205.525C233.956 199.511 233.027 192.976 233.722 186.512C234.811 176.096 239.992 166.539 248.128 159.943C256.263 153.348 266.685 150.254 277.101 151.343C287.517 152.431 297.074 157.613 303.67 165.748C310.266 173.883 313.359 184.305 312.271 194.722L312.283 194.697Z" fill="white"/>
<path d="M312.283 194.697C311.517 201.977 308.761 208.905 304.317 214.721C302.137 217.648 299.525 220.228 296.571 222.37C289.226 227.964 280.139 230.777 270.92 230.312C269.089 230.261 267.264 230.069 265.463 229.739C258.197 228.395 251.45 225.055 245.975 220.093L246.438 220.239L226.706 223.272L225.269 223.491L226 222.273L235.829 205.221V205.903C233.509 200.242 232.522 194.123 232.945 188.019C233.367 181.915 235.187 175.991 238.265 170.703C241.341 165.438 245.567 160.937 250.628 157.536C255.684 154.19 261.433 152.03 267.442 151.22C273.451 150.41 279.566 150.971 285.328 152.859C291.041 154.798 296.247 157.99 300.566 162.201C304.84 166.385 308.114 171.481 310.143 177.108C312.172 182.735 312.904 188.748 312.283 194.697ZM312.283 194.697C312.913 188.752 312.17 182.74 310.111 177.127C308.052 171.513 304.732 166.448 300.407 162.32C296.081 158.192 290.865 155.112 285.162 153.318C279.458 151.523 273.419 151.062 267.509 151.97C261.652 152.842 256.072 155.046 251.2 158.413C246.374 161.801 242.343 166.198 239.386 171.3C236.471 176.419 234.756 182.133 234.367 188.011C234.002 193.878 234.951 199.754 237.144 205.209L237.291 205.562L237.108 205.879L227.157 222.931L226.45 221.883L246.231 219.118H246.499L246.694 219.301C251.967 224.242 258.513 227.616 265.597 229.045C267.363 229.404 269.155 229.624 270.956 229.703C272.757 229.824 274.563 229.824 276.364 229.703C279.971 229.423 283.522 228.64 286.912 227.376C290.321 226.144 293.531 224.416 296.437 222.248C297.893 221.172 299.284 220.008 300.602 218.765C301.889 217.486 303.09 216.123 304.195 214.685C308.684 208.896 311.483 201.979 312.283 194.697Z" fill="#263238"/>
<path d="M269.105 182.274C271.232 184.509 272.419 187.476 272.419 190.562C272.419 193.648 271.232 196.616 269.105 198.851C268.112 199.944 266.904 200.82 265.556 201.424C264.208 202.027 262.75 202.346 261.273 202.359C259.769 202.352 258.281 202.037 256.903 201.434C255.525 200.83 254.284 199.951 253.259 198.851C251.166 196.598 250.004 193.637 250.004 190.562C250.004 187.488 251.166 184.527 253.259 182.274C254.282 181.17 255.522 180.289 256.901 179.686C258.28 179.082 259.768 178.769 261.273 178.766C262.751 178.773 264.211 179.089 265.56 179.693C266.908 180.297 268.116 181.176 269.105 182.274ZM268.679 190.568C268.684 188.444 267.888 186.395 266.45 184.832C265.788 184.098 264.98 183.512 264.078 183.111C263.176 182.709 262.2 182.502 261.212 182.502C260.225 182.502 259.248 182.709 258.346 183.111C257.444 183.512 256.636 184.098 255.975 184.832C254.527 186.389 253.729 188.442 253.746 190.568C253.725 192.685 254.524 194.728 255.975 196.269C256.632 197.009 257.438 197.601 258.341 198.007C259.244 198.413 260.222 198.622 261.212 198.622C262.202 198.622 263.18 198.413 264.083 198.007C264.986 197.601 265.793 197.009 266.45 196.269C267.891 194.721 268.688 192.683 268.679 190.568Z" fill="#E67109"/>
<path d="M277.899 200.556V181.397C277.899 180.912 278.091 180.447 278.434 180.105C278.776 179.762 279.241 179.57 279.726 179.57C280.21 179.57 280.675 179.762 281.018 180.105C281.36 180.447 281.553 180.912 281.553 181.397V190.788L292.162 180.142C292.328 179.972 292.527 179.837 292.747 179.745C292.966 179.652 293.202 179.605 293.44 179.605C293.679 179.605 293.914 179.652 294.134 179.745C294.354 179.837 294.553 179.972 294.719 180.142C295.048 180.487 295.232 180.945 295.232 181.421C295.232 181.897 295.048 182.356 294.719 182.7L287.448 189.874L294.756 199.411C294.91 199.591 295.025 199.801 295.096 200.027C295.166 200.253 295.19 200.491 295.166 200.726C295.143 200.962 295.071 201.19 294.957 201.397C294.842 201.605 294.687 201.787 294.5 201.932C294.186 202.214 293.777 202.366 293.355 202.359C293.096 202.353 292.84 202.292 292.607 202.178C292.373 202.065 292.167 201.902 292.003 201.701L284.939 192.432L281.528 195.903V200.556C281.528 201.04 281.336 201.505 280.993 201.848C280.651 202.19 280.186 202.383 279.701 202.383C279.217 202.383 278.752 202.19 278.41 201.848C278.067 201.505 277.874 201.04 277.874 200.556H277.899Z" fill="#E67109"/>
</svg>
